%TF.GenerationSoftware,KiCad,Pcbnew,9.0.1*%
%TF.CreationDate,2025-05-05T15:00:31+02:00*%
%TF.ProjectId,macroboard,6d616372-6f62-46f6-9172-642e6b696361,rev?*%
%TF.SameCoordinates,Original*%
%TF.FileFunction,Legend,Top*%
%TF.FilePolarity,Positive*%
%FSLAX46Y46*%
G04 Gerber Fmt 4.6, Leading zero omitted, Abs format (unit mm)*
G04 Created by KiCad (PCBNEW 9.0.1) date 2025-05-05 15:00:31*
%MOMM*%
%LPD*%
G01*
G04 APERTURE LIST*
%ADD10C,0.150000*%
%ADD11C,0.120000*%
G04 APERTURE END LIST*
D10*
X120666667Y-92744700D02*
X120809524Y-92792319D01*
X120809524Y-92792319D02*
X121047619Y-92792319D01*
X121047619Y-92792319D02*
X121142857Y-92744700D01*
X121142857Y-92744700D02*
X121190476Y-92697080D01*
X121190476Y-92697080D02*
X121238095Y-92601842D01*
X121238095Y-92601842D02*
X121238095Y-92506604D01*
X121238095Y-92506604D02*
X121190476Y-92411366D01*
X121190476Y-92411366D02*
X121142857Y-92363747D01*
X121142857Y-92363747D02*
X121047619Y-92316128D01*
X121047619Y-92316128D02*
X120857143Y-92268509D01*
X120857143Y-92268509D02*
X120761905Y-92220890D01*
X120761905Y-92220890D02*
X120714286Y-92173271D01*
X120714286Y-92173271D02*
X120666667Y-92078033D01*
X120666667Y-92078033D02*
X120666667Y-91982795D01*
X120666667Y-91982795D02*
X120714286Y-91887557D01*
X120714286Y-91887557D02*
X120761905Y-91839938D01*
X120761905Y-91839938D02*
X120857143Y-91792319D01*
X120857143Y-91792319D02*
X121095238Y-91792319D01*
X121095238Y-91792319D02*
X121238095Y-91839938D01*
X121571429Y-91792319D02*
X121809524Y-92792319D01*
X121809524Y-92792319D02*
X122000000Y-92078033D01*
X122000000Y-92078033D02*
X122190476Y-92792319D01*
X122190476Y-92792319D02*
X122428572Y-91792319D01*
X122952381Y-92220890D02*
X122857143Y-92173271D01*
X122857143Y-92173271D02*
X122809524Y-92125652D01*
X122809524Y-92125652D02*
X122761905Y-92030414D01*
X122761905Y-92030414D02*
X122761905Y-91982795D01*
X122761905Y-91982795D02*
X122809524Y-91887557D01*
X122809524Y-91887557D02*
X122857143Y-91839938D01*
X122857143Y-91839938D02*
X122952381Y-91792319D01*
X122952381Y-91792319D02*
X123142857Y-91792319D01*
X123142857Y-91792319D02*
X123238095Y-91839938D01*
X123238095Y-91839938D02*
X123285714Y-91887557D01*
X123285714Y-91887557D02*
X123333333Y-91982795D01*
X123333333Y-91982795D02*
X123333333Y-92030414D01*
X123333333Y-92030414D02*
X123285714Y-92125652D01*
X123285714Y-92125652D02*
X123238095Y-92173271D01*
X123238095Y-92173271D02*
X123142857Y-92220890D01*
X123142857Y-92220890D02*
X122952381Y-92220890D01*
X122952381Y-92220890D02*
X122857143Y-92268509D01*
X122857143Y-92268509D02*
X122809524Y-92316128D01*
X122809524Y-92316128D02*
X122761905Y-92411366D01*
X122761905Y-92411366D02*
X122761905Y-92601842D01*
X122761905Y-92601842D02*
X122809524Y-92697080D01*
X122809524Y-92697080D02*
X122857143Y-92744700D01*
X122857143Y-92744700D02*
X122952381Y-92792319D01*
X122952381Y-92792319D02*
X123142857Y-92792319D01*
X123142857Y-92792319D02*
X123238095Y-92744700D01*
X123238095Y-92744700D02*
X123285714Y-92697080D01*
X123285714Y-92697080D02*
X123333333Y-92601842D01*
X123333333Y-92601842D02*
X123333333Y-92411366D01*
X123333333Y-92411366D02*
X123285714Y-92316128D01*
X123285714Y-92316128D02*
X123238095Y-92268509D01*
X123238095Y-92268509D02*
X123142857Y-92220890D01*
X78666667Y-113744700D02*
X78809524Y-113792319D01*
X78809524Y-113792319D02*
X79047619Y-113792319D01*
X79047619Y-113792319D02*
X79142857Y-113744700D01*
X79142857Y-113744700D02*
X79190476Y-113697080D01*
X79190476Y-113697080D02*
X79238095Y-113601842D01*
X79238095Y-113601842D02*
X79238095Y-113506604D01*
X79238095Y-113506604D02*
X79190476Y-113411366D01*
X79190476Y-113411366D02*
X79142857Y-113363747D01*
X79142857Y-113363747D02*
X79047619Y-113316128D01*
X79047619Y-113316128D02*
X78857143Y-113268509D01*
X78857143Y-113268509D02*
X78761905Y-113220890D01*
X78761905Y-113220890D02*
X78714286Y-113173271D01*
X78714286Y-113173271D02*
X78666667Y-113078033D01*
X78666667Y-113078033D02*
X78666667Y-112982795D01*
X78666667Y-112982795D02*
X78714286Y-112887557D01*
X78714286Y-112887557D02*
X78761905Y-112839938D01*
X78761905Y-112839938D02*
X78857143Y-112792319D01*
X78857143Y-112792319D02*
X79095238Y-112792319D01*
X79095238Y-112792319D02*
X79238095Y-112839938D01*
X79571429Y-112792319D02*
X79809524Y-113792319D01*
X79809524Y-113792319D02*
X80000000Y-113078033D01*
X80000000Y-113078033D02*
X80190476Y-113792319D01*
X80190476Y-113792319D02*
X80428572Y-112792319D01*
X80714286Y-112792319D02*
X81333333Y-112792319D01*
X81333333Y-112792319D02*
X81000000Y-113173271D01*
X81000000Y-113173271D02*
X81142857Y-113173271D01*
X81142857Y-113173271D02*
X81238095Y-113220890D01*
X81238095Y-113220890D02*
X81285714Y-113268509D01*
X81285714Y-113268509D02*
X81333333Y-113363747D01*
X81333333Y-113363747D02*
X81333333Y-113601842D01*
X81333333Y-113601842D02*
X81285714Y-113697080D01*
X81285714Y-113697080D02*
X81238095Y-113744700D01*
X81238095Y-113744700D02*
X81142857Y-113792319D01*
X81142857Y-113792319D02*
X80857143Y-113792319D01*
X80857143Y-113792319D02*
X80761905Y-113744700D01*
X80761905Y-113744700D02*
X80714286Y-113697080D01*
X88690476Y-50744700D02*
X88833333Y-50792319D01*
X88833333Y-50792319D02*
X89071428Y-50792319D01*
X89071428Y-50792319D02*
X89166666Y-50744700D01*
X89166666Y-50744700D02*
X89214285Y-50697080D01*
X89214285Y-50697080D02*
X89261904Y-50601842D01*
X89261904Y-50601842D02*
X89261904Y-50506604D01*
X89261904Y-50506604D02*
X89214285Y-50411366D01*
X89214285Y-50411366D02*
X89166666Y-50363747D01*
X89166666Y-50363747D02*
X89071428Y-50316128D01*
X89071428Y-50316128D02*
X88880952Y-50268509D01*
X88880952Y-50268509D02*
X88785714Y-50220890D01*
X88785714Y-50220890D02*
X88738095Y-50173271D01*
X88738095Y-50173271D02*
X88690476Y-50078033D01*
X88690476Y-50078033D02*
X88690476Y-49982795D01*
X88690476Y-49982795D02*
X88738095Y-49887557D01*
X88738095Y-49887557D02*
X88785714Y-49839938D01*
X88785714Y-49839938D02*
X88880952Y-49792319D01*
X88880952Y-49792319D02*
X89119047Y-49792319D01*
X89119047Y-49792319D02*
X89261904Y-49839938D01*
X89595238Y-49792319D02*
X89833333Y-50792319D01*
X89833333Y-50792319D02*
X90023809Y-50078033D01*
X90023809Y-50078033D02*
X90214285Y-50792319D01*
X90214285Y-50792319D02*
X90452381Y-49792319D01*
X91357142Y-50792319D02*
X90785714Y-50792319D01*
X91071428Y-50792319D02*
X91071428Y-49792319D01*
X91071428Y-49792319D02*
X90976190Y-49935176D01*
X90976190Y-49935176D02*
X90880952Y-50030414D01*
X90880952Y-50030414D02*
X90785714Y-50078033D01*
X92214285Y-50125652D02*
X92214285Y-50792319D01*
X91976190Y-49744700D02*
X91738095Y-50458985D01*
X91738095Y-50458985D02*
X92357142Y-50458985D01*
X99666667Y-92744700D02*
X99809524Y-92792319D01*
X99809524Y-92792319D02*
X100047619Y-92792319D01*
X100047619Y-92792319D02*
X100142857Y-92744700D01*
X100142857Y-92744700D02*
X100190476Y-92697080D01*
X100190476Y-92697080D02*
X100238095Y-92601842D01*
X100238095Y-92601842D02*
X100238095Y-92506604D01*
X100238095Y-92506604D02*
X100190476Y-92411366D01*
X100190476Y-92411366D02*
X100142857Y-92363747D01*
X100142857Y-92363747D02*
X100047619Y-92316128D01*
X100047619Y-92316128D02*
X99857143Y-92268509D01*
X99857143Y-92268509D02*
X99761905Y-92220890D01*
X99761905Y-92220890D02*
X99714286Y-92173271D01*
X99714286Y-92173271D02*
X99666667Y-92078033D01*
X99666667Y-92078033D02*
X99666667Y-91982795D01*
X99666667Y-91982795D02*
X99714286Y-91887557D01*
X99714286Y-91887557D02*
X99761905Y-91839938D01*
X99761905Y-91839938D02*
X99857143Y-91792319D01*
X99857143Y-91792319D02*
X100095238Y-91792319D01*
X100095238Y-91792319D02*
X100238095Y-91839938D01*
X100571429Y-91792319D02*
X100809524Y-92792319D01*
X100809524Y-92792319D02*
X101000000Y-92078033D01*
X101000000Y-92078033D02*
X101190476Y-92792319D01*
X101190476Y-92792319D02*
X101428572Y-91792319D01*
X102285714Y-91792319D02*
X101809524Y-91792319D01*
X101809524Y-91792319D02*
X101761905Y-92268509D01*
X101761905Y-92268509D02*
X101809524Y-92220890D01*
X101809524Y-92220890D02*
X101904762Y-92173271D01*
X101904762Y-92173271D02*
X102142857Y-92173271D01*
X102142857Y-92173271D02*
X102238095Y-92220890D01*
X102238095Y-92220890D02*
X102285714Y-92268509D01*
X102285714Y-92268509D02*
X102333333Y-92363747D01*
X102333333Y-92363747D02*
X102333333Y-92601842D01*
X102333333Y-92601842D02*
X102285714Y-92697080D01*
X102285714Y-92697080D02*
X102238095Y-92744700D01*
X102238095Y-92744700D02*
X102142857Y-92792319D01*
X102142857Y-92792319D02*
X101904762Y-92792319D01*
X101904762Y-92792319D02*
X101809524Y-92744700D01*
X101809524Y-92744700D02*
X101761905Y-92697080D01*
X141190476Y-92744700D02*
X141333333Y-92792319D01*
X141333333Y-92792319D02*
X141571428Y-92792319D01*
X141571428Y-92792319D02*
X141666666Y-92744700D01*
X141666666Y-92744700D02*
X141714285Y-92697080D01*
X141714285Y-92697080D02*
X141761904Y-92601842D01*
X141761904Y-92601842D02*
X141761904Y-92506604D01*
X141761904Y-92506604D02*
X141714285Y-92411366D01*
X141714285Y-92411366D02*
X141666666Y-92363747D01*
X141666666Y-92363747D02*
X141571428Y-92316128D01*
X141571428Y-92316128D02*
X141380952Y-92268509D01*
X141380952Y-92268509D02*
X141285714Y-92220890D01*
X141285714Y-92220890D02*
X141238095Y-92173271D01*
X141238095Y-92173271D02*
X141190476Y-92078033D01*
X141190476Y-92078033D02*
X141190476Y-91982795D01*
X141190476Y-91982795D02*
X141238095Y-91887557D01*
X141238095Y-91887557D02*
X141285714Y-91839938D01*
X141285714Y-91839938D02*
X141380952Y-91792319D01*
X141380952Y-91792319D02*
X141619047Y-91792319D01*
X141619047Y-91792319D02*
X141761904Y-91839938D01*
X142095238Y-91792319D02*
X142333333Y-92792319D01*
X142333333Y-92792319D02*
X142523809Y-92078033D01*
X142523809Y-92078033D02*
X142714285Y-92792319D01*
X142714285Y-92792319D02*
X142952381Y-91792319D01*
X143857142Y-92792319D02*
X143285714Y-92792319D01*
X143571428Y-92792319D02*
X143571428Y-91792319D01*
X143571428Y-91792319D02*
X143476190Y-91935176D01*
X143476190Y-91935176D02*
X143380952Y-92030414D01*
X143380952Y-92030414D02*
X143285714Y-92078033D01*
X144809523Y-92792319D02*
X144238095Y-92792319D01*
X144523809Y-92792319D02*
X144523809Y-91792319D01*
X144523809Y-91792319D02*
X144428571Y-91935176D01*
X144428571Y-91935176D02*
X144333333Y-92030414D01*
X144333333Y-92030414D02*
X144238095Y-92078033D01*
X78666667Y-71744700D02*
X78809524Y-71792319D01*
X78809524Y-71792319D02*
X79047619Y-71792319D01*
X79047619Y-71792319D02*
X79142857Y-71744700D01*
X79142857Y-71744700D02*
X79190476Y-71697080D01*
X79190476Y-71697080D02*
X79238095Y-71601842D01*
X79238095Y-71601842D02*
X79238095Y-71506604D01*
X79238095Y-71506604D02*
X79190476Y-71411366D01*
X79190476Y-71411366D02*
X79142857Y-71363747D01*
X79142857Y-71363747D02*
X79047619Y-71316128D01*
X79047619Y-71316128D02*
X78857143Y-71268509D01*
X78857143Y-71268509D02*
X78761905Y-71220890D01*
X78761905Y-71220890D02*
X78714286Y-71173271D01*
X78714286Y-71173271D02*
X78666667Y-71078033D01*
X78666667Y-71078033D02*
X78666667Y-70982795D01*
X78666667Y-70982795D02*
X78714286Y-70887557D01*
X78714286Y-70887557D02*
X78761905Y-70839938D01*
X78761905Y-70839938D02*
X78857143Y-70792319D01*
X78857143Y-70792319D02*
X79095238Y-70792319D01*
X79095238Y-70792319D02*
X79238095Y-70839938D01*
X79571429Y-70792319D02*
X79809524Y-71792319D01*
X79809524Y-71792319D02*
X80000000Y-71078033D01*
X80000000Y-71078033D02*
X80190476Y-71792319D01*
X80190476Y-71792319D02*
X80428572Y-70792319D01*
X81333333Y-71792319D02*
X80761905Y-71792319D01*
X81047619Y-71792319D02*
X81047619Y-70792319D01*
X81047619Y-70792319D02*
X80952381Y-70935176D01*
X80952381Y-70935176D02*
X80857143Y-71030414D01*
X80857143Y-71030414D02*
X80761905Y-71078033D01*
X99666667Y-113744700D02*
X99809524Y-113792319D01*
X99809524Y-113792319D02*
X100047619Y-113792319D01*
X100047619Y-113792319D02*
X100142857Y-113744700D01*
X100142857Y-113744700D02*
X100190476Y-113697080D01*
X100190476Y-113697080D02*
X100238095Y-113601842D01*
X100238095Y-113601842D02*
X100238095Y-113506604D01*
X100238095Y-113506604D02*
X100190476Y-113411366D01*
X100190476Y-113411366D02*
X100142857Y-113363747D01*
X100142857Y-113363747D02*
X100047619Y-113316128D01*
X100047619Y-113316128D02*
X99857143Y-113268509D01*
X99857143Y-113268509D02*
X99761905Y-113220890D01*
X99761905Y-113220890D02*
X99714286Y-113173271D01*
X99714286Y-113173271D02*
X99666667Y-113078033D01*
X99666667Y-113078033D02*
X99666667Y-112982795D01*
X99666667Y-112982795D02*
X99714286Y-112887557D01*
X99714286Y-112887557D02*
X99761905Y-112839938D01*
X99761905Y-112839938D02*
X99857143Y-112792319D01*
X99857143Y-112792319D02*
X100095238Y-112792319D01*
X100095238Y-112792319D02*
X100238095Y-112839938D01*
X100571429Y-112792319D02*
X100809524Y-113792319D01*
X100809524Y-113792319D02*
X101000000Y-113078033D01*
X101000000Y-113078033D02*
X101190476Y-113792319D01*
X101190476Y-113792319D02*
X101428572Y-112792319D01*
X102238095Y-112792319D02*
X102047619Y-112792319D01*
X102047619Y-112792319D02*
X101952381Y-112839938D01*
X101952381Y-112839938D02*
X101904762Y-112887557D01*
X101904762Y-112887557D02*
X101809524Y-113030414D01*
X101809524Y-113030414D02*
X101761905Y-113220890D01*
X101761905Y-113220890D02*
X101761905Y-113601842D01*
X101761905Y-113601842D02*
X101809524Y-113697080D01*
X101809524Y-113697080D02*
X101857143Y-113744700D01*
X101857143Y-113744700D02*
X101952381Y-113792319D01*
X101952381Y-113792319D02*
X102142857Y-113792319D01*
X102142857Y-113792319D02*
X102238095Y-113744700D01*
X102238095Y-113744700D02*
X102285714Y-113697080D01*
X102285714Y-113697080D02*
X102333333Y-113601842D01*
X102333333Y-113601842D02*
X102333333Y-113363747D01*
X102333333Y-113363747D02*
X102285714Y-113268509D01*
X102285714Y-113268509D02*
X102238095Y-113220890D01*
X102238095Y-113220890D02*
X102142857Y-113173271D01*
X102142857Y-113173271D02*
X101952381Y-113173271D01*
X101952381Y-113173271D02*
X101857143Y-113220890D01*
X101857143Y-113220890D02*
X101809524Y-113268509D01*
X101809524Y-113268509D02*
X101761905Y-113363747D01*
X123407200Y-47809523D02*
X123454819Y-47666666D01*
X123454819Y-47666666D02*
X123454819Y-47428571D01*
X123454819Y-47428571D02*
X123407200Y-47333333D01*
X123407200Y-47333333D02*
X123359580Y-47285714D01*
X123359580Y-47285714D02*
X123264342Y-47238095D01*
X123264342Y-47238095D02*
X123169104Y-47238095D01*
X123169104Y-47238095D02*
X123073866Y-47285714D01*
X123073866Y-47285714D02*
X123026247Y-47333333D01*
X123026247Y-47333333D02*
X122978628Y-47428571D01*
X122978628Y-47428571D02*
X122931009Y-47619047D01*
X122931009Y-47619047D02*
X122883390Y-47714285D01*
X122883390Y-47714285D02*
X122835771Y-47761904D01*
X122835771Y-47761904D02*
X122740533Y-47809523D01*
X122740533Y-47809523D02*
X122645295Y-47809523D01*
X122645295Y-47809523D02*
X122550057Y-47761904D01*
X122550057Y-47761904D02*
X122502438Y-47714285D01*
X122502438Y-47714285D02*
X122454819Y-47619047D01*
X122454819Y-47619047D02*
X122454819Y-47380952D01*
X122454819Y-47380952D02*
X122502438Y-47238095D01*
X122454819Y-46904761D02*
X123454819Y-46666666D01*
X123454819Y-46666666D02*
X122740533Y-46476190D01*
X122740533Y-46476190D02*
X123454819Y-46285714D01*
X123454819Y-46285714D02*
X122454819Y-46047619D01*
X123454819Y-45142857D02*
X123454819Y-45714285D01*
X123454819Y-45428571D02*
X122454819Y-45428571D01*
X122454819Y-45428571D02*
X122597676Y-45523809D01*
X122597676Y-45523809D02*
X122692914Y-45619047D01*
X122692914Y-45619047D02*
X122740533Y-45714285D01*
X122454819Y-44809523D02*
X122454819Y-44190476D01*
X122454819Y-44190476D02*
X122835771Y-44523809D01*
X122835771Y-44523809D02*
X122835771Y-44380952D01*
X122835771Y-44380952D02*
X122883390Y-44285714D01*
X122883390Y-44285714D02*
X122931009Y-44238095D01*
X122931009Y-44238095D02*
X123026247Y-44190476D01*
X123026247Y-44190476D02*
X123264342Y-44190476D01*
X123264342Y-44190476D02*
X123359580Y-44238095D01*
X123359580Y-44238095D02*
X123407200Y-44285714D01*
X123407200Y-44285714D02*
X123454819Y-44380952D01*
X123454819Y-44380952D02*
X123454819Y-44666666D01*
X123454819Y-44666666D02*
X123407200Y-44761904D01*
X123407200Y-44761904D02*
X123359580Y-44809523D01*
X141190476Y-113744700D02*
X141333333Y-113792319D01*
X141333333Y-113792319D02*
X141571428Y-113792319D01*
X141571428Y-113792319D02*
X141666666Y-113744700D01*
X141666666Y-113744700D02*
X141714285Y-113697080D01*
X141714285Y-113697080D02*
X141761904Y-113601842D01*
X141761904Y-113601842D02*
X141761904Y-113506604D01*
X141761904Y-113506604D02*
X141714285Y-113411366D01*
X141714285Y-113411366D02*
X141666666Y-113363747D01*
X141666666Y-113363747D02*
X141571428Y-113316128D01*
X141571428Y-113316128D02*
X141380952Y-113268509D01*
X141380952Y-113268509D02*
X141285714Y-113220890D01*
X141285714Y-113220890D02*
X141238095Y-113173271D01*
X141238095Y-113173271D02*
X141190476Y-113078033D01*
X141190476Y-113078033D02*
X141190476Y-112982795D01*
X141190476Y-112982795D02*
X141238095Y-112887557D01*
X141238095Y-112887557D02*
X141285714Y-112839938D01*
X141285714Y-112839938D02*
X141380952Y-112792319D01*
X141380952Y-112792319D02*
X141619047Y-112792319D01*
X141619047Y-112792319D02*
X141761904Y-112839938D01*
X142095238Y-112792319D02*
X142333333Y-113792319D01*
X142333333Y-113792319D02*
X142523809Y-113078033D01*
X142523809Y-113078033D02*
X142714285Y-113792319D01*
X142714285Y-113792319D02*
X142952381Y-112792319D01*
X143857142Y-113792319D02*
X143285714Y-113792319D01*
X143571428Y-113792319D02*
X143571428Y-112792319D01*
X143571428Y-112792319D02*
X143476190Y-112935176D01*
X143476190Y-112935176D02*
X143380952Y-113030414D01*
X143380952Y-113030414D02*
X143285714Y-113078033D01*
X144238095Y-112887557D02*
X144285714Y-112839938D01*
X144285714Y-112839938D02*
X144380952Y-112792319D01*
X144380952Y-112792319D02*
X144619047Y-112792319D01*
X144619047Y-112792319D02*
X144714285Y-112839938D01*
X144714285Y-112839938D02*
X144761904Y-112887557D01*
X144761904Y-112887557D02*
X144809523Y-112982795D01*
X144809523Y-112982795D02*
X144809523Y-113078033D01*
X144809523Y-113078033D02*
X144761904Y-113220890D01*
X144761904Y-113220890D02*
X144190476Y-113792319D01*
X144190476Y-113792319D02*
X144809523Y-113792319D01*
X120666667Y-71744700D02*
X120809524Y-71792319D01*
X120809524Y-71792319D02*
X121047619Y-71792319D01*
X121047619Y-71792319D02*
X121142857Y-71744700D01*
X121142857Y-71744700D02*
X121190476Y-71697080D01*
X121190476Y-71697080D02*
X121238095Y-71601842D01*
X121238095Y-71601842D02*
X121238095Y-71506604D01*
X121238095Y-71506604D02*
X121190476Y-71411366D01*
X121190476Y-71411366D02*
X121142857Y-71363747D01*
X121142857Y-71363747D02*
X121047619Y-71316128D01*
X121047619Y-71316128D02*
X120857143Y-71268509D01*
X120857143Y-71268509D02*
X120761905Y-71220890D01*
X120761905Y-71220890D02*
X120714286Y-71173271D01*
X120714286Y-71173271D02*
X120666667Y-71078033D01*
X120666667Y-71078033D02*
X120666667Y-70982795D01*
X120666667Y-70982795D02*
X120714286Y-70887557D01*
X120714286Y-70887557D02*
X120761905Y-70839938D01*
X120761905Y-70839938D02*
X120857143Y-70792319D01*
X120857143Y-70792319D02*
X121095238Y-70792319D01*
X121095238Y-70792319D02*
X121238095Y-70839938D01*
X121571429Y-70792319D02*
X121809524Y-71792319D01*
X121809524Y-71792319D02*
X122000000Y-71078033D01*
X122000000Y-71078033D02*
X122190476Y-71792319D01*
X122190476Y-71792319D02*
X122428572Y-70792319D01*
X122714286Y-70792319D02*
X123380952Y-70792319D01*
X123380952Y-70792319D02*
X122952381Y-71792319D01*
X141190476Y-71744700D02*
X141333333Y-71792319D01*
X141333333Y-71792319D02*
X141571428Y-71792319D01*
X141571428Y-71792319D02*
X141666666Y-71744700D01*
X141666666Y-71744700D02*
X141714285Y-71697080D01*
X141714285Y-71697080D02*
X141761904Y-71601842D01*
X141761904Y-71601842D02*
X141761904Y-71506604D01*
X141761904Y-71506604D02*
X141714285Y-71411366D01*
X141714285Y-71411366D02*
X141666666Y-71363747D01*
X141666666Y-71363747D02*
X141571428Y-71316128D01*
X141571428Y-71316128D02*
X141380952Y-71268509D01*
X141380952Y-71268509D02*
X141285714Y-71220890D01*
X141285714Y-71220890D02*
X141238095Y-71173271D01*
X141238095Y-71173271D02*
X141190476Y-71078033D01*
X141190476Y-71078033D02*
X141190476Y-70982795D01*
X141190476Y-70982795D02*
X141238095Y-70887557D01*
X141238095Y-70887557D02*
X141285714Y-70839938D01*
X141285714Y-70839938D02*
X141380952Y-70792319D01*
X141380952Y-70792319D02*
X141619047Y-70792319D01*
X141619047Y-70792319D02*
X141761904Y-70839938D01*
X142095238Y-70792319D02*
X142333333Y-71792319D01*
X142333333Y-71792319D02*
X142523809Y-71078033D01*
X142523809Y-71078033D02*
X142714285Y-71792319D01*
X142714285Y-71792319D02*
X142952381Y-70792319D01*
X143857142Y-71792319D02*
X143285714Y-71792319D01*
X143571428Y-71792319D02*
X143571428Y-70792319D01*
X143571428Y-70792319D02*
X143476190Y-70935176D01*
X143476190Y-70935176D02*
X143380952Y-71030414D01*
X143380952Y-71030414D02*
X143285714Y-71078033D01*
X144476190Y-70792319D02*
X144571428Y-70792319D01*
X144571428Y-70792319D02*
X144666666Y-70839938D01*
X144666666Y-70839938D02*
X144714285Y-70887557D01*
X144714285Y-70887557D02*
X144761904Y-70982795D01*
X144761904Y-70982795D02*
X144809523Y-71173271D01*
X144809523Y-71173271D02*
X144809523Y-71411366D01*
X144809523Y-71411366D02*
X144761904Y-71601842D01*
X144761904Y-71601842D02*
X144714285Y-71697080D01*
X144714285Y-71697080D02*
X144666666Y-71744700D01*
X144666666Y-71744700D02*
X144571428Y-71792319D01*
X144571428Y-71792319D02*
X144476190Y-71792319D01*
X144476190Y-71792319D02*
X144380952Y-71744700D01*
X144380952Y-71744700D02*
X144333333Y-71697080D01*
X144333333Y-71697080D02*
X144285714Y-71601842D01*
X144285714Y-71601842D02*
X144238095Y-71411366D01*
X144238095Y-71411366D02*
X144238095Y-71173271D01*
X144238095Y-71173271D02*
X144285714Y-70982795D01*
X144285714Y-70982795D02*
X144333333Y-70887557D01*
X144333333Y-70887557D02*
X144380952Y-70839938D01*
X144380952Y-70839938D02*
X144476190Y-70792319D01*
X120666667Y-113744700D02*
X120809524Y-113792319D01*
X120809524Y-113792319D02*
X121047619Y-113792319D01*
X121047619Y-113792319D02*
X121142857Y-113744700D01*
X121142857Y-113744700D02*
X121190476Y-113697080D01*
X121190476Y-113697080D02*
X121238095Y-113601842D01*
X121238095Y-113601842D02*
X121238095Y-113506604D01*
X121238095Y-113506604D02*
X121190476Y-113411366D01*
X121190476Y-113411366D02*
X121142857Y-113363747D01*
X121142857Y-113363747D02*
X121047619Y-113316128D01*
X121047619Y-113316128D02*
X120857143Y-113268509D01*
X120857143Y-113268509D02*
X120761905Y-113220890D01*
X120761905Y-113220890D02*
X120714286Y-113173271D01*
X120714286Y-113173271D02*
X120666667Y-113078033D01*
X120666667Y-113078033D02*
X120666667Y-112982795D01*
X120666667Y-112982795D02*
X120714286Y-112887557D01*
X120714286Y-112887557D02*
X120761905Y-112839938D01*
X120761905Y-112839938D02*
X120857143Y-112792319D01*
X120857143Y-112792319D02*
X121095238Y-112792319D01*
X121095238Y-112792319D02*
X121238095Y-112839938D01*
X121571429Y-112792319D02*
X121809524Y-113792319D01*
X121809524Y-113792319D02*
X122000000Y-113078033D01*
X122000000Y-113078033D02*
X122190476Y-113792319D01*
X122190476Y-113792319D02*
X122428572Y-112792319D01*
X122857143Y-113792319D02*
X123047619Y-113792319D01*
X123047619Y-113792319D02*
X123142857Y-113744700D01*
X123142857Y-113744700D02*
X123190476Y-113697080D01*
X123190476Y-113697080D02*
X123285714Y-113554223D01*
X123285714Y-113554223D02*
X123333333Y-113363747D01*
X123333333Y-113363747D02*
X123333333Y-112982795D01*
X123333333Y-112982795D02*
X123285714Y-112887557D01*
X123285714Y-112887557D02*
X123238095Y-112839938D01*
X123238095Y-112839938D02*
X123142857Y-112792319D01*
X123142857Y-112792319D02*
X122952381Y-112792319D01*
X122952381Y-112792319D02*
X122857143Y-112839938D01*
X122857143Y-112839938D02*
X122809524Y-112887557D01*
X122809524Y-112887557D02*
X122761905Y-112982795D01*
X122761905Y-112982795D02*
X122761905Y-113220890D01*
X122761905Y-113220890D02*
X122809524Y-113316128D01*
X122809524Y-113316128D02*
X122857143Y-113363747D01*
X122857143Y-113363747D02*
X122952381Y-113411366D01*
X122952381Y-113411366D02*
X123142857Y-113411366D01*
X123142857Y-113411366D02*
X123238095Y-113363747D01*
X123238095Y-113363747D02*
X123285714Y-113316128D01*
X123285714Y-113316128D02*
X123333333Y-113220890D01*
X99666667Y-71744700D02*
X99809524Y-71792319D01*
X99809524Y-71792319D02*
X100047619Y-71792319D01*
X100047619Y-71792319D02*
X100142857Y-71744700D01*
X100142857Y-71744700D02*
X100190476Y-71697080D01*
X100190476Y-71697080D02*
X100238095Y-71601842D01*
X100238095Y-71601842D02*
X100238095Y-71506604D01*
X100238095Y-71506604D02*
X100190476Y-71411366D01*
X100190476Y-71411366D02*
X100142857Y-71363747D01*
X100142857Y-71363747D02*
X100047619Y-71316128D01*
X100047619Y-71316128D02*
X99857143Y-71268509D01*
X99857143Y-71268509D02*
X99761905Y-71220890D01*
X99761905Y-71220890D02*
X99714286Y-71173271D01*
X99714286Y-71173271D02*
X99666667Y-71078033D01*
X99666667Y-71078033D02*
X99666667Y-70982795D01*
X99666667Y-70982795D02*
X99714286Y-70887557D01*
X99714286Y-70887557D02*
X99761905Y-70839938D01*
X99761905Y-70839938D02*
X99857143Y-70792319D01*
X99857143Y-70792319D02*
X100095238Y-70792319D01*
X100095238Y-70792319D02*
X100238095Y-70839938D01*
X100571429Y-70792319D02*
X100809524Y-71792319D01*
X100809524Y-71792319D02*
X101000000Y-71078033D01*
X101000000Y-71078033D02*
X101190476Y-71792319D01*
X101190476Y-71792319D02*
X101428572Y-70792319D01*
X102238095Y-71125652D02*
X102238095Y-71792319D01*
X102000000Y-70744700D02*
X101761905Y-71458985D01*
X101761905Y-71458985D02*
X102380952Y-71458985D01*
X78666667Y-92744700D02*
X78809524Y-92792319D01*
X78809524Y-92792319D02*
X79047619Y-92792319D01*
X79047619Y-92792319D02*
X79142857Y-92744700D01*
X79142857Y-92744700D02*
X79190476Y-92697080D01*
X79190476Y-92697080D02*
X79238095Y-92601842D01*
X79238095Y-92601842D02*
X79238095Y-92506604D01*
X79238095Y-92506604D02*
X79190476Y-92411366D01*
X79190476Y-92411366D02*
X79142857Y-92363747D01*
X79142857Y-92363747D02*
X79047619Y-92316128D01*
X79047619Y-92316128D02*
X78857143Y-92268509D01*
X78857143Y-92268509D02*
X78761905Y-92220890D01*
X78761905Y-92220890D02*
X78714286Y-92173271D01*
X78714286Y-92173271D02*
X78666667Y-92078033D01*
X78666667Y-92078033D02*
X78666667Y-91982795D01*
X78666667Y-91982795D02*
X78714286Y-91887557D01*
X78714286Y-91887557D02*
X78761905Y-91839938D01*
X78761905Y-91839938D02*
X78857143Y-91792319D01*
X78857143Y-91792319D02*
X79095238Y-91792319D01*
X79095238Y-91792319D02*
X79238095Y-91839938D01*
X79571429Y-91792319D02*
X79809524Y-92792319D01*
X79809524Y-92792319D02*
X80000000Y-92078033D01*
X80000000Y-92078033D02*
X80190476Y-92792319D01*
X80190476Y-92792319D02*
X80428572Y-91792319D01*
X80761905Y-91887557D02*
X80809524Y-91839938D01*
X80809524Y-91839938D02*
X80904762Y-91792319D01*
X80904762Y-91792319D02*
X81142857Y-91792319D01*
X81142857Y-91792319D02*
X81238095Y-91839938D01*
X81238095Y-91839938D02*
X81285714Y-91887557D01*
X81285714Y-91887557D02*
X81333333Y-91982795D01*
X81333333Y-91982795D02*
X81333333Y-92078033D01*
X81333333Y-92078033D02*
X81285714Y-92220890D01*
X81285714Y-92220890D02*
X80714286Y-92792319D01*
X80714286Y-92792319D02*
X81333333Y-92792319D01*
D11*
%TO.C,SW8*%
X115000000Y-94000000D02*
X115000000Y-108000000D01*
X115000000Y-94000000D02*
X129000000Y-94000000D01*
X129000000Y-94000000D02*
X129000000Y-108000000D01*
X129000000Y-108000000D02*
X115000000Y-108000000D01*
%TO.C,SW3*%
X73000000Y-115000000D02*
X73000000Y-129000000D01*
X73000000Y-115000000D02*
X87000000Y-115000000D01*
X87000000Y-115000000D02*
X87000000Y-129000000D01*
X87000000Y-129000000D02*
X73000000Y-129000000D01*
%TO.C,SW14*%
X83500000Y-52000000D02*
X83500000Y-66000000D01*
X83500000Y-52000000D02*
X97500000Y-52000000D01*
X97500000Y-52000000D02*
X97500000Y-66000000D01*
X97500000Y-66000000D02*
X83500000Y-66000000D01*
%TO.C,SW5*%
X94000000Y-94000000D02*
X94000000Y-108000000D01*
X94000000Y-94000000D02*
X108000000Y-94000000D01*
X108000000Y-94000000D02*
X108000000Y-108000000D01*
X108000000Y-108000000D02*
X94000000Y-108000000D01*
%TO.C,SW11*%
X136000000Y-94000000D02*
X136000000Y-108000000D01*
X136000000Y-94000000D02*
X150000000Y-94000000D01*
X150000000Y-94000000D02*
X150000000Y-108000000D01*
X150000000Y-108000000D02*
X136000000Y-108000000D01*
%TO.C,SW1*%
X73000000Y-73000000D02*
X73000000Y-87000000D01*
X73000000Y-73000000D02*
X87000000Y-73000000D01*
X87000000Y-73000000D02*
X87000000Y-87000000D01*
X87000000Y-87000000D02*
X73000000Y-87000000D01*
%TO.C,SW6*%
X94000000Y-115000000D02*
X94000000Y-129000000D01*
X94000000Y-115000000D02*
X108000000Y-115000000D01*
X108000000Y-115000000D02*
X108000000Y-129000000D01*
X108000000Y-129000000D02*
X94000000Y-129000000D01*
%TO.C,SW12*%
X136000000Y-115000000D02*
X136000000Y-129000000D01*
X136000000Y-115000000D02*
X150000000Y-115000000D01*
X150000000Y-115000000D02*
X150000000Y-129000000D01*
X150000000Y-129000000D02*
X136000000Y-129000000D01*
%TO.C,SW7*%
X115000000Y-73000000D02*
X115000000Y-87000000D01*
X115000000Y-73000000D02*
X129000000Y-73000000D01*
X129000000Y-73000000D02*
X129000000Y-87000000D01*
X129000000Y-87000000D02*
X115000000Y-87000000D01*
%TO.C,SW10*%
X136000000Y-73000000D02*
X136000000Y-87000000D01*
X136000000Y-73000000D02*
X150000000Y-73000000D01*
X150000000Y-73000000D02*
X150000000Y-87000000D01*
X150000000Y-87000000D02*
X136000000Y-87000000D01*
%TO.C,SW9*%
X115000000Y-115000000D02*
X115000000Y-129000000D01*
X115000000Y-115000000D02*
X129000000Y-115000000D01*
X129000000Y-115000000D02*
X129000000Y-129000000D01*
X129000000Y-129000000D02*
X115000000Y-129000000D01*
%TO.C,SW4*%
X94000000Y-73000000D02*
X94000000Y-87000000D01*
X94000000Y-73000000D02*
X108000000Y-73000000D01*
X108000000Y-73000000D02*
X108000000Y-87000000D01*
X108000000Y-87000000D02*
X94000000Y-87000000D01*
%TO.C,SW2*%
X73000000Y-94000000D02*
X73000000Y-108000000D01*
X73000000Y-94000000D02*
X87000000Y-94000000D01*
X87000000Y-94000000D02*
X87000000Y-108000000D01*
X87000000Y-108000000D02*
X73000000Y-108000000D01*
%TD*%
M02*
