%TF.GenerationSoftware,KiCad,Pcbnew,9.0.1*%
%TF.CreationDate,2025-05-05T15:00:31+02:00*%
%TF.ProjectId,macroboard,6d616372-6f62-46f6-9172-642e6b696361,rev?*%
%TF.SameCoordinates,Original*%
%TF.FileFunction,Soldermask,Bot*%
%TF.FilePolarity,Negative*%
%FSLAX46Y46*%
G04 Gerber Fmt 4.6, Leading zero omitted, Abs format (unit mm)*
G04 Created by KiCad (PCBNEW 9.0.1) date 2025-05-05 15:00:31*
%MOMM*%
%LPD*%
G01*
G04 APERTURE LIST*
G04 Aperture macros list*
%AMRoundRect*
0 Rectangle with rounded corners*
0 $1 Rounding radius*
0 $2 $3 $4 $5 $6 $7 $8 $9 X,Y pos of 4 corners*
0 Add a 4 corners polygon primitive as box body*
4,1,4,$2,$3,$4,$5,$6,$7,$8,$9,$2,$3,0*
0 Add four circle primitives for the rounded corners*
1,1,$1+$1,$2,$3*
1,1,$1+$1,$4,$5*
1,1,$1+$1,$6,$7*
1,1,$1+$1,$8,$9*
0 Add four rect primitives between the rounded corners*
20,1,$1+$1,$2,$3,$4,$5,0*
20,1,$1+$1,$4,$5,$6,$7,0*
20,1,$1+$1,$6,$7,$8,$9,0*
20,1,$1+$1,$8,$9,$2,$3,0*%
%AMFreePoly0*
4,1,23,0.500000,-0.750000,0.000000,-0.750000,0.000000,-0.745722,-0.065263,-0.745722,-0.191342,-0.711940,-0.304381,-0.646677,-0.396677,-0.554381,-0.461940,-0.441342,-0.495722,-0.315263,-0.495722,-0.250000,-0.500000,-0.250000,-0.500000,0.250000,-0.495722,0.250000,-0.495722,0.315263,-0.461940,0.441342,-0.396677,0.554381,-0.304381,0.646677,-0.191342,0.711940,-0.065263,0.745722,0.000000,0.745722,
0.000000,0.750000,0.500000,0.750000,0.500000,-0.750000,0.500000,-0.750000,$1*%
%AMFreePoly1*
4,1,23,0.000000,0.745722,0.065263,0.745722,0.191342,0.711940,0.304381,0.646677,0.396677,0.554381,0.461940,0.441342,0.495722,0.315263,0.495722,0.250000,0.500000,0.250000,0.500000,-0.250000,0.495722,-0.250000,0.495722,-0.315263,0.461940,-0.441342,0.396677,-0.554381,0.304381,-0.646677,0.191342,-0.711940,0.065263,-0.745722,0.000000,-0.745722,0.000000,-0.750000,-0.500000,-0.750000,
-0.500000,0.750000,0.000000,0.750000,0.000000,0.745722,0.000000,0.745722,$1*%
G04 Aperture macros list end*
%ADD10C,2.000000*%
%ADD11C,3.000000*%
%ADD12C,4.000000*%
%ADD13R,2.550000X2.500000*%
%ADD14C,2.100000*%
%ADD15C,3.200000*%
%ADD16FreePoly0,270.000000*%
%ADD17FreePoly1,270.000000*%
%ADD18RoundRect,0.250000X0.337500X0.475000X-0.337500X0.475000X-0.337500X-0.475000X0.337500X-0.475000X0*%
%ADD19RoundRect,0.250000X0.450000X-0.350000X0.450000X0.350000X-0.450000X0.350000X-0.450000X-0.350000X0*%
%ADD20RoundRect,0.250000X0.350000X0.450000X-0.350000X0.450000X-0.350000X-0.450000X0.350000X-0.450000X0*%
%ADD21RoundRect,0.250000X-0.350000X-0.450000X0.350000X-0.450000X0.350000X0.450000X-0.350000X0.450000X0*%
%ADD22R,1.700000X1.700000*%
%ADD23C,1.700000*%
%ADD24RoundRect,0.250000X-0.337500X-0.475000X0.337500X-0.475000X0.337500X0.475000X-0.337500X0.475000X0*%
%ADD25RoundRect,0.250000X-0.450000X0.350000X-0.450000X-0.350000X0.450000X-0.350000X0.450000X0.350000X0*%
%ADD26RoundRect,0.250000X-0.475000X0.337500X-0.475000X-0.337500X0.475000X-0.337500X0.475000X0.337500X0*%
%ADD27FreePoly0,0.000000*%
%ADD28FreePoly1,0.000000*%
%ADD29O,2.200000X3.500000*%
%ADD30R,1.500000X2.500000*%
%ADD31O,1.500000X2.500000*%
G04 APERTURE END LIST*
%TO.C,JP11*%
G36*
X151250000Y-85050000D02*
G01*
X152750000Y-85050000D01*
X152750000Y-85350000D01*
X151250000Y-85350000D01*
X151250000Y-85050000D01*
G37*
%TO.C,JP7*%
G36*
X109250000Y-127050000D02*
G01*
X110750000Y-127050000D01*
X110750000Y-127350000D01*
X109250000Y-127350000D01*
X109250000Y-127050000D01*
G37*
%TO.C,JP6*%
G36*
X109250000Y-106000000D02*
G01*
X110750000Y-106000000D01*
X110750000Y-106300000D01*
X109250000Y-106300000D01*
X109250000Y-106000000D01*
G37*
%TO.C,JP16*%
G36*
X73050000Y-45250000D02*
G01*
X74550000Y-45250000D01*
X74550000Y-45550000D01*
X73050000Y-45550000D01*
X73050000Y-45250000D01*
G37*
%TO.C,JP2*%
G36*
X88250000Y-85050000D02*
G01*
X89750000Y-85050000D01*
X89750000Y-85350000D01*
X88250000Y-85350000D01*
X88250000Y-85050000D01*
G37*
%TO.C,JP12*%
G36*
X151250000Y-106050000D02*
G01*
X152750000Y-106050000D01*
X152750000Y-106350000D01*
X151250000Y-106350000D01*
X151250000Y-106050000D01*
G37*
%TO.C,JP5*%
G36*
X109250000Y-85000000D02*
G01*
X110750000Y-85000000D01*
X110750000Y-85300000D01*
X109250000Y-85300000D01*
X109250000Y-85000000D01*
G37*
%TO.C,JP13*%
G36*
X151250000Y-127000000D02*
G01*
X152750000Y-127000000D01*
X152750000Y-127300000D01*
X151250000Y-127300000D01*
X151250000Y-127000000D01*
G37*
%TO.C,JP15*%
G36*
X91750000Y-48750000D02*
G01*
X92050000Y-48750000D01*
X92050000Y-47250000D01*
X91750000Y-47250000D01*
X91750000Y-48750000D01*
G37*
%TO.C,JP4*%
G36*
X88250000Y-127050000D02*
G01*
X89750000Y-127050000D01*
X89750000Y-127350000D01*
X88250000Y-127350000D01*
X88250000Y-127050000D01*
G37*
%TO.C,JP1*%
G36*
X129450000Y-45050000D02*
G01*
X130950000Y-45050000D01*
X130950000Y-45350000D01*
X129450000Y-45350000D01*
X129450000Y-45050000D01*
G37*
%TO.C,JP10*%
G36*
X130250000Y-127050000D02*
G01*
X131750000Y-127050000D01*
X131750000Y-127350000D01*
X130250000Y-127350000D01*
X130250000Y-127050000D01*
G37*
%TO.C,JP3*%
G36*
X88250000Y-106050000D02*
G01*
X89750000Y-106050000D01*
X89750000Y-106350000D01*
X88250000Y-106350000D01*
X88250000Y-106050000D01*
G37*
%TO.C,JP14*%
G36*
X99050000Y-62250000D02*
G01*
X100550000Y-62250000D01*
X100550000Y-62550000D01*
X99050000Y-62550000D01*
X99050000Y-62250000D01*
G37*
%TO.C,JP9*%
G36*
X130250000Y-106050000D02*
G01*
X131750000Y-106050000D01*
X131750000Y-106350000D01*
X130250000Y-106350000D01*
X130250000Y-106050000D01*
G37*
%TO.C,JP8*%
G36*
X130250000Y-85050000D02*
G01*
X131750000Y-85050000D01*
X131750000Y-85350000D01*
X130250000Y-85350000D01*
X130250000Y-85050000D01*
G37*
%TD*%
D10*
%TO.C,RESET1*%
X71500000Y-55000000D03*
X71500000Y-61500000D03*
X76000000Y-55000000D03*
X76000000Y-61500000D03*
%TD*%
D11*
%TO.C,SW8*%
X118190000Y-98460000D03*
D12*
X122000000Y-101000000D03*
D11*
X124540000Y-95920000D03*
D13*
X114590000Y-98460000D03*
X128015000Y-95920000D03*
%TD*%
D11*
%TO.C,SW3*%
X76190000Y-119460000D03*
D12*
X80000000Y-122000000D03*
D11*
X82540000Y-116920000D03*
D13*
X72590000Y-119460000D03*
X86015000Y-116920000D03*
%TD*%
D14*
%TO.C,H3*%
X111500000Y-90500000D03*
%TD*%
D11*
%TO.C,SW14*%
X86690000Y-56460000D03*
D12*
X90500000Y-59000000D03*
D11*
X93040000Y-53920000D03*
D13*
X83090000Y-56460000D03*
X96515000Y-53920000D03*
%TD*%
D11*
%TO.C,SW5*%
X97190000Y-98460000D03*
D12*
X101000000Y-101000000D03*
D11*
X103540000Y-95920000D03*
D13*
X93590000Y-98460000D03*
X107015000Y-95920000D03*
%TD*%
D14*
%TO.C,H4*%
X111500000Y-111500000D03*
%TD*%
D11*
%TO.C,SW11*%
X139190000Y-98460000D03*
D12*
X143000000Y-101000000D03*
D11*
X145540000Y-95920000D03*
D13*
X135590000Y-98460000D03*
X149015000Y-95920000D03*
%TD*%
D11*
%TO.C,SW1*%
X76190000Y-77460000D03*
D12*
X80000000Y-80000000D03*
D11*
X82540000Y-74920000D03*
D13*
X72590000Y-77460000D03*
X86015000Y-74920000D03*
%TD*%
D14*
%TO.C,H2*%
X90500000Y-111500000D03*
%TD*%
D11*
%TO.C,SW6*%
X97190000Y-119460000D03*
D12*
X101000000Y-122000000D03*
D11*
X103540000Y-116920000D03*
D13*
X93590000Y-119460000D03*
X107015000Y-116920000D03*
%TD*%
D15*
%TO.C,SW13*%
X125600000Y-50100000D03*
X125600000Y-41900000D03*
%TD*%
D14*
%TO.C,H6*%
X132500000Y-111500000D03*
%TD*%
D11*
%TO.C,SW12*%
X139190000Y-119460000D03*
D12*
X143000000Y-122000000D03*
D11*
X145540000Y-116920000D03*
D13*
X135590000Y-119460000D03*
X149015000Y-116920000D03*
%TD*%
D11*
%TO.C,SW7*%
X118190000Y-77460000D03*
D12*
X122000000Y-80000000D03*
D11*
X124540000Y-74920000D03*
D13*
X114590000Y-77460000D03*
X128015000Y-74920000D03*
%TD*%
D11*
%TO.C,SW10*%
X139190000Y-77460000D03*
D12*
X143000000Y-80000000D03*
D11*
X145540000Y-74920000D03*
D13*
X135590000Y-77460000D03*
X149015000Y-74920000D03*
%TD*%
D11*
%TO.C,SW9*%
X118190000Y-119460000D03*
D12*
X122000000Y-122000000D03*
D11*
X124540000Y-116920000D03*
D13*
X114590000Y-119460000D03*
X128015000Y-116920000D03*
%TD*%
D14*
%TO.C,H1*%
X90500000Y-90500000D03*
%TD*%
%TO.C,H5*%
X132500000Y-90500000D03*
%TD*%
D11*
%TO.C,SW4*%
X97190000Y-77460000D03*
D12*
X101000000Y-80000000D03*
D11*
X103540000Y-74920000D03*
D13*
X93590000Y-77460000D03*
X107015000Y-74920000D03*
%TD*%
D11*
%TO.C,SW2*%
X76190000Y-98460000D03*
D12*
X80000000Y-101000000D03*
D11*
X82540000Y-95920000D03*
D13*
X72590000Y-98460000D03*
X86015000Y-95920000D03*
%TD*%
D16*
%TO.C,JP11*%
X152000000Y-84550000D03*
D17*
X152000000Y-85850000D03*
%TD*%
D18*
%TO.C,C9*%
X124437500Y-107200000D03*
X122362500Y-107200000D03*
%TD*%
D19*
%TO.C,R6*%
X69400000Y-46500000D03*
X69400000Y-44500000D03*
%TD*%
D20*
%TO.C,R1*%
X98500000Y-58800000D03*
X96500000Y-58800000D03*
%TD*%
D21*
%TO.C,R5*%
X91000000Y-44500000D03*
X93000000Y-44500000D03*
%TD*%
D16*
%TO.C,JP7*%
X110000000Y-126550000D03*
D17*
X110000000Y-127850000D03*
%TD*%
D22*
%TO.C,U1*%
X134700000Y-39800000D03*
D23*
X149200000Y-62660000D03*
X149200000Y-47420000D03*
X134700000Y-60120000D03*
X134700000Y-65200000D03*
X134700000Y-62660000D03*
X134700000Y-44880000D03*
X134700000Y-47420000D03*
X149200000Y-44880000D03*
X134700000Y-42340000D03*
X149200000Y-52500000D03*
X149200000Y-49960000D03*
X149200000Y-42340000D03*
D22*
X149200000Y-39800000D03*
D23*
X149200000Y-55040000D03*
X149200000Y-60120000D03*
X149200000Y-65200000D03*
X149200000Y-67740000D03*
X134700000Y-67740000D03*
X149200000Y-57580000D03*
X134700000Y-57580000D03*
X134700000Y-55040000D03*
X134700000Y-52500000D03*
X134700000Y-49960000D03*
%TD*%
D16*
%TO.C,JP6*%
X110000000Y-105500000D03*
D17*
X110000000Y-106800000D03*
%TD*%
D24*
%TO.C,C16*%
X80362500Y-46500000D03*
X82437500Y-46500000D03*
%TD*%
D20*
%TO.C,R26*%
X109000000Y-122000000D03*
X107000000Y-122000000D03*
%TD*%
D25*
%TO.C,R31*%
X128000000Y-105200000D03*
X128000000Y-107200000D03*
%TD*%
%TO.C,RC1*%
X95600000Y-61400000D03*
X95600000Y-63400000D03*
%TD*%
%TO.C,R25*%
X107000000Y-105200000D03*
X107000000Y-107200000D03*
%TD*%
D20*
%TO.C,R32*%
X130000000Y-122000000D03*
X128000000Y-122000000D03*
%TD*%
D21*
%TO.C,R3*%
X125600000Y-45800000D03*
X127600000Y-45800000D03*
%TD*%
D25*
%TO.C,R39*%
X149000000Y-126200000D03*
X149000000Y-128200000D03*
%TD*%
D16*
%TO.C,JP16*%
X73800000Y-44750000D03*
D17*
X73800000Y-46050000D03*
%TD*%
D25*
%TO.C,R33*%
X128000000Y-126200000D03*
X128000000Y-128200000D03*
%TD*%
D26*
%TO.C,C14*%
X130200000Y-57562500D03*
X130200000Y-59637500D03*
%TD*%
D25*
%TO.C,R35*%
X149000000Y-84200000D03*
X149000000Y-86200000D03*
%TD*%
D24*
%TO.C,C15*%
X95162500Y-48000000D03*
X97237500Y-48000000D03*
%TD*%
D16*
%TO.C,JP2*%
X89000000Y-84550000D03*
D17*
X89000000Y-85850000D03*
%TD*%
D18*
%TO.C,C4*%
X82437500Y-128200000D03*
X80362500Y-128200000D03*
%TD*%
D25*
%TO.C,R7*%
X77500000Y-44500000D03*
X77500000Y-46500000D03*
%TD*%
D18*
%TO.C,C12*%
X145437500Y-107200000D03*
X143362500Y-107200000D03*
%TD*%
D20*
%TO.C,R18*%
X88000000Y-101200000D03*
X86000000Y-101200000D03*
%TD*%
D16*
%TO.C,JP12*%
X152000000Y-105550000D03*
D17*
X152000000Y-106850000D03*
%TD*%
D20*
%TO.C,R34*%
X151000000Y-80000000D03*
X149000000Y-80000000D03*
%TD*%
D25*
%TO.C,R27*%
X107000000Y-126200000D03*
X107000000Y-128200000D03*
%TD*%
D16*
%TO.C,JP5*%
X110000000Y-84500000D03*
D17*
X110000000Y-85800000D03*
%TD*%
D18*
%TO.C,C10*%
X124437500Y-128200000D03*
X122362500Y-128200000D03*
%TD*%
D25*
%TO.C,R29*%
X128000000Y-84200000D03*
X128000000Y-86200000D03*
%TD*%
D16*
%TO.C,JP13*%
X152000000Y-126500000D03*
D17*
X152000000Y-127800000D03*
%TD*%
D27*
%TO.C,JP15*%
X91250000Y-48000000D03*
D28*
X92550000Y-48000000D03*
%TD*%
D20*
%TO.C,R28*%
X130000000Y-80000000D03*
X128000000Y-80000000D03*
%TD*%
D21*
%TO.C,R4*%
X86200000Y-44500000D03*
X88200000Y-44500000D03*
%TD*%
D20*
%TO.C,R30*%
X130000000Y-101200000D03*
X128000000Y-101200000D03*
%TD*%
D29*
%TO.C,SW16*%
X75400000Y-40500000D03*
X83600000Y-40500000D03*
D30*
X77500000Y-40500000D03*
D31*
X79500000Y-40500000D03*
X81500000Y-40500000D03*
%TD*%
D29*
%TO.C,SW15*%
X88900000Y-40500000D03*
X97100000Y-40500000D03*
D30*
X91000000Y-40500000D03*
D31*
X93000000Y-40500000D03*
X95000000Y-40500000D03*
%TD*%
D25*
%TO.C,R37*%
X149000000Y-105200000D03*
X149000000Y-107200000D03*
%TD*%
D20*
%TO.C,R38*%
X151000000Y-122000000D03*
X149000000Y-122000000D03*
%TD*%
D18*
%TO.C,C8*%
X124400000Y-86200000D03*
X122325000Y-86200000D03*
%TD*%
D16*
%TO.C,JP4*%
X89000000Y-126550000D03*
D17*
X89000000Y-127850000D03*
%TD*%
D25*
%TO.C,R19*%
X86000000Y-105200000D03*
X86000000Y-107200000D03*
%TD*%
D20*
%TO.C,R17*%
X88000000Y-80000000D03*
X86000000Y-80000000D03*
%TD*%
D16*
%TO.C,JP1*%
X130200000Y-44550000D03*
D17*
X130200000Y-45850000D03*
%TD*%
D20*
%TO.C,R22*%
X109000000Y-80000000D03*
X107000000Y-80000000D03*
%TD*%
D18*
%TO.C,C13*%
X145437500Y-128200000D03*
X143362500Y-128200000D03*
%TD*%
D25*
%TO.C,R2*%
X130200000Y-40000000D03*
X130200000Y-42000000D03*
%TD*%
D16*
%TO.C,JP10*%
X131000000Y-126550000D03*
D17*
X131000000Y-127850000D03*
%TD*%
D20*
%TO.C,R24*%
X109000000Y-101200000D03*
X107000000Y-101200000D03*
%TD*%
D16*
%TO.C,JP3*%
X89000000Y-105550000D03*
D17*
X89000000Y-106850000D03*
%TD*%
D18*
%TO.C,C7*%
X103437500Y-128200000D03*
X101362500Y-128200000D03*
%TD*%
D25*
%TO.C,R21*%
X86000000Y-126200000D03*
X86000000Y-128200000D03*
%TD*%
%TO.C,R23*%
X107000000Y-84200000D03*
X107000000Y-86200000D03*
%TD*%
D16*
%TO.C,JP14*%
X99800000Y-61750000D03*
D17*
X99800000Y-63050000D03*
%TD*%
D25*
%TO.C,R16*%
X86000000Y-84200000D03*
X86000000Y-86200000D03*
%TD*%
D16*
%TO.C,JP9*%
X131000000Y-105550000D03*
D17*
X131000000Y-106850000D03*
%TD*%
D18*
%TO.C,C1*%
X92037500Y-63400000D03*
X89962500Y-63400000D03*
%TD*%
%TO.C,C5*%
X103437500Y-86200000D03*
X101362500Y-86200000D03*
%TD*%
%TO.C,C6*%
X103437500Y-107200000D03*
X101362500Y-107200000D03*
%TD*%
%TO.C,C2*%
X82437500Y-86200000D03*
X80362500Y-86200000D03*
%TD*%
D16*
%TO.C,JP8*%
X131000000Y-84550000D03*
D17*
X131000000Y-85850000D03*
%TD*%
D20*
%TO.C,R20*%
X88000000Y-122000000D03*
X86000000Y-122000000D03*
%TD*%
D18*
%TO.C,C11*%
X145437500Y-86200000D03*
X143362500Y-86200000D03*
%TD*%
D20*
%TO.C,R36*%
X151000000Y-101200000D03*
X149000000Y-101200000D03*
%TD*%
D18*
%TO.C,C3*%
X82437500Y-107200000D03*
X80362500Y-107200000D03*
%TD*%
M02*
