%TF.GenerationSoftware,KiCad,Pcbnew,9.0.1*%
%TF.CreationDate,2025-05-05T15:00:31+02:00*%
%TF.ProjectId,macroboard,6d616372-6f62-46f6-9172-642e6b696361,rev?*%
%TF.SameCoordinates,Original*%
%TF.FileFunction,Paste,Bot*%
%TF.FilePolarity,Positive*%
%FSLAX46Y46*%
G04 Gerber Fmt 4.6, Leading zero omitted, Abs format (unit mm)*
G04 Created by KiCad (PCBNEW 9.0.1) date 2025-05-05 15:00:31*
%MOMM*%
%LPD*%
G01*
G04 APERTURE LIST*
G04 Aperture macros list*
%AMRoundRect*
0 Rectangle with rounded corners*
0 $1 Rounding radius*
0 $2 $3 $4 $5 $6 $7 $8 $9 X,Y pos of 4 corners*
0 Add a 4 corners polygon primitive as box body*
4,1,4,$2,$3,$4,$5,$6,$7,$8,$9,$2,$3,0*
0 Add four circle primitives for the rounded corners*
1,1,$1+$1,$2,$3*
1,1,$1+$1,$4,$5*
1,1,$1+$1,$6,$7*
1,1,$1+$1,$8,$9*
0 Add four rect primitives between the rounded corners*
20,1,$1+$1,$2,$3,$4,$5,0*
20,1,$1+$1,$4,$5,$6,$7,0*
20,1,$1+$1,$6,$7,$8,$9,0*
20,1,$1+$1,$8,$9,$2,$3,0*%
G04 Aperture macros list end*
%ADD10R,2.550000X2.500000*%
%ADD11RoundRect,0.250000X0.337500X0.475000X-0.337500X0.475000X-0.337500X-0.475000X0.337500X-0.475000X0*%
%ADD12RoundRect,0.250000X0.450000X-0.350000X0.450000X0.350000X-0.450000X0.350000X-0.450000X-0.350000X0*%
%ADD13RoundRect,0.250000X0.350000X0.450000X-0.350000X0.450000X-0.350000X-0.450000X0.350000X-0.450000X0*%
%ADD14RoundRect,0.250000X-0.350000X-0.450000X0.350000X-0.450000X0.350000X0.450000X-0.350000X0.450000X0*%
%ADD15RoundRect,0.250000X-0.337500X-0.475000X0.337500X-0.475000X0.337500X0.475000X-0.337500X0.475000X0*%
%ADD16RoundRect,0.250000X-0.450000X0.350000X-0.450000X-0.350000X0.450000X-0.350000X0.450000X0.350000X0*%
%ADD17RoundRect,0.250000X-0.475000X0.337500X-0.475000X-0.337500X0.475000X-0.337500X0.475000X0.337500X0*%
G04 APERTURE END LIST*
D10*
%TO.C,SW8*%
X114590000Y-98460000D03*
X128015000Y-95920000D03*
%TD*%
%TO.C,SW3*%
X72590000Y-119460000D03*
X86015000Y-116920000D03*
%TD*%
%TO.C,SW14*%
X83090000Y-56460000D03*
X96515000Y-53920000D03*
%TD*%
%TO.C,SW5*%
X93590000Y-98460000D03*
X107015000Y-95920000D03*
%TD*%
%TO.C,SW11*%
X135590000Y-98460000D03*
X149015000Y-95920000D03*
%TD*%
%TO.C,SW1*%
X72590000Y-77460000D03*
X86015000Y-74920000D03*
%TD*%
%TO.C,SW6*%
X93590000Y-119460000D03*
X107015000Y-116920000D03*
%TD*%
%TO.C,SW12*%
X135590000Y-119460000D03*
X149015000Y-116920000D03*
%TD*%
%TO.C,SW7*%
X114590000Y-77460000D03*
X128015000Y-74920000D03*
%TD*%
%TO.C,SW10*%
X135590000Y-77460000D03*
X149015000Y-74920000D03*
%TD*%
%TO.C,SW9*%
X114590000Y-119460000D03*
X128015000Y-116920000D03*
%TD*%
%TO.C,SW4*%
X93590000Y-77460000D03*
X107015000Y-74920000D03*
%TD*%
%TO.C,SW2*%
X72590000Y-98460000D03*
X86015000Y-95920000D03*
%TD*%
D11*
%TO.C,C9*%
X124437500Y-107200000D03*
X122362500Y-107200000D03*
%TD*%
D12*
%TO.C,R6*%
X69400000Y-46500000D03*
X69400000Y-44500000D03*
%TD*%
D13*
%TO.C,R1*%
X98500000Y-58800000D03*
X96500000Y-58800000D03*
%TD*%
D14*
%TO.C,R5*%
X91000000Y-44500000D03*
X93000000Y-44500000D03*
%TD*%
D15*
%TO.C,C16*%
X80362500Y-46500000D03*
X82437500Y-46500000D03*
%TD*%
D13*
%TO.C,R26*%
X109000000Y-122000000D03*
X107000000Y-122000000D03*
%TD*%
D16*
%TO.C,R31*%
X128000000Y-105200000D03*
X128000000Y-107200000D03*
%TD*%
%TO.C,RC1*%
X95600000Y-61400000D03*
X95600000Y-63400000D03*
%TD*%
%TO.C,R25*%
X107000000Y-105200000D03*
X107000000Y-107200000D03*
%TD*%
D13*
%TO.C,R32*%
X130000000Y-122000000D03*
X128000000Y-122000000D03*
%TD*%
D14*
%TO.C,R3*%
X125600000Y-45800000D03*
X127600000Y-45800000D03*
%TD*%
D16*
%TO.C,R39*%
X149000000Y-126200000D03*
X149000000Y-128200000D03*
%TD*%
%TO.C,R33*%
X128000000Y-126200000D03*
X128000000Y-128200000D03*
%TD*%
D17*
%TO.C,C14*%
X130200000Y-57562500D03*
X130200000Y-59637500D03*
%TD*%
D16*
%TO.C,R35*%
X149000000Y-84200000D03*
X149000000Y-86200000D03*
%TD*%
D15*
%TO.C,C15*%
X95162500Y-48000000D03*
X97237500Y-48000000D03*
%TD*%
D11*
%TO.C,C4*%
X82437500Y-128200000D03*
X80362500Y-128200000D03*
%TD*%
D16*
%TO.C,R7*%
X77500000Y-44500000D03*
X77500000Y-46500000D03*
%TD*%
D11*
%TO.C,C12*%
X145437500Y-107200000D03*
X143362500Y-107200000D03*
%TD*%
D13*
%TO.C,R18*%
X88000000Y-101200000D03*
X86000000Y-101200000D03*
%TD*%
%TO.C,R34*%
X151000000Y-80000000D03*
X149000000Y-80000000D03*
%TD*%
D16*
%TO.C,R27*%
X107000000Y-126200000D03*
X107000000Y-128200000D03*
%TD*%
D11*
%TO.C,C10*%
X124437500Y-128200000D03*
X122362500Y-128200000D03*
%TD*%
D16*
%TO.C,R29*%
X128000000Y-84200000D03*
X128000000Y-86200000D03*
%TD*%
D13*
%TO.C,R28*%
X130000000Y-80000000D03*
X128000000Y-80000000D03*
%TD*%
D14*
%TO.C,R4*%
X86200000Y-44500000D03*
X88200000Y-44500000D03*
%TD*%
D13*
%TO.C,R30*%
X130000000Y-101200000D03*
X128000000Y-101200000D03*
%TD*%
D16*
%TO.C,R37*%
X149000000Y-105200000D03*
X149000000Y-107200000D03*
%TD*%
D13*
%TO.C,R38*%
X151000000Y-122000000D03*
X149000000Y-122000000D03*
%TD*%
D11*
%TO.C,C8*%
X124400000Y-86200000D03*
X122325000Y-86200000D03*
%TD*%
D16*
%TO.C,R19*%
X86000000Y-105200000D03*
X86000000Y-107200000D03*
%TD*%
D13*
%TO.C,R17*%
X88000000Y-80000000D03*
X86000000Y-80000000D03*
%TD*%
%TO.C,R22*%
X109000000Y-80000000D03*
X107000000Y-80000000D03*
%TD*%
D11*
%TO.C,C13*%
X145437500Y-128200000D03*
X143362500Y-128200000D03*
%TD*%
D16*
%TO.C,R2*%
X130200000Y-40000000D03*
X130200000Y-42000000D03*
%TD*%
D13*
%TO.C,R24*%
X109000000Y-101200000D03*
X107000000Y-101200000D03*
%TD*%
D11*
%TO.C,C7*%
X103437500Y-128200000D03*
X101362500Y-128200000D03*
%TD*%
D16*
%TO.C,R21*%
X86000000Y-126200000D03*
X86000000Y-128200000D03*
%TD*%
%TO.C,R23*%
X107000000Y-84200000D03*
X107000000Y-86200000D03*
%TD*%
%TO.C,R16*%
X86000000Y-84200000D03*
X86000000Y-86200000D03*
%TD*%
D11*
%TO.C,C1*%
X92037500Y-63400000D03*
X89962500Y-63400000D03*
%TD*%
%TO.C,C5*%
X103437500Y-86200000D03*
X101362500Y-86200000D03*
%TD*%
%TO.C,C6*%
X103437500Y-107200000D03*
X101362500Y-107200000D03*
%TD*%
%TO.C,C2*%
X82437500Y-86200000D03*
X80362500Y-86200000D03*
%TD*%
D13*
%TO.C,R20*%
X88000000Y-122000000D03*
X86000000Y-122000000D03*
%TD*%
D11*
%TO.C,C11*%
X145437500Y-86200000D03*
X143362500Y-86200000D03*
%TD*%
D13*
%TO.C,R36*%
X151000000Y-101200000D03*
X149000000Y-101200000D03*
%TD*%
D11*
%TO.C,C3*%
X82437500Y-107200000D03*
X80362500Y-107200000D03*
%TD*%
M02*
