M48
; DRILL file {KiCad 9.0.1} date 2025-05-05T14:55:46+0200
; FORMAT={-:-/ absolute / metric / decimal}
; #@! TF.CreationDate,2025-05-05T14:55:46+02:00
; #@! TF.GenerationSoftware,Kicad,Pcbnew,9.0.1
; #@! TF.FileFunction,NonPlated,1,2,NPTH
FMAT,2
METRIC
; #@! TA.AperFunction,NonPlated,NPTH,ComponentDrill
T1C2.100
; #@! TA.AperFunction,NonPlated,NPTH,ComponentDrill
T2C3.000
; #@! TA.AperFunction,NonPlated,NPTH,ComponentDrill
T3C4.000
%
G90
G05
T1
X90.5Y-90.5
X90.5Y-111.5
X111.5Y-90.5
X111.5Y-111.5
X132.5Y-90.5
X132.5Y-111.5
T2
X76.19Y-77.46
X76.19Y-98.46
X76.19Y-119.46
X82.54Y-74.92
X82.54Y-95.92
X82.54Y-116.92
X86.69Y-56.46
X93.04Y-53.92
X97.19Y-77.46
X97.19Y-98.46
X97.19Y-119.46
X103.54Y-74.92
X103.54Y-95.92
X103.54Y-116.92
X118.19Y-77.46
X118.19Y-98.46
X118.19Y-119.46
X124.54Y-74.92
X124.54Y-95.92
X124.54Y-116.92
X139.19Y-77.46
X139.19Y-98.46
X139.19Y-119.46
X145.54Y-74.92
X145.54Y-95.92
X145.54Y-116.92
T3
X80.0Y-80.0
X80.0Y-101.0
X80.0Y-122.0
X90.5Y-59.0
X101.0Y-80.0
X101.0Y-101.0
X101.0Y-122.0
X122.0Y-80.0
X122.0Y-101.0
X122.0Y-122.0
X143.0Y-80.0
X143.0Y-101.0
X143.0Y-122.0
M30
