%TF.GenerationSoftware,KiCad,Pcbnew,9.0.1*%
%TF.CreationDate,2025-05-05T15:00:31+02:00*%
%TF.ProjectId,macroboard,6d616372-6f62-46f6-9172-642e6b696361,rev?*%
%TF.SameCoordinates,Original*%
%TF.FileFunction,Legend,Bot*%
%TF.FilePolarity,Positive*%
%FSLAX46Y46*%
G04 Gerber Fmt 4.6, Leading zero omitted, Abs format (unit mm)*
G04 Created by KiCad (PCBNEW 9.0.1) date 2025-05-05 15:00:31*
%MOMM*%
%LPD*%
G01*
G04 APERTURE LIST*
%ADD10C,0.150000*%
%ADD11C,0.120000*%
G04 APERTURE END LIST*
D10*
X69954819Y-56321428D02*
X69478628Y-55988095D01*
X69954819Y-55750000D02*
X68954819Y-55750000D01*
X68954819Y-55750000D02*
X68954819Y-56130952D01*
X68954819Y-56130952D02*
X69002438Y-56226190D01*
X69002438Y-56226190D02*
X69050057Y-56273809D01*
X69050057Y-56273809D02*
X69145295Y-56321428D01*
X69145295Y-56321428D02*
X69288152Y-56321428D01*
X69288152Y-56321428D02*
X69383390Y-56273809D01*
X69383390Y-56273809D02*
X69431009Y-56226190D01*
X69431009Y-56226190D02*
X69478628Y-56130952D01*
X69478628Y-56130952D02*
X69478628Y-55750000D01*
X69431009Y-56750000D02*
X69431009Y-57083333D01*
X69954819Y-57226190D02*
X69954819Y-56750000D01*
X69954819Y-56750000D02*
X68954819Y-56750000D01*
X68954819Y-56750000D02*
X68954819Y-57226190D01*
X69907200Y-57607143D02*
X69954819Y-57750000D01*
X69954819Y-57750000D02*
X69954819Y-57988095D01*
X69954819Y-57988095D02*
X69907200Y-58083333D01*
X69907200Y-58083333D02*
X69859580Y-58130952D01*
X69859580Y-58130952D02*
X69764342Y-58178571D01*
X69764342Y-58178571D02*
X69669104Y-58178571D01*
X69669104Y-58178571D02*
X69573866Y-58130952D01*
X69573866Y-58130952D02*
X69526247Y-58083333D01*
X69526247Y-58083333D02*
X69478628Y-57988095D01*
X69478628Y-57988095D02*
X69431009Y-57797619D01*
X69431009Y-57797619D02*
X69383390Y-57702381D01*
X69383390Y-57702381D02*
X69335771Y-57654762D01*
X69335771Y-57654762D02*
X69240533Y-57607143D01*
X69240533Y-57607143D02*
X69145295Y-57607143D01*
X69145295Y-57607143D02*
X69050057Y-57654762D01*
X69050057Y-57654762D02*
X69002438Y-57702381D01*
X69002438Y-57702381D02*
X68954819Y-57797619D01*
X68954819Y-57797619D02*
X68954819Y-58035714D01*
X68954819Y-58035714D02*
X69002438Y-58178571D01*
X69431009Y-58607143D02*
X69431009Y-58940476D01*
X69954819Y-59083333D02*
X69954819Y-58607143D01*
X69954819Y-58607143D02*
X68954819Y-58607143D01*
X68954819Y-58607143D02*
X68954819Y-59083333D01*
X68954819Y-59369048D02*
X68954819Y-59940476D01*
X69954819Y-59654762D02*
X68954819Y-59654762D01*
X69954819Y-60797619D02*
X69954819Y-60226191D01*
X69954819Y-60511905D02*
X68954819Y-60511905D01*
X68954819Y-60511905D02*
X69097676Y-60416667D01*
X69097676Y-60416667D02*
X69192914Y-60321429D01*
X69192914Y-60321429D02*
X69240533Y-60226191D01*
X153654819Y-83890476D02*
X154369104Y-83890476D01*
X154369104Y-83890476D02*
X154511961Y-83842857D01*
X154511961Y-83842857D02*
X154607200Y-83747619D01*
X154607200Y-83747619D02*
X154654819Y-83604762D01*
X154654819Y-83604762D02*
X154654819Y-83509524D01*
X154654819Y-84366667D02*
X153654819Y-84366667D01*
X153654819Y-84366667D02*
X153654819Y-84747619D01*
X153654819Y-84747619D02*
X153702438Y-84842857D01*
X153702438Y-84842857D02*
X153750057Y-84890476D01*
X153750057Y-84890476D02*
X153845295Y-84938095D01*
X153845295Y-84938095D02*
X153988152Y-84938095D01*
X153988152Y-84938095D02*
X154083390Y-84890476D01*
X154083390Y-84890476D02*
X154131009Y-84842857D01*
X154131009Y-84842857D02*
X154178628Y-84747619D01*
X154178628Y-84747619D02*
X154178628Y-84366667D01*
X154654819Y-85890476D02*
X154654819Y-85319048D01*
X154654819Y-85604762D02*
X153654819Y-85604762D01*
X153654819Y-85604762D02*
X153797676Y-85509524D01*
X153797676Y-85509524D02*
X153892914Y-85414286D01*
X153892914Y-85414286D02*
X153940533Y-85319048D01*
X154654819Y-86842857D02*
X154654819Y-86271429D01*
X154654819Y-86557143D02*
X153654819Y-86557143D01*
X153654819Y-86557143D02*
X153797676Y-86461905D01*
X153797676Y-86461905D02*
X153892914Y-86366667D01*
X153892914Y-86366667D02*
X153940533Y-86271429D01*
X123566666Y-105879580D02*
X123614285Y-105927200D01*
X123614285Y-105927200D02*
X123757142Y-105974819D01*
X123757142Y-105974819D02*
X123852380Y-105974819D01*
X123852380Y-105974819D02*
X123995237Y-105927200D01*
X123995237Y-105927200D02*
X124090475Y-105831961D01*
X124090475Y-105831961D02*
X124138094Y-105736723D01*
X124138094Y-105736723D02*
X124185713Y-105546247D01*
X124185713Y-105546247D02*
X124185713Y-105403390D01*
X124185713Y-105403390D02*
X124138094Y-105212914D01*
X124138094Y-105212914D02*
X124090475Y-105117676D01*
X124090475Y-105117676D02*
X123995237Y-105022438D01*
X123995237Y-105022438D02*
X123852380Y-104974819D01*
X123852380Y-104974819D02*
X123757142Y-104974819D01*
X123757142Y-104974819D02*
X123614285Y-105022438D01*
X123614285Y-105022438D02*
X123566666Y-105070057D01*
X123090475Y-105974819D02*
X122899999Y-105974819D01*
X122899999Y-105974819D02*
X122804761Y-105927200D01*
X122804761Y-105927200D02*
X122757142Y-105879580D01*
X122757142Y-105879580D02*
X122661904Y-105736723D01*
X122661904Y-105736723D02*
X122614285Y-105546247D01*
X122614285Y-105546247D02*
X122614285Y-105165295D01*
X122614285Y-105165295D02*
X122661904Y-105070057D01*
X122661904Y-105070057D02*
X122709523Y-105022438D01*
X122709523Y-105022438D02*
X122804761Y-104974819D01*
X122804761Y-104974819D02*
X122995237Y-104974819D01*
X122995237Y-104974819D02*
X123090475Y-105022438D01*
X123090475Y-105022438D02*
X123138094Y-105070057D01*
X123138094Y-105070057D02*
X123185713Y-105165295D01*
X123185713Y-105165295D02*
X123185713Y-105403390D01*
X123185713Y-105403390D02*
X123138094Y-105498628D01*
X123138094Y-105498628D02*
X123090475Y-105546247D01*
X123090475Y-105546247D02*
X122995237Y-105593866D01*
X122995237Y-105593866D02*
X122804761Y-105593866D01*
X122804761Y-105593866D02*
X122709523Y-105546247D01*
X122709523Y-105546247D02*
X122661904Y-105498628D01*
X122661904Y-105498628D02*
X122614285Y-105403390D01*
X69566666Y-48754819D02*
X69899999Y-48278628D01*
X70138094Y-48754819D02*
X70138094Y-47754819D01*
X70138094Y-47754819D02*
X69757142Y-47754819D01*
X69757142Y-47754819D02*
X69661904Y-47802438D01*
X69661904Y-47802438D02*
X69614285Y-47850057D01*
X69614285Y-47850057D02*
X69566666Y-47945295D01*
X69566666Y-47945295D02*
X69566666Y-48088152D01*
X69566666Y-48088152D02*
X69614285Y-48183390D01*
X69614285Y-48183390D02*
X69661904Y-48231009D01*
X69661904Y-48231009D02*
X69757142Y-48278628D01*
X69757142Y-48278628D02*
X70138094Y-48278628D01*
X68709523Y-47754819D02*
X68899999Y-47754819D01*
X68899999Y-47754819D02*
X68995237Y-47802438D01*
X68995237Y-47802438D02*
X69042856Y-47850057D01*
X69042856Y-47850057D02*
X69138094Y-47992914D01*
X69138094Y-47992914D02*
X69185713Y-48183390D01*
X69185713Y-48183390D02*
X69185713Y-48564342D01*
X69185713Y-48564342D02*
X69138094Y-48659580D01*
X69138094Y-48659580D02*
X69090475Y-48707200D01*
X69090475Y-48707200D02*
X68995237Y-48754819D01*
X68995237Y-48754819D02*
X68804761Y-48754819D01*
X68804761Y-48754819D02*
X68709523Y-48707200D01*
X68709523Y-48707200D02*
X68661904Y-48659580D01*
X68661904Y-48659580D02*
X68614285Y-48564342D01*
X68614285Y-48564342D02*
X68614285Y-48326247D01*
X68614285Y-48326247D02*
X68661904Y-48231009D01*
X68661904Y-48231009D02*
X68709523Y-48183390D01*
X68709523Y-48183390D02*
X68804761Y-48135771D01*
X68804761Y-48135771D02*
X68995237Y-48135771D01*
X68995237Y-48135771D02*
X69090475Y-48183390D01*
X69090475Y-48183390D02*
X69138094Y-48231009D01*
X69138094Y-48231009D02*
X69185713Y-48326247D01*
X97666666Y-57604819D02*
X97999999Y-57128628D01*
X98238094Y-57604819D02*
X98238094Y-56604819D01*
X98238094Y-56604819D02*
X97857142Y-56604819D01*
X97857142Y-56604819D02*
X97761904Y-56652438D01*
X97761904Y-56652438D02*
X97714285Y-56700057D01*
X97714285Y-56700057D02*
X97666666Y-56795295D01*
X97666666Y-56795295D02*
X97666666Y-56938152D01*
X97666666Y-56938152D02*
X97714285Y-57033390D01*
X97714285Y-57033390D02*
X97761904Y-57081009D01*
X97761904Y-57081009D02*
X97857142Y-57128628D01*
X97857142Y-57128628D02*
X98238094Y-57128628D01*
X96714285Y-57604819D02*
X97285713Y-57604819D01*
X96999999Y-57604819D02*
X96999999Y-56604819D01*
X96999999Y-56604819D02*
X97095237Y-56747676D01*
X97095237Y-56747676D02*
X97190475Y-56842914D01*
X97190475Y-56842914D02*
X97285713Y-56890533D01*
X92166666Y-46604819D02*
X92499999Y-46128628D01*
X92738094Y-46604819D02*
X92738094Y-45604819D01*
X92738094Y-45604819D02*
X92357142Y-45604819D01*
X92357142Y-45604819D02*
X92261904Y-45652438D01*
X92261904Y-45652438D02*
X92214285Y-45700057D01*
X92214285Y-45700057D02*
X92166666Y-45795295D01*
X92166666Y-45795295D02*
X92166666Y-45938152D01*
X92166666Y-45938152D02*
X92214285Y-46033390D01*
X92214285Y-46033390D02*
X92261904Y-46081009D01*
X92261904Y-46081009D02*
X92357142Y-46128628D01*
X92357142Y-46128628D02*
X92738094Y-46128628D01*
X91261904Y-45604819D02*
X91738094Y-45604819D01*
X91738094Y-45604819D02*
X91785713Y-46081009D01*
X91785713Y-46081009D02*
X91738094Y-46033390D01*
X91738094Y-46033390D02*
X91642856Y-45985771D01*
X91642856Y-45985771D02*
X91404761Y-45985771D01*
X91404761Y-45985771D02*
X91309523Y-46033390D01*
X91309523Y-46033390D02*
X91261904Y-46081009D01*
X91261904Y-46081009D02*
X91214285Y-46176247D01*
X91214285Y-46176247D02*
X91214285Y-46414342D01*
X91214285Y-46414342D02*
X91261904Y-46509580D01*
X91261904Y-46509580D02*
X91309523Y-46557200D01*
X91309523Y-46557200D02*
X91404761Y-46604819D01*
X91404761Y-46604819D02*
X91642856Y-46604819D01*
X91642856Y-46604819D02*
X91738094Y-46557200D01*
X91738094Y-46557200D02*
X91785713Y-46509580D01*
X111454819Y-126366666D02*
X112169104Y-126366666D01*
X112169104Y-126366666D02*
X112311961Y-126319047D01*
X112311961Y-126319047D02*
X112407200Y-126223809D01*
X112407200Y-126223809D02*
X112454819Y-126080952D01*
X112454819Y-126080952D02*
X112454819Y-125985714D01*
X112454819Y-126842857D02*
X111454819Y-126842857D01*
X111454819Y-126842857D02*
X111454819Y-127223809D01*
X111454819Y-127223809D02*
X111502438Y-127319047D01*
X111502438Y-127319047D02*
X111550057Y-127366666D01*
X111550057Y-127366666D02*
X111645295Y-127414285D01*
X111645295Y-127414285D02*
X111788152Y-127414285D01*
X111788152Y-127414285D02*
X111883390Y-127366666D01*
X111883390Y-127366666D02*
X111931009Y-127319047D01*
X111931009Y-127319047D02*
X111978628Y-127223809D01*
X111978628Y-127223809D02*
X111978628Y-126842857D01*
X111454819Y-127747619D02*
X111454819Y-128414285D01*
X111454819Y-128414285D02*
X112454819Y-127985714D01*
X149961904Y-33654819D02*
X149961904Y-34464342D01*
X149961904Y-34464342D02*
X149914285Y-34559580D01*
X149914285Y-34559580D02*
X149866666Y-34607200D01*
X149866666Y-34607200D02*
X149771428Y-34654819D01*
X149771428Y-34654819D02*
X149580952Y-34654819D01*
X149580952Y-34654819D02*
X149485714Y-34607200D01*
X149485714Y-34607200D02*
X149438095Y-34559580D01*
X149438095Y-34559580D02*
X149390476Y-34464342D01*
X149390476Y-34464342D02*
X149390476Y-33654819D01*
X148390476Y-34654819D02*
X148961904Y-34654819D01*
X148676190Y-34654819D02*
X148676190Y-33654819D01*
X148676190Y-33654819D02*
X148771428Y-33797676D01*
X148771428Y-33797676D02*
X148866666Y-33892914D01*
X148866666Y-33892914D02*
X148961904Y-33940533D01*
X111454819Y-105316666D02*
X112169104Y-105316666D01*
X112169104Y-105316666D02*
X112311961Y-105269047D01*
X112311961Y-105269047D02*
X112407200Y-105173809D01*
X112407200Y-105173809D02*
X112454819Y-105030952D01*
X112454819Y-105030952D02*
X112454819Y-104935714D01*
X112454819Y-105792857D02*
X111454819Y-105792857D01*
X111454819Y-105792857D02*
X111454819Y-106173809D01*
X111454819Y-106173809D02*
X111502438Y-106269047D01*
X111502438Y-106269047D02*
X111550057Y-106316666D01*
X111550057Y-106316666D02*
X111645295Y-106364285D01*
X111645295Y-106364285D02*
X111788152Y-106364285D01*
X111788152Y-106364285D02*
X111883390Y-106316666D01*
X111883390Y-106316666D02*
X111931009Y-106269047D01*
X111931009Y-106269047D02*
X111978628Y-106173809D01*
X111978628Y-106173809D02*
X111978628Y-105792857D01*
X111454819Y-107221428D02*
X111454819Y-107030952D01*
X111454819Y-107030952D02*
X111502438Y-106935714D01*
X111502438Y-106935714D02*
X111550057Y-106888095D01*
X111550057Y-106888095D02*
X111692914Y-106792857D01*
X111692914Y-106792857D02*
X111883390Y-106745238D01*
X111883390Y-106745238D02*
X112264342Y-106745238D01*
X112264342Y-106745238D02*
X112359580Y-106792857D01*
X112359580Y-106792857D02*
X112407200Y-106840476D01*
X112407200Y-106840476D02*
X112454819Y-106935714D01*
X112454819Y-106935714D02*
X112454819Y-107126190D01*
X112454819Y-107126190D02*
X112407200Y-107221428D01*
X112407200Y-107221428D02*
X112359580Y-107269047D01*
X112359580Y-107269047D02*
X112264342Y-107316666D01*
X112264342Y-107316666D02*
X112026247Y-107316666D01*
X112026247Y-107316666D02*
X111931009Y-107269047D01*
X111931009Y-107269047D02*
X111883390Y-107221428D01*
X111883390Y-107221428D02*
X111835771Y-107126190D01*
X111835771Y-107126190D02*
X111835771Y-106935714D01*
X111835771Y-106935714D02*
X111883390Y-106840476D01*
X111883390Y-106840476D02*
X111931009Y-106792857D01*
X111931009Y-106792857D02*
X112026247Y-106745238D01*
X82042857Y-48859580D02*
X82090476Y-48907200D01*
X82090476Y-48907200D02*
X82233333Y-48954819D01*
X82233333Y-48954819D02*
X82328571Y-48954819D01*
X82328571Y-48954819D02*
X82471428Y-48907200D01*
X82471428Y-48907200D02*
X82566666Y-48811961D01*
X82566666Y-48811961D02*
X82614285Y-48716723D01*
X82614285Y-48716723D02*
X82661904Y-48526247D01*
X82661904Y-48526247D02*
X82661904Y-48383390D01*
X82661904Y-48383390D02*
X82614285Y-48192914D01*
X82614285Y-48192914D02*
X82566666Y-48097676D01*
X82566666Y-48097676D02*
X82471428Y-48002438D01*
X82471428Y-48002438D02*
X82328571Y-47954819D01*
X82328571Y-47954819D02*
X82233333Y-47954819D01*
X82233333Y-47954819D02*
X82090476Y-48002438D01*
X82090476Y-48002438D02*
X82042857Y-48050057D01*
X81090476Y-48954819D02*
X81661904Y-48954819D01*
X81376190Y-48954819D02*
X81376190Y-47954819D01*
X81376190Y-47954819D02*
X81471428Y-48097676D01*
X81471428Y-48097676D02*
X81566666Y-48192914D01*
X81566666Y-48192914D02*
X81661904Y-48240533D01*
X80233333Y-47954819D02*
X80423809Y-47954819D01*
X80423809Y-47954819D02*
X80519047Y-48002438D01*
X80519047Y-48002438D02*
X80566666Y-48050057D01*
X80566666Y-48050057D02*
X80661904Y-48192914D01*
X80661904Y-48192914D02*
X80709523Y-48383390D01*
X80709523Y-48383390D02*
X80709523Y-48764342D01*
X80709523Y-48764342D02*
X80661904Y-48859580D01*
X80661904Y-48859580D02*
X80614285Y-48907200D01*
X80614285Y-48907200D02*
X80519047Y-48954819D01*
X80519047Y-48954819D02*
X80328571Y-48954819D01*
X80328571Y-48954819D02*
X80233333Y-48907200D01*
X80233333Y-48907200D02*
X80185714Y-48859580D01*
X80185714Y-48859580D02*
X80138095Y-48764342D01*
X80138095Y-48764342D02*
X80138095Y-48526247D01*
X80138095Y-48526247D02*
X80185714Y-48431009D01*
X80185714Y-48431009D02*
X80233333Y-48383390D01*
X80233333Y-48383390D02*
X80328571Y-48335771D01*
X80328571Y-48335771D02*
X80519047Y-48335771D01*
X80519047Y-48335771D02*
X80614285Y-48383390D01*
X80614285Y-48383390D02*
X80661904Y-48431009D01*
X80661904Y-48431009D02*
X80709523Y-48526247D01*
X108642857Y-120804819D02*
X108976190Y-120328628D01*
X109214285Y-120804819D02*
X109214285Y-119804819D01*
X109214285Y-119804819D02*
X108833333Y-119804819D01*
X108833333Y-119804819D02*
X108738095Y-119852438D01*
X108738095Y-119852438D02*
X108690476Y-119900057D01*
X108690476Y-119900057D02*
X108642857Y-119995295D01*
X108642857Y-119995295D02*
X108642857Y-120138152D01*
X108642857Y-120138152D02*
X108690476Y-120233390D01*
X108690476Y-120233390D02*
X108738095Y-120281009D01*
X108738095Y-120281009D02*
X108833333Y-120328628D01*
X108833333Y-120328628D02*
X109214285Y-120328628D01*
X108261904Y-119900057D02*
X108214285Y-119852438D01*
X108214285Y-119852438D02*
X108119047Y-119804819D01*
X108119047Y-119804819D02*
X107880952Y-119804819D01*
X107880952Y-119804819D02*
X107785714Y-119852438D01*
X107785714Y-119852438D02*
X107738095Y-119900057D01*
X107738095Y-119900057D02*
X107690476Y-119995295D01*
X107690476Y-119995295D02*
X107690476Y-120090533D01*
X107690476Y-120090533D02*
X107738095Y-120233390D01*
X107738095Y-120233390D02*
X108309523Y-120804819D01*
X108309523Y-120804819D02*
X107690476Y-120804819D01*
X106833333Y-119804819D02*
X107023809Y-119804819D01*
X107023809Y-119804819D02*
X107119047Y-119852438D01*
X107119047Y-119852438D02*
X107166666Y-119900057D01*
X107166666Y-119900057D02*
X107261904Y-120042914D01*
X107261904Y-120042914D02*
X107309523Y-120233390D01*
X107309523Y-120233390D02*
X107309523Y-120614342D01*
X107309523Y-120614342D02*
X107261904Y-120709580D01*
X107261904Y-120709580D02*
X107214285Y-120757200D01*
X107214285Y-120757200D02*
X107119047Y-120804819D01*
X107119047Y-120804819D02*
X106928571Y-120804819D01*
X106928571Y-120804819D02*
X106833333Y-120757200D01*
X106833333Y-120757200D02*
X106785714Y-120709580D01*
X106785714Y-120709580D02*
X106738095Y-120614342D01*
X106738095Y-120614342D02*
X106738095Y-120376247D01*
X106738095Y-120376247D02*
X106785714Y-120281009D01*
X106785714Y-120281009D02*
X106833333Y-120233390D01*
X106833333Y-120233390D02*
X106928571Y-120185771D01*
X106928571Y-120185771D02*
X107119047Y-120185771D01*
X107119047Y-120185771D02*
X107214285Y-120233390D01*
X107214285Y-120233390D02*
X107261904Y-120281009D01*
X107261904Y-120281009D02*
X107309523Y-120376247D01*
X126804819Y-105557142D02*
X126328628Y-105223809D01*
X126804819Y-104985714D02*
X125804819Y-104985714D01*
X125804819Y-104985714D02*
X125804819Y-105366666D01*
X125804819Y-105366666D02*
X125852438Y-105461904D01*
X125852438Y-105461904D02*
X125900057Y-105509523D01*
X125900057Y-105509523D02*
X125995295Y-105557142D01*
X125995295Y-105557142D02*
X126138152Y-105557142D01*
X126138152Y-105557142D02*
X126233390Y-105509523D01*
X126233390Y-105509523D02*
X126281009Y-105461904D01*
X126281009Y-105461904D02*
X126328628Y-105366666D01*
X126328628Y-105366666D02*
X126328628Y-104985714D01*
X125804819Y-105890476D02*
X125804819Y-106509523D01*
X125804819Y-106509523D02*
X126185771Y-106176190D01*
X126185771Y-106176190D02*
X126185771Y-106319047D01*
X126185771Y-106319047D02*
X126233390Y-106414285D01*
X126233390Y-106414285D02*
X126281009Y-106461904D01*
X126281009Y-106461904D02*
X126376247Y-106509523D01*
X126376247Y-106509523D02*
X126614342Y-106509523D01*
X126614342Y-106509523D02*
X126709580Y-106461904D01*
X126709580Y-106461904D02*
X126757200Y-106414285D01*
X126757200Y-106414285D02*
X126804819Y-106319047D01*
X126804819Y-106319047D02*
X126804819Y-106033333D01*
X126804819Y-106033333D02*
X126757200Y-105938095D01*
X126757200Y-105938095D02*
X126709580Y-105890476D01*
X126804819Y-107461904D02*
X126804819Y-106890476D01*
X126804819Y-107176190D02*
X125804819Y-107176190D01*
X125804819Y-107176190D02*
X125947676Y-107080952D01*
X125947676Y-107080952D02*
X126042914Y-106985714D01*
X126042914Y-106985714D02*
X126090533Y-106890476D01*
X94404819Y-61733333D02*
X93928628Y-61400000D01*
X94404819Y-61161905D02*
X93404819Y-61161905D01*
X93404819Y-61161905D02*
X93404819Y-61542857D01*
X93404819Y-61542857D02*
X93452438Y-61638095D01*
X93452438Y-61638095D02*
X93500057Y-61685714D01*
X93500057Y-61685714D02*
X93595295Y-61733333D01*
X93595295Y-61733333D02*
X93738152Y-61733333D01*
X93738152Y-61733333D02*
X93833390Y-61685714D01*
X93833390Y-61685714D02*
X93881009Y-61638095D01*
X93881009Y-61638095D02*
X93928628Y-61542857D01*
X93928628Y-61542857D02*
X93928628Y-61161905D01*
X94309580Y-62733333D02*
X94357200Y-62685714D01*
X94357200Y-62685714D02*
X94404819Y-62542857D01*
X94404819Y-62542857D02*
X94404819Y-62447619D01*
X94404819Y-62447619D02*
X94357200Y-62304762D01*
X94357200Y-62304762D02*
X94261961Y-62209524D01*
X94261961Y-62209524D02*
X94166723Y-62161905D01*
X94166723Y-62161905D02*
X93976247Y-62114286D01*
X93976247Y-62114286D02*
X93833390Y-62114286D01*
X93833390Y-62114286D02*
X93642914Y-62161905D01*
X93642914Y-62161905D02*
X93547676Y-62209524D01*
X93547676Y-62209524D02*
X93452438Y-62304762D01*
X93452438Y-62304762D02*
X93404819Y-62447619D01*
X93404819Y-62447619D02*
X93404819Y-62542857D01*
X93404819Y-62542857D02*
X93452438Y-62685714D01*
X93452438Y-62685714D02*
X93500057Y-62733333D01*
X94404819Y-63685714D02*
X94404819Y-63114286D01*
X94404819Y-63400000D02*
X93404819Y-63400000D01*
X93404819Y-63400000D02*
X93547676Y-63304762D01*
X93547676Y-63304762D02*
X93642914Y-63209524D01*
X93642914Y-63209524D02*
X93690533Y-63114286D01*
X105804819Y-105557142D02*
X105328628Y-105223809D01*
X105804819Y-104985714D02*
X104804819Y-104985714D01*
X104804819Y-104985714D02*
X104804819Y-105366666D01*
X104804819Y-105366666D02*
X104852438Y-105461904D01*
X104852438Y-105461904D02*
X104900057Y-105509523D01*
X104900057Y-105509523D02*
X104995295Y-105557142D01*
X104995295Y-105557142D02*
X105138152Y-105557142D01*
X105138152Y-105557142D02*
X105233390Y-105509523D01*
X105233390Y-105509523D02*
X105281009Y-105461904D01*
X105281009Y-105461904D02*
X105328628Y-105366666D01*
X105328628Y-105366666D02*
X105328628Y-104985714D01*
X104900057Y-105938095D02*
X104852438Y-105985714D01*
X104852438Y-105985714D02*
X104804819Y-106080952D01*
X104804819Y-106080952D02*
X104804819Y-106319047D01*
X104804819Y-106319047D02*
X104852438Y-106414285D01*
X104852438Y-106414285D02*
X104900057Y-106461904D01*
X104900057Y-106461904D02*
X104995295Y-106509523D01*
X104995295Y-106509523D02*
X105090533Y-106509523D01*
X105090533Y-106509523D02*
X105233390Y-106461904D01*
X105233390Y-106461904D02*
X105804819Y-105890476D01*
X105804819Y-105890476D02*
X105804819Y-106509523D01*
X104804819Y-107414285D02*
X104804819Y-106938095D01*
X104804819Y-106938095D02*
X105281009Y-106890476D01*
X105281009Y-106890476D02*
X105233390Y-106938095D01*
X105233390Y-106938095D02*
X105185771Y-107033333D01*
X105185771Y-107033333D02*
X105185771Y-107271428D01*
X105185771Y-107271428D02*
X105233390Y-107366666D01*
X105233390Y-107366666D02*
X105281009Y-107414285D01*
X105281009Y-107414285D02*
X105376247Y-107461904D01*
X105376247Y-107461904D02*
X105614342Y-107461904D01*
X105614342Y-107461904D02*
X105709580Y-107414285D01*
X105709580Y-107414285D02*
X105757200Y-107366666D01*
X105757200Y-107366666D02*
X105804819Y-107271428D01*
X105804819Y-107271428D02*
X105804819Y-107033333D01*
X105804819Y-107033333D02*
X105757200Y-106938095D01*
X105757200Y-106938095D02*
X105709580Y-106890476D01*
X129642857Y-120804819D02*
X129976190Y-120328628D01*
X130214285Y-120804819D02*
X130214285Y-119804819D01*
X130214285Y-119804819D02*
X129833333Y-119804819D01*
X129833333Y-119804819D02*
X129738095Y-119852438D01*
X129738095Y-119852438D02*
X129690476Y-119900057D01*
X129690476Y-119900057D02*
X129642857Y-119995295D01*
X129642857Y-119995295D02*
X129642857Y-120138152D01*
X129642857Y-120138152D02*
X129690476Y-120233390D01*
X129690476Y-120233390D02*
X129738095Y-120281009D01*
X129738095Y-120281009D02*
X129833333Y-120328628D01*
X129833333Y-120328628D02*
X130214285Y-120328628D01*
X129309523Y-119804819D02*
X128690476Y-119804819D01*
X128690476Y-119804819D02*
X129023809Y-120185771D01*
X129023809Y-120185771D02*
X128880952Y-120185771D01*
X128880952Y-120185771D02*
X128785714Y-120233390D01*
X128785714Y-120233390D02*
X128738095Y-120281009D01*
X128738095Y-120281009D02*
X128690476Y-120376247D01*
X128690476Y-120376247D02*
X128690476Y-120614342D01*
X128690476Y-120614342D02*
X128738095Y-120709580D01*
X128738095Y-120709580D02*
X128785714Y-120757200D01*
X128785714Y-120757200D02*
X128880952Y-120804819D01*
X128880952Y-120804819D02*
X129166666Y-120804819D01*
X129166666Y-120804819D02*
X129261904Y-120757200D01*
X129261904Y-120757200D02*
X129309523Y-120709580D01*
X128309523Y-119900057D02*
X128261904Y-119852438D01*
X128261904Y-119852438D02*
X128166666Y-119804819D01*
X128166666Y-119804819D02*
X127928571Y-119804819D01*
X127928571Y-119804819D02*
X127833333Y-119852438D01*
X127833333Y-119852438D02*
X127785714Y-119900057D01*
X127785714Y-119900057D02*
X127738095Y-119995295D01*
X127738095Y-119995295D02*
X127738095Y-120090533D01*
X127738095Y-120090533D02*
X127785714Y-120233390D01*
X127785714Y-120233390D02*
X128357142Y-120804819D01*
X128357142Y-120804819D02*
X127738095Y-120804819D01*
X126766666Y-47904819D02*
X127099999Y-47428628D01*
X127338094Y-47904819D02*
X127338094Y-46904819D01*
X127338094Y-46904819D02*
X126957142Y-46904819D01*
X126957142Y-46904819D02*
X126861904Y-46952438D01*
X126861904Y-46952438D02*
X126814285Y-47000057D01*
X126814285Y-47000057D02*
X126766666Y-47095295D01*
X126766666Y-47095295D02*
X126766666Y-47238152D01*
X126766666Y-47238152D02*
X126814285Y-47333390D01*
X126814285Y-47333390D02*
X126861904Y-47381009D01*
X126861904Y-47381009D02*
X126957142Y-47428628D01*
X126957142Y-47428628D02*
X127338094Y-47428628D01*
X126433332Y-46904819D02*
X125814285Y-46904819D01*
X125814285Y-46904819D02*
X126147618Y-47285771D01*
X126147618Y-47285771D02*
X126004761Y-47285771D01*
X126004761Y-47285771D02*
X125909523Y-47333390D01*
X125909523Y-47333390D02*
X125861904Y-47381009D01*
X125861904Y-47381009D02*
X125814285Y-47476247D01*
X125814285Y-47476247D02*
X125814285Y-47714342D01*
X125814285Y-47714342D02*
X125861904Y-47809580D01*
X125861904Y-47809580D02*
X125909523Y-47857200D01*
X125909523Y-47857200D02*
X126004761Y-47904819D01*
X126004761Y-47904819D02*
X126290475Y-47904819D01*
X126290475Y-47904819D02*
X126385713Y-47857200D01*
X126385713Y-47857200D02*
X126433332Y-47809580D01*
X147804819Y-126557142D02*
X147328628Y-126223809D01*
X147804819Y-125985714D02*
X146804819Y-125985714D01*
X146804819Y-125985714D02*
X146804819Y-126366666D01*
X146804819Y-126366666D02*
X146852438Y-126461904D01*
X146852438Y-126461904D02*
X146900057Y-126509523D01*
X146900057Y-126509523D02*
X146995295Y-126557142D01*
X146995295Y-126557142D02*
X147138152Y-126557142D01*
X147138152Y-126557142D02*
X147233390Y-126509523D01*
X147233390Y-126509523D02*
X147281009Y-126461904D01*
X147281009Y-126461904D02*
X147328628Y-126366666D01*
X147328628Y-126366666D02*
X147328628Y-125985714D01*
X146804819Y-126890476D02*
X146804819Y-127509523D01*
X146804819Y-127509523D02*
X147185771Y-127176190D01*
X147185771Y-127176190D02*
X147185771Y-127319047D01*
X147185771Y-127319047D02*
X147233390Y-127414285D01*
X147233390Y-127414285D02*
X147281009Y-127461904D01*
X147281009Y-127461904D02*
X147376247Y-127509523D01*
X147376247Y-127509523D02*
X147614342Y-127509523D01*
X147614342Y-127509523D02*
X147709580Y-127461904D01*
X147709580Y-127461904D02*
X147757200Y-127414285D01*
X147757200Y-127414285D02*
X147804819Y-127319047D01*
X147804819Y-127319047D02*
X147804819Y-127033333D01*
X147804819Y-127033333D02*
X147757200Y-126938095D01*
X147757200Y-126938095D02*
X147709580Y-126890476D01*
X147804819Y-127985714D02*
X147804819Y-128176190D01*
X147804819Y-128176190D02*
X147757200Y-128271428D01*
X147757200Y-128271428D02*
X147709580Y-128319047D01*
X147709580Y-128319047D02*
X147566723Y-128414285D01*
X147566723Y-128414285D02*
X147376247Y-128461904D01*
X147376247Y-128461904D02*
X146995295Y-128461904D01*
X146995295Y-128461904D02*
X146900057Y-128414285D01*
X146900057Y-128414285D02*
X146852438Y-128366666D01*
X146852438Y-128366666D02*
X146804819Y-128271428D01*
X146804819Y-128271428D02*
X146804819Y-128080952D01*
X146804819Y-128080952D02*
X146852438Y-127985714D01*
X146852438Y-127985714D02*
X146900057Y-127938095D01*
X146900057Y-127938095D02*
X146995295Y-127890476D01*
X146995295Y-127890476D02*
X147233390Y-127890476D01*
X147233390Y-127890476D02*
X147328628Y-127938095D01*
X147328628Y-127938095D02*
X147376247Y-127985714D01*
X147376247Y-127985714D02*
X147423866Y-128080952D01*
X147423866Y-128080952D02*
X147423866Y-128271428D01*
X147423866Y-128271428D02*
X147376247Y-128366666D01*
X147376247Y-128366666D02*
X147328628Y-128414285D01*
X147328628Y-128414285D02*
X147233390Y-128461904D01*
X71054819Y-44090476D02*
X71769104Y-44090476D01*
X71769104Y-44090476D02*
X71911961Y-44042857D01*
X71911961Y-44042857D02*
X72007200Y-43947619D01*
X72007200Y-43947619D02*
X72054819Y-43804762D01*
X72054819Y-43804762D02*
X72054819Y-43709524D01*
X72054819Y-44566667D02*
X71054819Y-44566667D01*
X71054819Y-44566667D02*
X71054819Y-44947619D01*
X71054819Y-44947619D02*
X71102438Y-45042857D01*
X71102438Y-45042857D02*
X71150057Y-45090476D01*
X71150057Y-45090476D02*
X71245295Y-45138095D01*
X71245295Y-45138095D02*
X71388152Y-45138095D01*
X71388152Y-45138095D02*
X71483390Y-45090476D01*
X71483390Y-45090476D02*
X71531009Y-45042857D01*
X71531009Y-45042857D02*
X71578628Y-44947619D01*
X71578628Y-44947619D02*
X71578628Y-44566667D01*
X72054819Y-46090476D02*
X72054819Y-45519048D01*
X72054819Y-45804762D02*
X71054819Y-45804762D01*
X71054819Y-45804762D02*
X71197676Y-45709524D01*
X71197676Y-45709524D02*
X71292914Y-45614286D01*
X71292914Y-45614286D02*
X71340533Y-45519048D01*
X71054819Y-46947619D02*
X71054819Y-46757143D01*
X71054819Y-46757143D02*
X71102438Y-46661905D01*
X71102438Y-46661905D02*
X71150057Y-46614286D01*
X71150057Y-46614286D02*
X71292914Y-46519048D01*
X71292914Y-46519048D02*
X71483390Y-46471429D01*
X71483390Y-46471429D02*
X71864342Y-46471429D01*
X71864342Y-46471429D02*
X71959580Y-46519048D01*
X71959580Y-46519048D02*
X72007200Y-46566667D01*
X72007200Y-46566667D02*
X72054819Y-46661905D01*
X72054819Y-46661905D02*
X72054819Y-46852381D01*
X72054819Y-46852381D02*
X72007200Y-46947619D01*
X72007200Y-46947619D02*
X71959580Y-46995238D01*
X71959580Y-46995238D02*
X71864342Y-47042857D01*
X71864342Y-47042857D02*
X71626247Y-47042857D01*
X71626247Y-47042857D02*
X71531009Y-46995238D01*
X71531009Y-46995238D02*
X71483390Y-46947619D01*
X71483390Y-46947619D02*
X71435771Y-46852381D01*
X71435771Y-46852381D02*
X71435771Y-46661905D01*
X71435771Y-46661905D02*
X71483390Y-46566667D01*
X71483390Y-46566667D02*
X71531009Y-46519048D01*
X71531009Y-46519048D02*
X71626247Y-46471429D01*
X126804819Y-126557142D02*
X126328628Y-126223809D01*
X126804819Y-125985714D02*
X125804819Y-125985714D01*
X125804819Y-125985714D02*
X125804819Y-126366666D01*
X125804819Y-126366666D02*
X125852438Y-126461904D01*
X125852438Y-126461904D02*
X125900057Y-126509523D01*
X125900057Y-126509523D02*
X125995295Y-126557142D01*
X125995295Y-126557142D02*
X126138152Y-126557142D01*
X126138152Y-126557142D02*
X126233390Y-126509523D01*
X126233390Y-126509523D02*
X126281009Y-126461904D01*
X126281009Y-126461904D02*
X126328628Y-126366666D01*
X126328628Y-126366666D02*
X126328628Y-125985714D01*
X125804819Y-126890476D02*
X125804819Y-127509523D01*
X125804819Y-127509523D02*
X126185771Y-127176190D01*
X126185771Y-127176190D02*
X126185771Y-127319047D01*
X126185771Y-127319047D02*
X126233390Y-127414285D01*
X126233390Y-127414285D02*
X126281009Y-127461904D01*
X126281009Y-127461904D02*
X126376247Y-127509523D01*
X126376247Y-127509523D02*
X126614342Y-127509523D01*
X126614342Y-127509523D02*
X126709580Y-127461904D01*
X126709580Y-127461904D02*
X126757200Y-127414285D01*
X126757200Y-127414285D02*
X126804819Y-127319047D01*
X126804819Y-127319047D02*
X126804819Y-127033333D01*
X126804819Y-127033333D02*
X126757200Y-126938095D01*
X126757200Y-126938095D02*
X126709580Y-126890476D01*
X125804819Y-127842857D02*
X125804819Y-128461904D01*
X125804819Y-128461904D02*
X126185771Y-128128571D01*
X126185771Y-128128571D02*
X126185771Y-128271428D01*
X126185771Y-128271428D02*
X126233390Y-128366666D01*
X126233390Y-128366666D02*
X126281009Y-128414285D01*
X126281009Y-128414285D02*
X126376247Y-128461904D01*
X126376247Y-128461904D02*
X126614342Y-128461904D01*
X126614342Y-128461904D02*
X126709580Y-128414285D01*
X126709580Y-128414285D02*
X126757200Y-128366666D01*
X126757200Y-128366666D02*
X126804819Y-128271428D01*
X126804819Y-128271428D02*
X126804819Y-127985714D01*
X126804819Y-127985714D02*
X126757200Y-127890476D01*
X126757200Y-127890476D02*
X126709580Y-127842857D01*
X128879580Y-57957142D02*
X128927200Y-57909523D01*
X128927200Y-57909523D02*
X128974819Y-57766666D01*
X128974819Y-57766666D02*
X128974819Y-57671428D01*
X128974819Y-57671428D02*
X128927200Y-57528571D01*
X128927200Y-57528571D02*
X128831961Y-57433333D01*
X128831961Y-57433333D02*
X128736723Y-57385714D01*
X128736723Y-57385714D02*
X128546247Y-57338095D01*
X128546247Y-57338095D02*
X128403390Y-57338095D01*
X128403390Y-57338095D02*
X128212914Y-57385714D01*
X128212914Y-57385714D02*
X128117676Y-57433333D01*
X128117676Y-57433333D02*
X128022438Y-57528571D01*
X128022438Y-57528571D02*
X127974819Y-57671428D01*
X127974819Y-57671428D02*
X127974819Y-57766666D01*
X127974819Y-57766666D02*
X128022438Y-57909523D01*
X128022438Y-57909523D02*
X128070057Y-57957142D01*
X128974819Y-58909523D02*
X128974819Y-58338095D01*
X128974819Y-58623809D02*
X127974819Y-58623809D01*
X127974819Y-58623809D02*
X128117676Y-58528571D01*
X128117676Y-58528571D02*
X128212914Y-58433333D01*
X128212914Y-58433333D02*
X128260533Y-58338095D01*
X128308152Y-59766666D02*
X128974819Y-59766666D01*
X127927200Y-59528571D02*
X128641485Y-59290476D01*
X128641485Y-59290476D02*
X128641485Y-59909523D01*
X147804819Y-84557142D02*
X147328628Y-84223809D01*
X147804819Y-83985714D02*
X146804819Y-83985714D01*
X146804819Y-83985714D02*
X146804819Y-84366666D01*
X146804819Y-84366666D02*
X146852438Y-84461904D01*
X146852438Y-84461904D02*
X146900057Y-84509523D01*
X146900057Y-84509523D02*
X146995295Y-84557142D01*
X146995295Y-84557142D02*
X147138152Y-84557142D01*
X147138152Y-84557142D02*
X147233390Y-84509523D01*
X147233390Y-84509523D02*
X147281009Y-84461904D01*
X147281009Y-84461904D02*
X147328628Y-84366666D01*
X147328628Y-84366666D02*
X147328628Y-83985714D01*
X146804819Y-84890476D02*
X146804819Y-85509523D01*
X146804819Y-85509523D02*
X147185771Y-85176190D01*
X147185771Y-85176190D02*
X147185771Y-85319047D01*
X147185771Y-85319047D02*
X147233390Y-85414285D01*
X147233390Y-85414285D02*
X147281009Y-85461904D01*
X147281009Y-85461904D02*
X147376247Y-85509523D01*
X147376247Y-85509523D02*
X147614342Y-85509523D01*
X147614342Y-85509523D02*
X147709580Y-85461904D01*
X147709580Y-85461904D02*
X147757200Y-85414285D01*
X147757200Y-85414285D02*
X147804819Y-85319047D01*
X147804819Y-85319047D02*
X147804819Y-85033333D01*
X147804819Y-85033333D02*
X147757200Y-84938095D01*
X147757200Y-84938095D02*
X147709580Y-84890476D01*
X146804819Y-86414285D02*
X146804819Y-85938095D01*
X146804819Y-85938095D02*
X147281009Y-85890476D01*
X147281009Y-85890476D02*
X147233390Y-85938095D01*
X147233390Y-85938095D02*
X147185771Y-86033333D01*
X147185771Y-86033333D02*
X147185771Y-86271428D01*
X147185771Y-86271428D02*
X147233390Y-86366666D01*
X147233390Y-86366666D02*
X147281009Y-86414285D01*
X147281009Y-86414285D02*
X147376247Y-86461904D01*
X147376247Y-86461904D02*
X147614342Y-86461904D01*
X147614342Y-86461904D02*
X147709580Y-86414285D01*
X147709580Y-86414285D02*
X147757200Y-86366666D01*
X147757200Y-86366666D02*
X147804819Y-86271428D01*
X147804819Y-86271428D02*
X147804819Y-86033333D01*
X147804819Y-86033333D02*
X147757200Y-85938095D01*
X147757200Y-85938095D02*
X147709580Y-85890476D01*
X96842857Y-46559580D02*
X96890476Y-46607200D01*
X96890476Y-46607200D02*
X97033333Y-46654819D01*
X97033333Y-46654819D02*
X97128571Y-46654819D01*
X97128571Y-46654819D02*
X97271428Y-46607200D01*
X97271428Y-46607200D02*
X97366666Y-46511961D01*
X97366666Y-46511961D02*
X97414285Y-46416723D01*
X97414285Y-46416723D02*
X97461904Y-46226247D01*
X97461904Y-46226247D02*
X97461904Y-46083390D01*
X97461904Y-46083390D02*
X97414285Y-45892914D01*
X97414285Y-45892914D02*
X97366666Y-45797676D01*
X97366666Y-45797676D02*
X97271428Y-45702438D01*
X97271428Y-45702438D02*
X97128571Y-45654819D01*
X97128571Y-45654819D02*
X97033333Y-45654819D01*
X97033333Y-45654819D02*
X96890476Y-45702438D01*
X96890476Y-45702438D02*
X96842857Y-45750057D01*
X95890476Y-46654819D02*
X96461904Y-46654819D01*
X96176190Y-46654819D02*
X96176190Y-45654819D01*
X96176190Y-45654819D02*
X96271428Y-45797676D01*
X96271428Y-45797676D02*
X96366666Y-45892914D01*
X96366666Y-45892914D02*
X96461904Y-45940533D01*
X94985714Y-45654819D02*
X95461904Y-45654819D01*
X95461904Y-45654819D02*
X95509523Y-46131009D01*
X95509523Y-46131009D02*
X95461904Y-46083390D01*
X95461904Y-46083390D02*
X95366666Y-46035771D01*
X95366666Y-46035771D02*
X95128571Y-46035771D01*
X95128571Y-46035771D02*
X95033333Y-46083390D01*
X95033333Y-46083390D02*
X94985714Y-46131009D01*
X94985714Y-46131009D02*
X94938095Y-46226247D01*
X94938095Y-46226247D02*
X94938095Y-46464342D01*
X94938095Y-46464342D02*
X94985714Y-46559580D01*
X94985714Y-46559580D02*
X95033333Y-46607200D01*
X95033333Y-46607200D02*
X95128571Y-46654819D01*
X95128571Y-46654819D02*
X95366666Y-46654819D01*
X95366666Y-46654819D02*
X95461904Y-46607200D01*
X95461904Y-46607200D02*
X95509523Y-46559580D01*
X90454819Y-84366666D02*
X91169104Y-84366666D01*
X91169104Y-84366666D02*
X91311961Y-84319047D01*
X91311961Y-84319047D02*
X91407200Y-84223809D01*
X91407200Y-84223809D02*
X91454819Y-84080952D01*
X91454819Y-84080952D02*
X91454819Y-83985714D01*
X91454819Y-84842857D02*
X90454819Y-84842857D01*
X90454819Y-84842857D02*
X90454819Y-85223809D01*
X90454819Y-85223809D02*
X90502438Y-85319047D01*
X90502438Y-85319047D02*
X90550057Y-85366666D01*
X90550057Y-85366666D02*
X90645295Y-85414285D01*
X90645295Y-85414285D02*
X90788152Y-85414285D01*
X90788152Y-85414285D02*
X90883390Y-85366666D01*
X90883390Y-85366666D02*
X90931009Y-85319047D01*
X90931009Y-85319047D02*
X90978628Y-85223809D01*
X90978628Y-85223809D02*
X90978628Y-84842857D01*
X90550057Y-85795238D02*
X90502438Y-85842857D01*
X90502438Y-85842857D02*
X90454819Y-85938095D01*
X90454819Y-85938095D02*
X90454819Y-86176190D01*
X90454819Y-86176190D02*
X90502438Y-86271428D01*
X90502438Y-86271428D02*
X90550057Y-86319047D01*
X90550057Y-86319047D02*
X90645295Y-86366666D01*
X90645295Y-86366666D02*
X90740533Y-86366666D01*
X90740533Y-86366666D02*
X90883390Y-86319047D01*
X90883390Y-86319047D02*
X91454819Y-85747619D01*
X91454819Y-85747619D02*
X91454819Y-86366666D01*
X81566666Y-126879580D02*
X81614285Y-126927200D01*
X81614285Y-126927200D02*
X81757142Y-126974819D01*
X81757142Y-126974819D02*
X81852380Y-126974819D01*
X81852380Y-126974819D02*
X81995237Y-126927200D01*
X81995237Y-126927200D02*
X82090475Y-126831961D01*
X82090475Y-126831961D02*
X82138094Y-126736723D01*
X82138094Y-126736723D02*
X82185713Y-126546247D01*
X82185713Y-126546247D02*
X82185713Y-126403390D01*
X82185713Y-126403390D02*
X82138094Y-126212914D01*
X82138094Y-126212914D02*
X82090475Y-126117676D01*
X82090475Y-126117676D02*
X81995237Y-126022438D01*
X81995237Y-126022438D02*
X81852380Y-125974819D01*
X81852380Y-125974819D02*
X81757142Y-125974819D01*
X81757142Y-125974819D02*
X81614285Y-126022438D01*
X81614285Y-126022438D02*
X81566666Y-126070057D01*
X80709523Y-126308152D02*
X80709523Y-126974819D01*
X80947618Y-125927200D02*
X81185713Y-126641485D01*
X81185713Y-126641485D02*
X80566666Y-126641485D01*
X76304819Y-45333333D02*
X75828628Y-45000000D01*
X76304819Y-44761905D02*
X75304819Y-44761905D01*
X75304819Y-44761905D02*
X75304819Y-45142857D01*
X75304819Y-45142857D02*
X75352438Y-45238095D01*
X75352438Y-45238095D02*
X75400057Y-45285714D01*
X75400057Y-45285714D02*
X75495295Y-45333333D01*
X75495295Y-45333333D02*
X75638152Y-45333333D01*
X75638152Y-45333333D02*
X75733390Y-45285714D01*
X75733390Y-45285714D02*
X75781009Y-45238095D01*
X75781009Y-45238095D02*
X75828628Y-45142857D01*
X75828628Y-45142857D02*
X75828628Y-44761905D01*
X75304819Y-45666667D02*
X75304819Y-46333333D01*
X75304819Y-46333333D02*
X76304819Y-45904762D01*
X145042857Y-105879580D02*
X145090476Y-105927200D01*
X145090476Y-105927200D02*
X145233333Y-105974819D01*
X145233333Y-105974819D02*
X145328571Y-105974819D01*
X145328571Y-105974819D02*
X145471428Y-105927200D01*
X145471428Y-105927200D02*
X145566666Y-105831961D01*
X145566666Y-105831961D02*
X145614285Y-105736723D01*
X145614285Y-105736723D02*
X145661904Y-105546247D01*
X145661904Y-105546247D02*
X145661904Y-105403390D01*
X145661904Y-105403390D02*
X145614285Y-105212914D01*
X145614285Y-105212914D02*
X145566666Y-105117676D01*
X145566666Y-105117676D02*
X145471428Y-105022438D01*
X145471428Y-105022438D02*
X145328571Y-104974819D01*
X145328571Y-104974819D02*
X145233333Y-104974819D01*
X145233333Y-104974819D02*
X145090476Y-105022438D01*
X145090476Y-105022438D02*
X145042857Y-105070057D01*
X144090476Y-105974819D02*
X144661904Y-105974819D01*
X144376190Y-105974819D02*
X144376190Y-104974819D01*
X144376190Y-104974819D02*
X144471428Y-105117676D01*
X144471428Y-105117676D02*
X144566666Y-105212914D01*
X144566666Y-105212914D02*
X144661904Y-105260533D01*
X143709523Y-105070057D02*
X143661904Y-105022438D01*
X143661904Y-105022438D02*
X143566666Y-104974819D01*
X143566666Y-104974819D02*
X143328571Y-104974819D01*
X143328571Y-104974819D02*
X143233333Y-105022438D01*
X143233333Y-105022438D02*
X143185714Y-105070057D01*
X143185714Y-105070057D02*
X143138095Y-105165295D01*
X143138095Y-105165295D02*
X143138095Y-105260533D01*
X143138095Y-105260533D02*
X143185714Y-105403390D01*
X143185714Y-105403390D02*
X143757142Y-105974819D01*
X143757142Y-105974819D02*
X143138095Y-105974819D01*
X87642857Y-100004819D02*
X87976190Y-99528628D01*
X88214285Y-100004819D02*
X88214285Y-99004819D01*
X88214285Y-99004819D02*
X87833333Y-99004819D01*
X87833333Y-99004819D02*
X87738095Y-99052438D01*
X87738095Y-99052438D02*
X87690476Y-99100057D01*
X87690476Y-99100057D02*
X87642857Y-99195295D01*
X87642857Y-99195295D02*
X87642857Y-99338152D01*
X87642857Y-99338152D02*
X87690476Y-99433390D01*
X87690476Y-99433390D02*
X87738095Y-99481009D01*
X87738095Y-99481009D02*
X87833333Y-99528628D01*
X87833333Y-99528628D02*
X88214285Y-99528628D01*
X86690476Y-100004819D02*
X87261904Y-100004819D01*
X86976190Y-100004819D02*
X86976190Y-99004819D01*
X86976190Y-99004819D02*
X87071428Y-99147676D01*
X87071428Y-99147676D02*
X87166666Y-99242914D01*
X87166666Y-99242914D02*
X87261904Y-99290533D01*
X86119047Y-99433390D02*
X86214285Y-99385771D01*
X86214285Y-99385771D02*
X86261904Y-99338152D01*
X86261904Y-99338152D02*
X86309523Y-99242914D01*
X86309523Y-99242914D02*
X86309523Y-99195295D01*
X86309523Y-99195295D02*
X86261904Y-99100057D01*
X86261904Y-99100057D02*
X86214285Y-99052438D01*
X86214285Y-99052438D02*
X86119047Y-99004819D01*
X86119047Y-99004819D02*
X85928571Y-99004819D01*
X85928571Y-99004819D02*
X85833333Y-99052438D01*
X85833333Y-99052438D02*
X85785714Y-99100057D01*
X85785714Y-99100057D02*
X85738095Y-99195295D01*
X85738095Y-99195295D02*
X85738095Y-99242914D01*
X85738095Y-99242914D02*
X85785714Y-99338152D01*
X85785714Y-99338152D02*
X85833333Y-99385771D01*
X85833333Y-99385771D02*
X85928571Y-99433390D01*
X85928571Y-99433390D02*
X86119047Y-99433390D01*
X86119047Y-99433390D02*
X86214285Y-99481009D01*
X86214285Y-99481009D02*
X86261904Y-99528628D01*
X86261904Y-99528628D02*
X86309523Y-99623866D01*
X86309523Y-99623866D02*
X86309523Y-99814342D01*
X86309523Y-99814342D02*
X86261904Y-99909580D01*
X86261904Y-99909580D02*
X86214285Y-99957200D01*
X86214285Y-99957200D02*
X86119047Y-100004819D01*
X86119047Y-100004819D02*
X85928571Y-100004819D01*
X85928571Y-100004819D02*
X85833333Y-99957200D01*
X85833333Y-99957200D02*
X85785714Y-99909580D01*
X85785714Y-99909580D02*
X85738095Y-99814342D01*
X85738095Y-99814342D02*
X85738095Y-99623866D01*
X85738095Y-99623866D02*
X85785714Y-99528628D01*
X85785714Y-99528628D02*
X85833333Y-99481009D01*
X85833333Y-99481009D02*
X85928571Y-99433390D01*
X153654819Y-104890476D02*
X154369104Y-104890476D01*
X154369104Y-104890476D02*
X154511961Y-104842857D01*
X154511961Y-104842857D02*
X154607200Y-104747619D01*
X154607200Y-104747619D02*
X154654819Y-104604762D01*
X154654819Y-104604762D02*
X154654819Y-104509524D01*
X154654819Y-105366667D02*
X153654819Y-105366667D01*
X153654819Y-105366667D02*
X153654819Y-105747619D01*
X153654819Y-105747619D02*
X153702438Y-105842857D01*
X153702438Y-105842857D02*
X153750057Y-105890476D01*
X153750057Y-105890476D02*
X153845295Y-105938095D01*
X153845295Y-105938095D02*
X153988152Y-105938095D01*
X153988152Y-105938095D02*
X154083390Y-105890476D01*
X154083390Y-105890476D02*
X154131009Y-105842857D01*
X154131009Y-105842857D02*
X154178628Y-105747619D01*
X154178628Y-105747619D02*
X154178628Y-105366667D01*
X154654819Y-106890476D02*
X154654819Y-106319048D01*
X154654819Y-106604762D02*
X153654819Y-106604762D01*
X153654819Y-106604762D02*
X153797676Y-106509524D01*
X153797676Y-106509524D02*
X153892914Y-106414286D01*
X153892914Y-106414286D02*
X153940533Y-106319048D01*
X153750057Y-107271429D02*
X153702438Y-107319048D01*
X153702438Y-107319048D02*
X153654819Y-107414286D01*
X153654819Y-107414286D02*
X153654819Y-107652381D01*
X153654819Y-107652381D02*
X153702438Y-107747619D01*
X153702438Y-107747619D02*
X153750057Y-107795238D01*
X153750057Y-107795238D02*
X153845295Y-107842857D01*
X153845295Y-107842857D02*
X153940533Y-107842857D01*
X153940533Y-107842857D02*
X154083390Y-107795238D01*
X154083390Y-107795238D02*
X154654819Y-107223810D01*
X154654819Y-107223810D02*
X154654819Y-107842857D01*
X150642857Y-78804819D02*
X150976190Y-78328628D01*
X151214285Y-78804819D02*
X151214285Y-77804819D01*
X151214285Y-77804819D02*
X150833333Y-77804819D01*
X150833333Y-77804819D02*
X150738095Y-77852438D01*
X150738095Y-77852438D02*
X150690476Y-77900057D01*
X150690476Y-77900057D02*
X150642857Y-77995295D01*
X150642857Y-77995295D02*
X150642857Y-78138152D01*
X150642857Y-78138152D02*
X150690476Y-78233390D01*
X150690476Y-78233390D02*
X150738095Y-78281009D01*
X150738095Y-78281009D02*
X150833333Y-78328628D01*
X150833333Y-78328628D02*
X151214285Y-78328628D01*
X150309523Y-77804819D02*
X149690476Y-77804819D01*
X149690476Y-77804819D02*
X150023809Y-78185771D01*
X150023809Y-78185771D02*
X149880952Y-78185771D01*
X149880952Y-78185771D02*
X149785714Y-78233390D01*
X149785714Y-78233390D02*
X149738095Y-78281009D01*
X149738095Y-78281009D02*
X149690476Y-78376247D01*
X149690476Y-78376247D02*
X149690476Y-78614342D01*
X149690476Y-78614342D02*
X149738095Y-78709580D01*
X149738095Y-78709580D02*
X149785714Y-78757200D01*
X149785714Y-78757200D02*
X149880952Y-78804819D01*
X149880952Y-78804819D02*
X150166666Y-78804819D01*
X150166666Y-78804819D02*
X150261904Y-78757200D01*
X150261904Y-78757200D02*
X150309523Y-78709580D01*
X148833333Y-78138152D02*
X148833333Y-78804819D01*
X149071428Y-77757200D02*
X149309523Y-78471485D01*
X149309523Y-78471485D02*
X148690476Y-78471485D01*
X105804819Y-126557142D02*
X105328628Y-126223809D01*
X105804819Y-125985714D02*
X104804819Y-125985714D01*
X104804819Y-125985714D02*
X104804819Y-126366666D01*
X104804819Y-126366666D02*
X104852438Y-126461904D01*
X104852438Y-126461904D02*
X104900057Y-126509523D01*
X104900057Y-126509523D02*
X104995295Y-126557142D01*
X104995295Y-126557142D02*
X105138152Y-126557142D01*
X105138152Y-126557142D02*
X105233390Y-126509523D01*
X105233390Y-126509523D02*
X105281009Y-126461904D01*
X105281009Y-126461904D02*
X105328628Y-126366666D01*
X105328628Y-126366666D02*
X105328628Y-125985714D01*
X104900057Y-126938095D02*
X104852438Y-126985714D01*
X104852438Y-126985714D02*
X104804819Y-127080952D01*
X104804819Y-127080952D02*
X104804819Y-127319047D01*
X104804819Y-127319047D02*
X104852438Y-127414285D01*
X104852438Y-127414285D02*
X104900057Y-127461904D01*
X104900057Y-127461904D02*
X104995295Y-127509523D01*
X104995295Y-127509523D02*
X105090533Y-127509523D01*
X105090533Y-127509523D02*
X105233390Y-127461904D01*
X105233390Y-127461904D02*
X105804819Y-126890476D01*
X105804819Y-126890476D02*
X105804819Y-127509523D01*
X104804819Y-127842857D02*
X104804819Y-128509523D01*
X104804819Y-128509523D02*
X105804819Y-128080952D01*
X111454819Y-84466666D02*
X112169104Y-84466666D01*
X112169104Y-84466666D02*
X112311961Y-84419047D01*
X112311961Y-84419047D02*
X112407200Y-84323809D01*
X112407200Y-84323809D02*
X112454819Y-84180952D01*
X112454819Y-84180952D02*
X112454819Y-84085714D01*
X112454819Y-84942857D02*
X111454819Y-84942857D01*
X111454819Y-84942857D02*
X111454819Y-85323809D01*
X111454819Y-85323809D02*
X111502438Y-85419047D01*
X111502438Y-85419047D02*
X111550057Y-85466666D01*
X111550057Y-85466666D02*
X111645295Y-85514285D01*
X111645295Y-85514285D02*
X111788152Y-85514285D01*
X111788152Y-85514285D02*
X111883390Y-85466666D01*
X111883390Y-85466666D02*
X111931009Y-85419047D01*
X111931009Y-85419047D02*
X111978628Y-85323809D01*
X111978628Y-85323809D02*
X111978628Y-84942857D01*
X111454819Y-86419047D02*
X111454819Y-85942857D01*
X111454819Y-85942857D02*
X111931009Y-85895238D01*
X111931009Y-85895238D02*
X111883390Y-85942857D01*
X111883390Y-85942857D02*
X111835771Y-86038095D01*
X111835771Y-86038095D02*
X111835771Y-86276190D01*
X111835771Y-86276190D02*
X111883390Y-86371428D01*
X111883390Y-86371428D02*
X111931009Y-86419047D01*
X111931009Y-86419047D02*
X112026247Y-86466666D01*
X112026247Y-86466666D02*
X112264342Y-86466666D01*
X112264342Y-86466666D02*
X112359580Y-86419047D01*
X112359580Y-86419047D02*
X112407200Y-86371428D01*
X112407200Y-86371428D02*
X112454819Y-86276190D01*
X112454819Y-86276190D02*
X112454819Y-86038095D01*
X112454819Y-86038095D02*
X112407200Y-85942857D01*
X112407200Y-85942857D02*
X112359580Y-85895238D01*
X124042857Y-126879580D02*
X124090476Y-126927200D01*
X124090476Y-126927200D02*
X124233333Y-126974819D01*
X124233333Y-126974819D02*
X124328571Y-126974819D01*
X124328571Y-126974819D02*
X124471428Y-126927200D01*
X124471428Y-126927200D02*
X124566666Y-126831961D01*
X124566666Y-126831961D02*
X124614285Y-126736723D01*
X124614285Y-126736723D02*
X124661904Y-126546247D01*
X124661904Y-126546247D02*
X124661904Y-126403390D01*
X124661904Y-126403390D02*
X124614285Y-126212914D01*
X124614285Y-126212914D02*
X124566666Y-126117676D01*
X124566666Y-126117676D02*
X124471428Y-126022438D01*
X124471428Y-126022438D02*
X124328571Y-125974819D01*
X124328571Y-125974819D02*
X124233333Y-125974819D01*
X124233333Y-125974819D02*
X124090476Y-126022438D01*
X124090476Y-126022438D02*
X124042857Y-126070057D01*
X123090476Y-126974819D02*
X123661904Y-126974819D01*
X123376190Y-126974819D02*
X123376190Y-125974819D01*
X123376190Y-125974819D02*
X123471428Y-126117676D01*
X123471428Y-126117676D02*
X123566666Y-126212914D01*
X123566666Y-126212914D02*
X123661904Y-126260533D01*
X122471428Y-125974819D02*
X122376190Y-125974819D01*
X122376190Y-125974819D02*
X122280952Y-126022438D01*
X122280952Y-126022438D02*
X122233333Y-126070057D01*
X122233333Y-126070057D02*
X122185714Y-126165295D01*
X122185714Y-126165295D02*
X122138095Y-126355771D01*
X122138095Y-126355771D02*
X122138095Y-126593866D01*
X122138095Y-126593866D02*
X122185714Y-126784342D01*
X122185714Y-126784342D02*
X122233333Y-126879580D01*
X122233333Y-126879580D02*
X122280952Y-126927200D01*
X122280952Y-126927200D02*
X122376190Y-126974819D01*
X122376190Y-126974819D02*
X122471428Y-126974819D01*
X122471428Y-126974819D02*
X122566666Y-126927200D01*
X122566666Y-126927200D02*
X122614285Y-126879580D01*
X122614285Y-126879580D02*
X122661904Y-126784342D01*
X122661904Y-126784342D02*
X122709523Y-126593866D01*
X122709523Y-126593866D02*
X122709523Y-126355771D01*
X122709523Y-126355771D02*
X122661904Y-126165295D01*
X122661904Y-126165295D02*
X122614285Y-126070057D01*
X122614285Y-126070057D02*
X122566666Y-126022438D01*
X122566666Y-126022438D02*
X122471428Y-125974819D01*
X126804819Y-84557142D02*
X126328628Y-84223809D01*
X126804819Y-83985714D02*
X125804819Y-83985714D01*
X125804819Y-83985714D02*
X125804819Y-84366666D01*
X125804819Y-84366666D02*
X125852438Y-84461904D01*
X125852438Y-84461904D02*
X125900057Y-84509523D01*
X125900057Y-84509523D02*
X125995295Y-84557142D01*
X125995295Y-84557142D02*
X126138152Y-84557142D01*
X126138152Y-84557142D02*
X126233390Y-84509523D01*
X126233390Y-84509523D02*
X126281009Y-84461904D01*
X126281009Y-84461904D02*
X126328628Y-84366666D01*
X126328628Y-84366666D02*
X126328628Y-83985714D01*
X125900057Y-84938095D02*
X125852438Y-84985714D01*
X125852438Y-84985714D02*
X125804819Y-85080952D01*
X125804819Y-85080952D02*
X125804819Y-85319047D01*
X125804819Y-85319047D02*
X125852438Y-85414285D01*
X125852438Y-85414285D02*
X125900057Y-85461904D01*
X125900057Y-85461904D02*
X125995295Y-85509523D01*
X125995295Y-85509523D02*
X126090533Y-85509523D01*
X126090533Y-85509523D02*
X126233390Y-85461904D01*
X126233390Y-85461904D02*
X126804819Y-84890476D01*
X126804819Y-84890476D02*
X126804819Y-85509523D01*
X126804819Y-85985714D02*
X126804819Y-86176190D01*
X126804819Y-86176190D02*
X126757200Y-86271428D01*
X126757200Y-86271428D02*
X126709580Y-86319047D01*
X126709580Y-86319047D02*
X126566723Y-86414285D01*
X126566723Y-86414285D02*
X126376247Y-86461904D01*
X126376247Y-86461904D02*
X125995295Y-86461904D01*
X125995295Y-86461904D02*
X125900057Y-86414285D01*
X125900057Y-86414285D02*
X125852438Y-86366666D01*
X125852438Y-86366666D02*
X125804819Y-86271428D01*
X125804819Y-86271428D02*
X125804819Y-86080952D01*
X125804819Y-86080952D02*
X125852438Y-85985714D01*
X125852438Y-85985714D02*
X125900057Y-85938095D01*
X125900057Y-85938095D02*
X125995295Y-85890476D01*
X125995295Y-85890476D02*
X126233390Y-85890476D01*
X126233390Y-85890476D02*
X126328628Y-85938095D01*
X126328628Y-85938095D02*
X126376247Y-85985714D01*
X126376247Y-85985714D02*
X126423866Y-86080952D01*
X126423866Y-86080952D02*
X126423866Y-86271428D01*
X126423866Y-86271428D02*
X126376247Y-86366666D01*
X126376247Y-86366666D02*
X126328628Y-86414285D01*
X126328628Y-86414285D02*
X126233390Y-86461904D01*
X153654819Y-125840476D02*
X154369104Y-125840476D01*
X154369104Y-125840476D02*
X154511961Y-125792857D01*
X154511961Y-125792857D02*
X154607200Y-125697619D01*
X154607200Y-125697619D02*
X154654819Y-125554762D01*
X154654819Y-125554762D02*
X154654819Y-125459524D01*
X154654819Y-126316667D02*
X153654819Y-126316667D01*
X153654819Y-126316667D02*
X153654819Y-126697619D01*
X153654819Y-126697619D02*
X153702438Y-126792857D01*
X153702438Y-126792857D02*
X153750057Y-126840476D01*
X153750057Y-126840476D02*
X153845295Y-126888095D01*
X153845295Y-126888095D02*
X153988152Y-126888095D01*
X153988152Y-126888095D02*
X154083390Y-126840476D01*
X154083390Y-126840476D02*
X154131009Y-126792857D01*
X154131009Y-126792857D02*
X154178628Y-126697619D01*
X154178628Y-126697619D02*
X154178628Y-126316667D01*
X154654819Y-127840476D02*
X154654819Y-127269048D01*
X154654819Y-127554762D02*
X153654819Y-127554762D01*
X153654819Y-127554762D02*
X153797676Y-127459524D01*
X153797676Y-127459524D02*
X153892914Y-127364286D01*
X153892914Y-127364286D02*
X153940533Y-127269048D01*
X153654819Y-128173810D02*
X153654819Y-128792857D01*
X153654819Y-128792857D02*
X154035771Y-128459524D01*
X154035771Y-128459524D02*
X154035771Y-128602381D01*
X154035771Y-128602381D02*
X154083390Y-128697619D01*
X154083390Y-128697619D02*
X154131009Y-128745238D01*
X154131009Y-128745238D02*
X154226247Y-128792857D01*
X154226247Y-128792857D02*
X154464342Y-128792857D01*
X154464342Y-128792857D02*
X154559580Y-128745238D01*
X154559580Y-128745238D02*
X154607200Y-128697619D01*
X154607200Y-128697619D02*
X154654819Y-128602381D01*
X154654819Y-128602381D02*
X154654819Y-128316667D01*
X154654819Y-128316667D02*
X154607200Y-128221429D01*
X154607200Y-128221429D02*
X154559580Y-128173810D01*
X88804819Y-46690476D02*
X89519104Y-46690476D01*
X89519104Y-46690476D02*
X89661961Y-46642857D01*
X89661961Y-46642857D02*
X89757200Y-46547619D01*
X89757200Y-46547619D02*
X89804819Y-46404762D01*
X89804819Y-46404762D02*
X89804819Y-46309524D01*
X89804819Y-47166667D02*
X88804819Y-47166667D01*
X88804819Y-47166667D02*
X88804819Y-47547619D01*
X88804819Y-47547619D02*
X88852438Y-47642857D01*
X88852438Y-47642857D02*
X88900057Y-47690476D01*
X88900057Y-47690476D02*
X88995295Y-47738095D01*
X88995295Y-47738095D02*
X89138152Y-47738095D01*
X89138152Y-47738095D02*
X89233390Y-47690476D01*
X89233390Y-47690476D02*
X89281009Y-47642857D01*
X89281009Y-47642857D02*
X89328628Y-47547619D01*
X89328628Y-47547619D02*
X89328628Y-47166667D01*
X89804819Y-48690476D02*
X89804819Y-48119048D01*
X89804819Y-48404762D02*
X88804819Y-48404762D01*
X88804819Y-48404762D02*
X88947676Y-48309524D01*
X88947676Y-48309524D02*
X89042914Y-48214286D01*
X89042914Y-48214286D02*
X89090533Y-48119048D01*
X88804819Y-49595238D02*
X88804819Y-49119048D01*
X88804819Y-49119048D02*
X89281009Y-49071429D01*
X89281009Y-49071429D02*
X89233390Y-49119048D01*
X89233390Y-49119048D02*
X89185771Y-49214286D01*
X89185771Y-49214286D02*
X89185771Y-49452381D01*
X89185771Y-49452381D02*
X89233390Y-49547619D01*
X89233390Y-49547619D02*
X89281009Y-49595238D01*
X89281009Y-49595238D02*
X89376247Y-49642857D01*
X89376247Y-49642857D02*
X89614342Y-49642857D01*
X89614342Y-49642857D02*
X89709580Y-49595238D01*
X89709580Y-49595238D02*
X89757200Y-49547619D01*
X89757200Y-49547619D02*
X89804819Y-49452381D01*
X89804819Y-49452381D02*
X89804819Y-49214286D01*
X89804819Y-49214286D02*
X89757200Y-49119048D01*
X89757200Y-49119048D02*
X89709580Y-49071429D01*
X129642857Y-78804819D02*
X129976190Y-78328628D01*
X130214285Y-78804819D02*
X130214285Y-77804819D01*
X130214285Y-77804819D02*
X129833333Y-77804819D01*
X129833333Y-77804819D02*
X129738095Y-77852438D01*
X129738095Y-77852438D02*
X129690476Y-77900057D01*
X129690476Y-77900057D02*
X129642857Y-77995295D01*
X129642857Y-77995295D02*
X129642857Y-78138152D01*
X129642857Y-78138152D02*
X129690476Y-78233390D01*
X129690476Y-78233390D02*
X129738095Y-78281009D01*
X129738095Y-78281009D02*
X129833333Y-78328628D01*
X129833333Y-78328628D02*
X130214285Y-78328628D01*
X129261904Y-77900057D02*
X129214285Y-77852438D01*
X129214285Y-77852438D02*
X129119047Y-77804819D01*
X129119047Y-77804819D02*
X128880952Y-77804819D01*
X128880952Y-77804819D02*
X128785714Y-77852438D01*
X128785714Y-77852438D02*
X128738095Y-77900057D01*
X128738095Y-77900057D02*
X128690476Y-77995295D01*
X128690476Y-77995295D02*
X128690476Y-78090533D01*
X128690476Y-78090533D02*
X128738095Y-78233390D01*
X128738095Y-78233390D02*
X129309523Y-78804819D01*
X129309523Y-78804819D02*
X128690476Y-78804819D01*
X128119047Y-78233390D02*
X128214285Y-78185771D01*
X128214285Y-78185771D02*
X128261904Y-78138152D01*
X128261904Y-78138152D02*
X128309523Y-78042914D01*
X128309523Y-78042914D02*
X128309523Y-77995295D01*
X128309523Y-77995295D02*
X128261904Y-77900057D01*
X128261904Y-77900057D02*
X128214285Y-77852438D01*
X128214285Y-77852438D02*
X128119047Y-77804819D01*
X128119047Y-77804819D02*
X127928571Y-77804819D01*
X127928571Y-77804819D02*
X127833333Y-77852438D01*
X127833333Y-77852438D02*
X127785714Y-77900057D01*
X127785714Y-77900057D02*
X127738095Y-77995295D01*
X127738095Y-77995295D02*
X127738095Y-78042914D01*
X127738095Y-78042914D02*
X127785714Y-78138152D01*
X127785714Y-78138152D02*
X127833333Y-78185771D01*
X127833333Y-78185771D02*
X127928571Y-78233390D01*
X127928571Y-78233390D02*
X128119047Y-78233390D01*
X128119047Y-78233390D02*
X128214285Y-78281009D01*
X128214285Y-78281009D02*
X128261904Y-78328628D01*
X128261904Y-78328628D02*
X128309523Y-78423866D01*
X128309523Y-78423866D02*
X128309523Y-78614342D01*
X128309523Y-78614342D02*
X128261904Y-78709580D01*
X128261904Y-78709580D02*
X128214285Y-78757200D01*
X128214285Y-78757200D02*
X128119047Y-78804819D01*
X128119047Y-78804819D02*
X127928571Y-78804819D01*
X127928571Y-78804819D02*
X127833333Y-78757200D01*
X127833333Y-78757200D02*
X127785714Y-78709580D01*
X127785714Y-78709580D02*
X127738095Y-78614342D01*
X127738095Y-78614342D02*
X127738095Y-78423866D01*
X127738095Y-78423866D02*
X127785714Y-78328628D01*
X127785714Y-78328628D02*
X127833333Y-78281009D01*
X127833333Y-78281009D02*
X127928571Y-78233390D01*
X87366666Y-46604819D02*
X87699999Y-46128628D01*
X87938094Y-46604819D02*
X87938094Y-45604819D01*
X87938094Y-45604819D02*
X87557142Y-45604819D01*
X87557142Y-45604819D02*
X87461904Y-45652438D01*
X87461904Y-45652438D02*
X87414285Y-45700057D01*
X87414285Y-45700057D02*
X87366666Y-45795295D01*
X87366666Y-45795295D02*
X87366666Y-45938152D01*
X87366666Y-45938152D02*
X87414285Y-46033390D01*
X87414285Y-46033390D02*
X87461904Y-46081009D01*
X87461904Y-46081009D02*
X87557142Y-46128628D01*
X87557142Y-46128628D02*
X87938094Y-46128628D01*
X86509523Y-45938152D02*
X86509523Y-46604819D01*
X86747618Y-45557200D02*
X86985713Y-46271485D01*
X86985713Y-46271485D02*
X86366666Y-46271485D01*
X129642857Y-100004819D02*
X129976190Y-99528628D01*
X130214285Y-100004819D02*
X130214285Y-99004819D01*
X130214285Y-99004819D02*
X129833333Y-99004819D01*
X129833333Y-99004819D02*
X129738095Y-99052438D01*
X129738095Y-99052438D02*
X129690476Y-99100057D01*
X129690476Y-99100057D02*
X129642857Y-99195295D01*
X129642857Y-99195295D02*
X129642857Y-99338152D01*
X129642857Y-99338152D02*
X129690476Y-99433390D01*
X129690476Y-99433390D02*
X129738095Y-99481009D01*
X129738095Y-99481009D02*
X129833333Y-99528628D01*
X129833333Y-99528628D02*
X130214285Y-99528628D01*
X129309523Y-99004819D02*
X128690476Y-99004819D01*
X128690476Y-99004819D02*
X129023809Y-99385771D01*
X129023809Y-99385771D02*
X128880952Y-99385771D01*
X128880952Y-99385771D02*
X128785714Y-99433390D01*
X128785714Y-99433390D02*
X128738095Y-99481009D01*
X128738095Y-99481009D02*
X128690476Y-99576247D01*
X128690476Y-99576247D02*
X128690476Y-99814342D01*
X128690476Y-99814342D02*
X128738095Y-99909580D01*
X128738095Y-99909580D02*
X128785714Y-99957200D01*
X128785714Y-99957200D02*
X128880952Y-100004819D01*
X128880952Y-100004819D02*
X129166666Y-100004819D01*
X129166666Y-100004819D02*
X129261904Y-99957200D01*
X129261904Y-99957200D02*
X129309523Y-99909580D01*
X128071428Y-99004819D02*
X127976190Y-99004819D01*
X127976190Y-99004819D02*
X127880952Y-99052438D01*
X127880952Y-99052438D02*
X127833333Y-99100057D01*
X127833333Y-99100057D02*
X127785714Y-99195295D01*
X127785714Y-99195295D02*
X127738095Y-99385771D01*
X127738095Y-99385771D02*
X127738095Y-99623866D01*
X127738095Y-99623866D02*
X127785714Y-99814342D01*
X127785714Y-99814342D02*
X127833333Y-99909580D01*
X127833333Y-99909580D02*
X127880952Y-99957200D01*
X127880952Y-99957200D02*
X127976190Y-100004819D01*
X127976190Y-100004819D02*
X128071428Y-100004819D01*
X128071428Y-100004819D02*
X128166666Y-99957200D01*
X128166666Y-99957200D02*
X128214285Y-99909580D01*
X128214285Y-99909580D02*
X128261904Y-99814342D01*
X128261904Y-99814342D02*
X128309523Y-99623866D01*
X128309523Y-99623866D02*
X128309523Y-99385771D01*
X128309523Y-99385771D02*
X128261904Y-99195295D01*
X128261904Y-99195295D02*
X128214285Y-99100057D01*
X128214285Y-99100057D02*
X128166666Y-99052438D01*
X128166666Y-99052438D02*
X128071428Y-99004819D01*
X83309523Y-44407200D02*
X83166666Y-44454819D01*
X83166666Y-44454819D02*
X82928571Y-44454819D01*
X82928571Y-44454819D02*
X82833333Y-44407200D01*
X82833333Y-44407200D02*
X82785714Y-44359580D01*
X82785714Y-44359580D02*
X82738095Y-44264342D01*
X82738095Y-44264342D02*
X82738095Y-44169104D01*
X82738095Y-44169104D02*
X82785714Y-44073866D01*
X82785714Y-44073866D02*
X82833333Y-44026247D01*
X82833333Y-44026247D02*
X82928571Y-43978628D01*
X82928571Y-43978628D02*
X83119047Y-43931009D01*
X83119047Y-43931009D02*
X83214285Y-43883390D01*
X83214285Y-43883390D02*
X83261904Y-43835771D01*
X83261904Y-43835771D02*
X83309523Y-43740533D01*
X83309523Y-43740533D02*
X83309523Y-43645295D01*
X83309523Y-43645295D02*
X83261904Y-43550057D01*
X83261904Y-43550057D02*
X83214285Y-43502438D01*
X83214285Y-43502438D02*
X83119047Y-43454819D01*
X83119047Y-43454819D02*
X82880952Y-43454819D01*
X82880952Y-43454819D02*
X82738095Y-43502438D01*
X82404761Y-43454819D02*
X82166666Y-44454819D01*
X82166666Y-44454819D02*
X81976190Y-43740533D01*
X81976190Y-43740533D02*
X81785714Y-44454819D01*
X81785714Y-44454819D02*
X81547619Y-43454819D01*
X80642857Y-44454819D02*
X81214285Y-44454819D01*
X80928571Y-44454819D02*
X80928571Y-43454819D01*
X80928571Y-43454819D02*
X81023809Y-43597676D01*
X81023809Y-43597676D02*
X81119047Y-43692914D01*
X81119047Y-43692914D02*
X81214285Y-43740533D01*
X79785714Y-43454819D02*
X79976190Y-43454819D01*
X79976190Y-43454819D02*
X80071428Y-43502438D01*
X80071428Y-43502438D02*
X80119047Y-43550057D01*
X80119047Y-43550057D02*
X80214285Y-43692914D01*
X80214285Y-43692914D02*
X80261904Y-43883390D01*
X80261904Y-43883390D02*
X80261904Y-44264342D01*
X80261904Y-44264342D02*
X80214285Y-44359580D01*
X80214285Y-44359580D02*
X80166666Y-44407200D01*
X80166666Y-44407200D02*
X80071428Y-44454819D01*
X80071428Y-44454819D02*
X79880952Y-44454819D01*
X79880952Y-44454819D02*
X79785714Y-44407200D01*
X79785714Y-44407200D02*
X79738095Y-44359580D01*
X79738095Y-44359580D02*
X79690476Y-44264342D01*
X79690476Y-44264342D02*
X79690476Y-44026247D01*
X79690476Y-44026247D02*
X79738095Y-43931009D01*
X79738095Y-43931009D02*
X79785714Y-43883390D01*
X79785714Y-43883390D02*
X79880952Y-43835771D01*
X79880952Y-43835771D02*
X80071428Y-43835771D01*
X80071428Y-43835771D02*
X80166666Y-43883390D01*
X80166666Y-43883390D02*
X80214285Y-43931009D01*
X80214285Y-43931009D02*
X80261904Y-44026247D01*
X98209523Y-44507200D02*
X98066666Y-44554819D01*
X98066666Y-44554819D02*
X97828571Y-44554819D01*
X97828571Y-44554819D02*
X97733333Y-44507200D01*
X97733333Y-44507200D02*
X97685714Y-44459580D01*
X97685714Y-44459580D02*
X97638095Y-44364342D01*
X97638095Y-44364342D02*
X97638095Y-44269104D01*
X97638095Y-44269104D02*
X97685714Y-44173866D01*
X97685714Y-44173866D02*
X97733333Y-44126247D01*
X97733333Y-44126247D02*
X97828571Y-44078628D01*
X97828571Y-44078628D02*
X98019047Y-44031009D01*
X98019047Y-44031009D02*
X98114285Y-43983390D01*
X98114285Y-43983390D02*
X98161904Y-43935771D01*
X98161904Y-43935771D02*
X98209523Y-43840533D01*
X98209523Y-43840533D02*
X98209523Y-43745295D01*
X98209523Y-43745295D02*
X98161904Y-43650057D01*
X98161904Y-43650057D02*
X98114285Y-43602438D01*
X98114285Y-43602438D02*
X98019047Y-43554819D01*
X98019047Y-43554819D02*
X97780952Y-43554819D01*
X97780952Y-43554819D02*
X97638095Y-43602438D01*
X97304761Y-43554819D02*
X97066666Y-44554819D01*
X97066666Y-44554819D02*
X96876190Y-43840533D01*
X96876190Y-43840533D02*
X96685714Y-44554819D01*
X96685714Y-44554819D02*
X96447619Y-43554819D01*
X95542857Y-44554819D02*
X96114285Y-44554819D01*
X95828571Y-44554819D02*
X95828571Y-43554819D01*
X95828571Y-43554819D02*
X95923809Y-43697676D01*
X95923809Y-43697676D02*
X96019047Y-43792914D01*
X96019047Y-43792914D02*
X96114285Y-43840533D01*
X94638095Y-43554819D02*
X95114285Y-43554819D01*
X95114285Y-43554819D02*
X95161904Y-44031009D01*
X95161904Y-44031009D02*
X95114285Y-43983390D01*
X95114285Y-43983390D02*
X95019047Y-43935771D01*
X95019047Y-43935771D02*
X94780952Y-43935771D01*
X94780952Y-43935771D02*
X94685714Y-43983390D01*
X94685714Y-43983390D02*
X94638095Y-44031009D01*
X94638095Y-44031009D02*
X94590476Y-44126247D01*
X94590476Y-44126247D02*
X94590476Y-44364342D01*
X94590476Y-44364342D02*
X94638095Y-44459580D01*
X94638095Y-44459580D02*
X94685714Y-44507200D01*
X94685714Y-44507200D02*
X94780952Y-44554819D01*
X94780952Y-44554819D02*
X95019047Y-44554819D01*
X95019047Y-44554819D02*
X95114285Y-44507200D01*
X95114285Y-44507200D02*
X95161904Y-44459580D01*
X147804819Y-105557142D02*
X147328628Y-105223809D01*
X147804819Y-104985714D02*
X146804819Y-104985714D01*
X146804819Y-104985714D02*
X146804819Y-105366666D01*
X146804819Y-105366666D02*
X146852438Y-105461904D01*
X146852438Y-105461904D02*
X146900057Y-105509523D01*
X146900057Y-105509523D02*
X146995295Y-105557142D01*
X146995295Y-105557142D02*
X147138152Y-105557142D01*
X147138152Y-105557142D02*
X147233390Y-105509523D01*
X147233390Y-105509523D02*
X147281009Y-105461904D01*
X147281009Y-105461904D02*
X147328628Y-105366666D01*
X147328628Y-105366666D02*
X147328628Y-104985714D01*
X146804819Y-105890476D02*
X146804819Y-106509523D01*
X146804819Y-106509523D02*
X147185771Y-106176190D01*
X147185771Y-106176190D02*
X147185771Y-106319047D01*
X147185771Y-106319047D02*
X147233390Y-106414285D01*
X147233390Y-106414285D02*
X147281009Y-106461904D01*
X147281009Y-106461904D02*
X147376247Y-106509523D01*
X147376247Y-106509523D02*
X147614342Y-106509523D01*
X147614342Y-106509523D02*
X147709580Y-106461904D01*
X147709580Y-106461904D02*
X147757200Y-106414285D01*
X147757200Y-106414285D02*
X147804819Y-106319047D01*
X147804819Y-106319047D02*
X147804819Y-106033333D01*
X147804819Y-106033333D02*
X147757200Y-105938095D01*
X147757200Y-105938095D02*
X147709580Y-105890476D01*
X146804819Y-106842857D02*
X146804819Y-107509523D01*
X146804819Y-107509523D02*
X147804819Y-107080952D01*
X150642857Y-120804819D02*
X150976190Y-120328628D01*
X151214285Y-120804819D02*
X151214285Y-119804819D01*
X151214285Y-119804819D02*
X150833333Y-119804819D01*
X150833333Y-119804819D02*
X150738095Y-119852438D01*
X150738095Y-119852438D02*
X150690476Y-119900057D01*
X150690476Y-119900057D02*
X150642857Y-119995295D01*
X150642857Y-119995295D02*
X150642857Y-120138152D01*
X150642857Y-120138152D02*
X150690476Y-120233390D01*
X150690476Y-120233390D02*
X150738095Y-120281009D01*
X150738095Y-120281009D02*
X150833333Y-120328628D01*
X150833333Y-120328628D02*
X151214285Y-120328628D01*
X150309523Y-119804819D02*
X149690476Y-119804819D01*
X149690476Y-119804819D02*
X150023809Y-120185771D01*
X150023809Y-120185771D02*
X149880952Y-120185771D01*
X149880952Y-120185771D02*
X149785714Y-120233390D01*
X149785714Y-120233390D02*
X149738095Y-120281009D01*
X149738095Y-120281009D02*
X149690476Y-120376247D01*
X149690476Y-120376247D02*
X149690476Y-120614342D01*
X149690476Y-120614342D02*
X149738095Y-120709580D01*
X149738095Y-120709580D02*
X149785714Y-120757200D01*
X149785714Y-120757200D02*
X149880952Y-120804819D01*
X149880952Y-120804819D02*
X150166666Y-120804819D01*
X150166666Y-120804819D02*
X150261904Y-120757200D01*
X150261904Y-120757200D02*
X150309523Y-120709580D01*
X149119047Y-120233390D02*
X149214285Y-120185771D01*
X149214285Y-120185771D02*
X149261904Y-120138152D01*
X149261904Y-120138152D02*
X149309523Y-120042914D01*
X149309523Y-120042914D02*
X149309523Y-119995295D01*
X149309523Y-119995295D02*
X149261904Y-119900057D01*
X149261904Y-119900057D02*
X149214285Y-119852438D01*
X149214285Y-119852438D02*
X149119047Y-119804819D01*
X149119047Y-119804819D02*
X148928571Y-119804819D01*
X148928571Y-119804819D02*
X148833333Y-119852438D01*
X148833333Y-119852438D02*
X148785714Y-119900057D01*
X148785714Y-119900057D02*
X148738095Y-119995295D01*
X148738095Y-119995295D02*
X148738095Y-120042914D01*
X148738095Y-120042914D02*
X148785714Y-120138152D01*
X148785714Y-120138152D02*
X148833333Y-120185771D01*
X148833333Y-120185771D02*
X148928571Y-120233390D01*
X148928571Y-120233390D02*
X149119047Y-120233390D01*
X149119047Y-120233390D02*
X149214285Y-120281009D01*
X149214285Y-120281009D02*
X149261904Y-120328628D01*
X149261904Y-120328628D02*
X149309523Y-120423866D01*
X149309523Y-120423866D02*
X149309523Y-120614342D01*
X149309523Y-120614342D02*
X149261904Y-120709580D01*
X149261904Y-120709580D02*
X149214285Y-120757200D01*
X149214285Y-120757200D02*
X149119047Y-120804819D01*
X149119047Y-120804819D02*
X148928571Y-120804819D01*
X148928571Y-120804819D02*
X148833333Y-120757200D01*
X148833333Y-120757200D02*
X148785714Y-120709580D01*
X148785714Y-120709580D02*
X148738095Y-120614342D01*
X148738095Y-120614342D02*
X148738095Y-120423866D01*
X148738095Y-120423866D02*
X148785714Y-120328628D01*
X148785714Y-120328628D02*
X148833333Y-120281009D01*
X148833333Y-120281009D02*
X148928571Y-120233390D01*
X123529166Y-84879580D02*
X123576785Y-84927200D01*
X123576785Y-84927200D02*
X123719642Y-84974819D01*
X123719642Y-84974819D02*
X123814880Y-84974819D01*
X123814880Y-84974819D02*
X123957737Y-84927200D01*
X123957737Y-84927200D02*
X124052975Y-84831961D01*
X124052975Y-84831961D02*
X124100594Y-84736723D01*
X124100594Y-84736723D02*
X124148213Y-84546247D01*
X124148213Y-84546247D02*
X124148213Y-84403390D01*
X124148213Y-84403390D02*
X124100594Y-84212914D01*
X124100594Y-84212914D02*
X124052975Y-84117676D01*
X124052975Y-84117676D02*
X123957737Y-84022438D01*
X123957737Y-84022438D02*
X123814880Y-83974819D01*
X123814880Y-83974819D02*
X123719642Y-83974819D01*
X123719642Y-83974819D02*
X123576785Y-84022438D01*
X123576785Y-84022438D02*
X123529166Y-84070057D01*
X122957737Y-84403390D02*
X123052975Y-84355771D01*
X123052975Y-84355771D02*
X123100594Y-84308152D01*
X123100594Y-84308152D02*
X123148213Y-84212914D01*
X123148213Y-84212914D02*
X123148213Y-84165295D01*
X123148213Y-84165295D02*
X123100594Y-84070057D01*
X123100594Y-84070057D02*
X123052975Y-84022438D01*
X123052975Y-84022438D02*
X122957737Y-83974819D01*
X122957737Y-83974819D02*
X122767261Y-83974819D01*
X122767261Y-83974819D02*
X122672023Y-84022438D01*
X122672023Y-84022438D02*
X122624404Y-84070057D01*
X122624404Y-84070057D02*
X122576785Y-84165295D01*
X122576785Y-84165295D02*
X122576785Y-84212914D01*
X122576785Y-84212914D02*
X122624404Y-84308152D01*
X122624404Y-84308152D02*
X122672023Y-84355771D01*
X122672023Y-84355771D02*
X122767261Y-84403390D01*
X122767261Y-84403390D02*
X122957737Y-84403390D01*
X122957737Y-84403390D02*
X123052975Y-84451009D01*
X123052975Y-84451009D02*
X123100594Y-84498628D01*
X123100594Y-84498628D02*
X123148213Y-84593866D01*
X123148213Y-84593866D02*
X123148213Y-84784342D01*
X123148213Y-84784342D02*
X123100594Y-84879580D01*
X123100594Y-84879580D02*
X123052975Y-84927200D01*
X123052975Y-84927200D02*
X122957737Y-84974819D01*
X122957737Y-84974819D02*
X122767261Y-84974819D01*
X122767261Y-84974819D02*
X122672023Y-84927200D01*
X122672023Y-84927200D02*
X122624404Y-84879580D01*
X122624404Y-84879580D02*
X122576785Y-84784342D01*
X122576785Y-84784342D02*
X122576785Y-84593866D01*
X122576785Y-84593866D02*
X122624404Y-84498628D01*
X122624404Y-84498628D02*
X122672023Y-84451009D01*
X122672023Y-84451009D02*
X122767261Y-84403390D01*
X90454819Y-126366666D02*
X91169104Y-126366666D01*
X91169104Y-126366666D02*
X91311961Y-126319047D01*
X91311961Y-126319047D02*
X91407200Y-126223809D01*
X91407200Y-126223809D02*
X91454819Y-126080952D01*
X91454819Y-126080952D02*
X91454819Y-125985714D01*
X91454819Y-126842857D02*
X90454819Y-126842857D01*
X90454819Y-126842857D02*
X90454819Y-127223809D01*
X90454819Y-127223809D02*
X90502438Y-127319047D01*
X90502438Y-127319047D02*
X90550057Y-127366666D01*
X90550057Y-127366666D02*
X90645295Y-127414285D01*
X90645295Y-127414285D02*
X90788152Y-127414285D01*
X90788152Y-127414285D02*
X90883390Y-127366666D01*
X90883390Y-127366666D02*
X90931009Y-127319047D01*
X90931009Y-127319047D02*
X90978628Y-127223809D01*
X90978628Y-127223809D02*
X90978628Y-126842857D01*
X90788152Y-128271428D02*
X91454819Y-128271428D01*
X90407200Y-128033333D02*
X91121485Y-127795238D01*
X91121485Y-127795238D02*
X91121485Y-128414285D01*
X84804819Y-105557142D02*
X84328628Y-105223809D01*
X84804819Y-104985714D02*
X83804819Y-104985714D01*
X83804819Y-104985714D02*
X83804819Y-105366666D01*
X83804819Y-105366666D02*
X83852438Y-105461904D01*
X83852438Y-105461904D02*
X83900057Y-105509523D01*
X83900057Y-105509523D02*
X83995295Y-105557142D01*
X83995295Y-105557142D02*
X84138152Y-105557142D01*
X84138152Y-105557142D02*
X84233390Y-105509523D01*
X84233390Y-105509523D02*
X84281009Y-105461904D01*
X84281009Y-105461904D02*
X84328628Y-105366666D01*
X84328628Y-105366666D02*
X84328628Y-104985714D01*
X84804819Y-106509523D02*
X84804819Y-105938095D01*
X84804819Y-106223809D02*
X83804819Y-106223809D01*
X83804819Y-106223809D02*
X83947676Y-106128571D01*
X83947676Y-106128571D02*
X84042914Y-106033333D01*
X84042914Y-106033333D02*
X84090533Y-105938095D01*
X84804819Y-106985714D02*
X84804819Y-107176190D01*
X84804819Y-107176190D02*
X84757200Y-107271428D01*
X84757200Y-107271428D02*
X84709580Y-107319047D01*
X84709580Y-107319047D02*
X84566723Y-107414285D01*
X84566723Y-107414285D02*
X84376247Y-107461904D01*
X84376247Y-107461904D02*
X83995295Y-107461904D01*
X83995295Y-107461904D02*
X83900057Y-107414285D01*
X83900057Y-107414285D02*
X83852438Y-107366666D01*
X83852438Y-107366666D02*
X83804819Y-107271428D01*
X83804819Y-107271428D02*
X83804819Y-107080952D01*
X83804819Y-107080952D02*
X83852438Y-106985714D01*
X83852438Y-106985714D02*
X83900057Y-106938095D01*
X83900057Y-106938095D02*
X83995295Y-106890476D01*
X83995295Y-106890476D02*
X84233390Y-106890476D01*
X84233390Y-106890476D02*
X84328628Y-106938095D01*
X84328628Y-106938095D02*
X84376247Y-106985714D01*
X84376247Y-106985714D02*
X84423866Y-107080952D01*
X84423866Y-107080952D02*
X84423866Y-107271428D01*
X84423866Y-107271428D02*
X84376247Y-107366666D01*
X84376247Y-107366666D02*
X84328628Y-107414285D01*
X84328628Y-107414285D02*
X84233390Y-107461904D01*
X87642857Y-78804819D02*
X87976190Y-78328628D01*
X88214285Y-78804819D02*
X88214285Y-77804819D01*
X88214285Y-77804819D02*
X87833333Y-77804819D01*
X87833333Y-77804819D02*
X87738095Y-77852438D01*
X87738095Y-77852438D02*
X87690476Y-77900057D01*
X87690476Y-77900057D02*
X87642857Y-77995295D01*
X87642857Y-77995295D02*
X87642857Y-78138152D01*
X87642857Y-78138152D02*
X87690476Y-78233390D01*
X87690476Y-78233390D02*
X87738095Y-78281009D01*
X87738095Y-78281009D02*
X87833333Y-78328628D01*
X87833333Y-78328628D02*
X88214285Y-78328628D01*
X86690476Y-78804819D02*
X87261904Y-78804819D01*
X86976190Y-78804819D02*
X86976190Y-77804819D01*
X86976190Y-77804819D02*
X87071428Y-77947676D01*
X87071428Y-77947676D02*
X87166666Y-78042914D01*
X87166666Y-78042914D02*
X87261904Y-78090533D01*
X86357142Y-77804819D02*
X85690476Y-77804819D01*
X85690476Y-77804819D02*
X86119047Y-78804819D01*
X131654819Y-44366666D02*
X132369104Y-44366666D01*
X132369104Y-44366666D02*
X132511961Y-44319047D01*
X132511961Y-44319047D02*
X132607200Y-44223809D01*
X132607200Y-44223809D02*
X132654819Y-44080952D01*
X132654819Y-44080952D02*
X132654819Y-43985714D01*
X132654819Y-44842857D02*
X131654819Y-44842857D01*
X131654819Y-44842857D02*
X131654819Y-45223809D01*
X131654819Y-45223809D02*
X131702438Y-45319047D01*
X131702438Y-45319047D02*
X131750057Y-45366666D01*
X131750057Y-45366666D02*
X131845295Y-45414285D01*
X131845295Y-45414285D02*
X131988152Y-45414285D01*
X131988152Y-45414285D02*
X132083390Y-45366666D01*
X132083390Y-45366666D02*
X132131009Y-45319047D01*
X132131009Y-45319047D02*
X132178628Y-45223809D01*
X132178628Y-45223809D02*
X132178628Y-44842857D01*
X132654819Y-46366666D02*
X132654819Y-45795238D01*
X132654819Y-46080952D02*
X131654819Y-46080952D01*
X131654819Y-46080952D02*
X131797676Y-45985714D01*
X131797676Y-45985714D02*
X131892914Y-45890476D01*
X131892914Y-45890476D02*
X131940533Y-45795238D01*
X108642857Y-78804819D02*
X108976190Y-78328628D01*
X109214285Y-78804819D02*
X109214285Y-77804819D01*
X109214285Y-77804819D02*
X108833333Y-77804819D01*
X108833333Y-77804819D02*
X108738095Y-77852438D01*
X108738095Y-77852438D02*
X108690476Y-77900057D01*
X108690476Y-77900057D02*
X108642857Y-77995295D01*
X108642857Y-77995295D02*
X108642857Y-78138152D01*
X108642857Y-78138152D02*
X108690476Y-78233390D01*
X108690476Y-78233390D02*
X108738095Y-78281009D01*
X108738095Y-78281009D02*
X108833333Y-78328628D01*
X108833333Y-78328628D02*
X109214285Y-78328628D01*
X108261904Y-77900057D02*
X108214285Y-77852438D01*
X108214285Y-77852438D02*
X108119047Y-77804819D01*
X108119047Y-77804819D02*
X107880952Y-77804819D01*
X107880952Y-77804819D02*
X107785714Y-77852438D01*
X107785714Y-77852438D02*
X107738095Y-77900057D01*
X107738095Y-77900057D02*
X107690476Y-77995295D01*
X107690476Y-77995295D02*
X107690476Y-78090533D01*
X107690476Y-78090533D02*
X107738095Y-78233390D01*
X107738095Y-78233390D02*
X108309523Y-78804819D01*
X108309523Y-78804819D02*
X107690476Y-78804819D01*
X107309523Y-77900057D02*
X107261904Y-77852438D01*
X107261904Y-77852438D02*
X107166666Y-77804819D01*
X107166666Y-77804819D02*
X106928571Y-77804819D01*
X106928571Y-77804819D02*
X106833333Y-77852438D01*
X106833333Y-77852438D02*
X106785714Y-77900057D01*
X106785714Y-77900057D02*
X106738095Y-77995295D01*
X106738095Y-77995295D02*
X106738095Y-78090533D01*
X106738095Y-78090533D02*
X106785714Y-78233390D01*
X106785714Y-78233390D02*
X107357142Y-78804819D01*
X107357142Y-78804819D02*
X106738095Y-78804819D01*
X145042857Y-126879580D02*
X145090476Y-126927200D01*
X145090476Y-126927200D02*
X145233333Y-126974819D01*
X145233333Y-126974819D02*
X145328571Y-126974819D01*
X145328571Y-126974819D02*
X145471428Y-126927200D01*
X145471428Y-126927200D02*
X145566666Y-126831961D01*
X145566666Y-126831961D02*
X145614285Y-126736723D01*
X145614285Y-126736723D02*
X145661904Y-126546247D01*
X145661904Y-126546247D02*
X145661904Y-126403390D01*
X145661904Y-126403390D02*
X145614285Y-126212914D01*
X145614285Y-126212914D02*
X145566666Y-126117676D01*
X145566666Y-126117676D02*
X145471428Y-126022438D01*
X145471428Y-126022438D02*
X145328571Y-125974819D01*
X145328571Y-125974819D02*
X145233333Y-125974819D01*
X145233333Y-125974819D02*
X145090476Y-126022438D01*
X145090476Y-126022438D02*
X145042857Y-126070057D01*
X144090476Y-126974819D02*
X144661904Y-126974819D01*
X144376190Y-126974819D02*
X144376190Y-125974819D01*
X144376190Y-125974819D02*
X144471428Y-126117676D01*
X144471428Y-126117676D02*
X144566666Y-126212914D01*
X144566666Y-126212914D02*
X144661904Y-126260533D01*
X143757142Y-125974819D02*
X143138095Y-125974819D01*
X143138095Y-125974819D02*
X143471428Y-126355771D01*
X143471428Y-126355771D02*
X143328571Y-126355771D01*
X143328571Y-126355771D02*
X143233333Y-126403390D01*
X143233333Y-126403390D02*
X143185714Y-126451009D01*
X143185714Y-126451009D02*
X143138095Y-126546247D01*
X143138095Y-126546247D02*
X143138095Y-126784342D01*
X143138095Y-126784342D02*
X143185714Y-126879580D01*
X143185714Y-126879580D02*
X143233333Y-126927200D01*
X143233333Y-126927200D02*
X143328571Y-126974819D01*
X143328571Y-126974819D02*
X143614285Y-126974819D01*
X143614285Y-126974819D02*
X143709523Y-126927200D01*
X143709523Y-126927200D02*
X143757142Y-126879580D01*
X132454819Y-40833333D02*
X131978628Y-40500000D01*
X132454819Y-40261905D02*
X131454819Y-40261905D01*
X131454819Y-40261905D02*
X131454819Y-40642857D01*
X131454819Y-40642857D02*
X131502438Y-40738095D01*
X131502438Y-40738095D02*
X131550057Y-40785714D01*
X131550057Y-40785714D02*
X131645295Y-40833333D01*
X131645295Y-40833333D02*
X131788152Y-40833333D01*
X131788152Y-40833333D02*
X131883390Y-40785714D01*
X131883390Y-40785714D02*
X131931009Y-40738095D01*
X131931009Y-40738095D02*
X131978628Y-40642857D01*
X131978628Y-40642857D02*
X131978628Y-40261905D01*
X131550057Y-41214286D02*
X131502438Y-41261905D01*
X131502438Y-41261905D02*
X131454819Y-41357143D01*
X131454819Y-41357143D02*
X131454819Y-41595238D01*
X131454819Y-41595238D02*
X131502438Y-41690476D01*
X131502438Y-41690476D02*
X131550057Y-41738095D01*
X131550057Y-41738095D02*
X131645295Y-41785714D01*
X131645295Y-41785714D02*
X131740533Y-41785714D01*
X131740533Y-41785714D02*
X131883390Y-41738095D01*
X131883390Y-41738095D02*
X132454819Y-41166667D01*
X132454819Y-41166667D02*
X132454819Y-41785714D01*
X132454819Y-125890476D02*
X133169104Y-125890476D01*
X133169104Y-125890476D02*
X133311961Y-125842857D01*
X133311961Y-125842857D02*
X133407200Y-125747619D01*
X133407200Y-125747619D02*
X133454819Y-125604762D01*
X133454819Y-125604762D02*
X133454819Y-125509524D01*
X133454819Y-126366667D02*
X132454819Y-126366667D01*
X132454819Y-126366667D02*
X132454819Y-126747619D01*
X132454819Y-126747619D02*
X132502438Y-126842857D01*
X132502438Y-126842857D02*
X132550057Y-126890476D01*
X132550057Y-126890476D02*
X132645295Y-126938095D01*
X132645295Y-126938095D02*
X132788152Y-126938095D01*
X132788152Y-126938095D02*
X132883390Y-126890476D01*
X132883390Y-126890476D02*
X132931009Y-126842857D01*
X132931009Y-126842857D02*
X132978628Y-126747619D01*
X132978628Y-126747619D02*
X132978628Y-126366667D01*
X133454819Y-127890476D02*
X133454819Y-127319048D01*
X133454819Y-127604762D02*
X132454819Y-127604762D01*
X132454819Y-127604762D02*
X132597676Y-127509524D01*
X132597676Y-127509524D02*
X132692914Y-127414286D01*
X132692914Y-127414286D02*
X132740533Y-127319048D01*
X132454819Y-128509524D02*
X132454819Y-128604762D01*
X132454819Y-128604762D02*
X132502438Y-128700000D01*
X132502438Y-128700000D02*
X132550057Y-128747619D01*
X132550057Y-128747619D02*
X132645295Y-128795238D01*
X132645295Y-128795238D02*
X132835771Y-128842857D01*
X132835771Y-128842857D02*
X133073866Y-128842857D01*
X133073866Y-128842857D02*
X133264342Y-128795238D01*
X133264342Y-128795238D02*
X133359580Y-128747619D01*
X133359580Y-128747619D02*
X133407200Y-128700000D01*
X133407200Y-128700000D02*
X133454819Y-128604762D01*
X133454819Y-128604762D02*
X133454819Y-128509524D01*
X133454819Y-128509524D02*
X133407200Y-128414286D01*
X133407200Y-128414286D02*
X133359580Y-128366667D01*
X133359580Y-128366667D02*
X133264342Y-128319048D01*
X133264342Y-128319048D02*
X133073866Y-128271429D01*
X133073866Y-128271429D02*
X132835771Y-128271429D01*
X132835771Y-128271429D02*
X132645295Y-128319048D01*
X132645295Y-128319048D02*
X132550057Y-128366667D01*
X132550057Y-128366667D02*
X132502438Y-128414286D01*
X132502438Y-128414286D02*
X132454819Y-128509524D01*
X108642857Y-100004819D02*
X108976190Y-99528628D01*
X109214285Y-100004819D02*
X109214285Y-99004819D01*
X109214285Y-99004819D02*
X108833333Y-99004819D01*
X108833333Y-99004819D02*
X108738095Y-99052438D01*
X108738095Y-99052438D02*
X108690476Y-99100057D01*
X108690476Y-99100057D02*
X108642857Y-99195295D01*
X108642857Y-99195295D02*
X108642857Y-99338152D01*
X108642857Y-99338152D02*
X108690476Y-99433390D01*
X108690476Y-99433390D02*
X108738095Y-99481009D01*
X108738095Y-99481009D02*
X108833333Y-99528628D01*
X108833333Y-99528628D02*
X109214285Y-99528628D01*
X108261904Y-99100057D02*
X108214285Y-99052438D01*
X108214285Y-99052438D02*
X108119047Y-99004819D01*
X108119047Y-99004819D02*
X107880952Y-99004819D01*
X107880952Y-99004819D02*
X107785714Y-99052438D01*
X107785714Y-99052438D02*
X107738095Y-99100057D01*
X107738095Y-99100057D02*
X107690476Y-99195295D01*
X107690476Y-99195295D02*
X107690476Y-99290533D01*
X107690476Y-99290533D02*
X107738095Y-99433390D01*
X107738095Y-99433390D02*
X108309523Y-100004819D01*
X108309523Y-100004819D02*
X107690476Y-100004819D01*
X106833333Y-99338152D02*
X106833333Y-100004819D01*
X107071428Y-98957200D02*
X107309523Y-99671485D01*
X107309523Y-99671485D02*
X106690476Y-99671485D01*
X90454819Y-105366666D02*
X91169104Y-105366666D01*
X91169104Y-105366666D02*
X91311961Y-105319047D01*
X91311961Y-105319047D02*
X91407200Y-105223809D01*
X91407200Y-105223809D02*
X91454819Y-105080952D01*
X91454819Y-105080952D02*
X91454819Y-104985714D01*
X91454819Y-105842857D02*
X90454819Y-105842857D01*
X90454819Y-105842857D02*
X90454819Y-106223809D01*
X90454819Y-106223809D02*
X90502438Y-106319047D01*
X90502438Y-106319047D02*
X90550057Y-106366666D01*
X90550057Y-106366666D02*
X90645295Y-106414285D01*
X90645295Y-106414285D02*
X90788152Y-106414285D01*
X90788152Y-106414285D02*
X90883390Y-106366666D01*
X90883390Y-106366666D02*
X90931009Y-106319047D01*
X90931009Y-106319047D02*
X90978628Y-106223809D01*
X90978628Y-106223809D02*
X90978628Y-105842857D01*
X90454819Y-106747619D02*
X90454819Y-107366666D01*
X90454819Y-107366666D02*
X90835771Y-107033333D01*
X90835771Y-107033333D02*
X90835771Y-107176190D01*
X90835771Y-107176190D02*
X90883390Y-107271428D01*
X90883390Y-107271428D02*
X90931009Y-107319047D01*
X90931009Y-107319047D02*
X91026247Y-107366666D01*
X91026247Y-107366666D02*
X91264342Y-107366666D01*
X91264342Y-107366666D02*
X91359580Y-107319047D01*
X91359580Y-107319047D02*
X91407200Y-107271428D01*
X91407200Y-107271428D02*
X91454819Y-107176190D01*
X91454819Y-107176190D02*
X91454819Y-106890476D01*
X91454819Y-106890476D02*
X91407200Y-106795238D01*
X91407200Y-106795238D02*
X91359580Y-106747619D01*
X102566666Y-126879580D02*
X102614285Y-126927200D01*
X102614285Y-126927200D02*
X102757142Y-126974819D01*
X102757142Y-126974819D02*
X102852380Y-126974819D01*
X102852380Y-126974819D02*
X102995237Y-126927200D01*
X102995237Y-126927200D02*
X103090475Y-126831961D01*
X103090475Y-126831961D02*
X103138094Y-126736723D01*
X103138094Y-126736723D02*
X103185713Y-126546247D01*
X103185713Y-126546247D02*
X103185713Y-126403390D01*
X103185713Y-126403390D02*
X103138094Y-126212914D01*
X103138094Y-126212914D02*
X103090475Y-126117676D01*
X103090475Y-126117676D02*
X102995237Y-126022438D01*
X102995237Y-126022438D02*
X102852380Y-125974819D01*
X102852380Y-125974819D02*
X102757142Y-125974819D01*
X102757142Y-125974819D02*
X102614285Y-126022438D01*
X102614285Y-126022438D02*
X102566666Y-126070057D01*
X102233332Y-125974819D02*
X101566666Y-125974819D01*
X101566666Y-125974819D02*
X101995237Y-126974819D01*
X84804819Y-126557142D02*
X84328628Y-126223809D01*
X84804819Y-125985714D02*
X83804819Y-125985714D01*
X83804819Y-125985714D02*
X83804819Y-126366666D01*
X83804819Y-126366666D02*
X83852438Y-126461904D01*
X83852438Y-126461904D02*
X83900057Y-126509523D01*
X83900057Y-126509523D02*
X83995295Y-126557142D01*
X83995295Y-126557142D02*
X84138152Y-126557142D01*
X84138152Y-126557142D02*
X84233390Y-126509523D01*
X84233390Y-126509523D02*
X84281009Y-126461904D01*
X84281009Y-126461904D02*
X84328628Y-126366666D01*
X84328628Y-126366666D02*
X84328628Y-125985714D01*
X83900057Y-126938095D02*
X83852438Y-126985714D01*
X83852438Y-126985714D02*
X83804819Y-127080952D01*
X83804819Y-127080952D02*
X83804819Y-127319047D01*
X83804819Y-127319047D02*
X83852438Y-127414285D01*
X83852438Y-127414285D02*
X83900057Y-127461904D01*
X83900057Y-127461904D02*
X83995295Y-127509523D01*
X83995295Y-127509523D02*
X84090533Y-127509523D01*
X84090533Y-127509523D02*
X84233390Y-127461904D01*
X84233390Y-127461904D02*
X84804819Y-126890476D01*
X84804819Y-126890476D02*
X84804819Y-127509523D01*
X84804819Y-128461904D02*
X84804819Y-127890476D01*
X84804819Y-128176190D02*
X83804819Y-128176190D01*
X83804819Y-128176190D02*
X83947676Y-128080952D01*
X83947676Y-128080952D02*
X84042914Y-127985714D01*
X84042914Y-127985714D02*
X84090533Y-127890476D01*
X105804819Y-84557142D02*
X105328628Y-84223809D01*
X105804819Y-83985714D02*
X104804819Y-83985714D01*
X104804819Y-83985714D02*
X104804819Y-84366666D01*
X104804819Y-84366666D02*
X104852438Y-84461904D01*
X104852438Y-84461904D02*
X104900057Y-84509523D01*
X104900057Y-84509523D02*
X104995295Y-84557142D01*
X104995295Y-84557142D02*
X105138152Y-84557142D01*
X105138152Y-84557142D02*
X105233390Y-84509523D01*
X105233390Y-84509523D02*
X105281009Y-84461904D01*
X105281009Y-84461904D02*
X105328628Y-84366666D01*
X105328628Y-84366666D02*
X105328628Y-83985714D01*
X104900057Y-84938095D02*
X104852438Y-84985714D01*
X104852438Y-84985714D02*
X104804819Y-85080952D01*
X104804819Y-85080952D02*
X104804819Y-85319047D01*
X104804819Y-85319047D02*
X104852438Y-85414285D01*
X104852438Y-85414285D02*
X104900057Y-85461904D01*
X104900057Y-85461904D02*
X104995295Y-85509523D01*
X104995295Y-85509523D02*
X105090533Y-85509523D01*
X105090533Y-85509523D02*
X105233390Y-85461904D01*
X105233390Y-85461904D02*
X105804819Y-84890476D01*
X105804819Y-84890476D02*
X105804819Y-85509523D01*
X104804819Y-85842857D02*
X104804819Y-86461904D01*
X104804819Y-86461904D02*
X105185771Y-86128571D01*
X105185771Y-86128571D02*
X105185771Y-86271428D01*
X105185771Y-86271428D02*
X105233390Y-86366666D01*
X105233390Y-86366666D02*
X105281009Y-86414285D01*
X105281009Y-86414285D02*
X105376247Y-86461904D01*
X105376247Y-86461904D02*
X105614342Y-86461904D01*
X105614342Y-86461904D02*
X105709580Y-86414285D01*
X105709580Y-86414285D02*
X105757200Y-86366666D01*
X105757200Y-86366666D02*
X105804819Y-86271428D01*
X105804819Y-86271428D02*
X105804819Y-85985714D01*
X105804819Y-85985714D02*
X105757200Y-85890476D01*
X105757200Y-85890476D02*
X105709580Y-85842857D01*
X97454819Y-61090476D02*
X98169104Y-61090476D01*
X98169104Y-61090476D02*
X98311961Y-61042857D01*
X98311961Y-61042857D02*
X98407200Y-60947619D01*
X98407200Y-60947619D02*
X98454819Y-60804762D01*
X98454819Y-60804762D02*
X98454819Y-60709524D01*
X98454819Y-61566667D02*
X97454819Y-61566667D01*
X97454819Y-61566667D02*
X97454819Y-61947619D01*
X97454819Y-61947619D02*
X97502438Y-62042857D01*
X97502438Y-62042857D02*
X97550057Y-62090476D01*
X97550057Y-62090476D02*
X97645295Y-62138095D01*
X97645295Y-62138095D02*
X97788152Y-62138095D01*
X97788152Y-62138095D02*
X97883390Y-62090476D01*
X97883390Y-62090476D02*
X97931009Y-62042857D01*
X97931009Y-62042857D02*
X97978628Y-61947619D01*
X97978628Y-61947619D02*
X97978628Y-61566667D01*
X98454819Y-63090476D02*
X98454819Y-62519048D01*
X98454819Y-62804762D02*
X97454819Y-62804762D01*
X97454819Y-62804762D02*
X97597676Y-62709524D01*
X97597676Y-62709524D02*
X97692914Y-62614286D01*
X97692914Y-62614286D02*
X97740533Y-62519048D01*
X97788152Y-63947619D02*
X98454819Y-63947619D01*
X97407200Y-63709524D02*
X98121485Y-63471429D01*
X98121485Y-63471429D02*
X98121485Y-64090476D01*
X84804819Y-84557142D02*
X84328628Y-84223809D01*
X84804819Y-83985714D02*
X83804819Y-83985714D01*
X83804819Y-83985714D02*
X83804819Y-84366666D01*
X83804819Y-84366666D02*
X83852438Y-84461904D01*
X83852438Y-84461904D02*
X83900057Y-84509523D01*
X83900057Y-84509523D02*
X83995295Y-84557142D01*
X83995295Y-84557142D02*
X84138152Y-84557142D01*
X84138152Y-84557142D02*
X84233390Y-84509523D01*
X84233390Y-84509523D02*
X84281009Y-84461904D01*
X84281009Y-84461904D02*
X84328628Y-84366666D01*
X84328628Y-84366666D02*
X84328628Y-83985714D01*
X84804819Y-85509523D02*
X84804819Y-84938095D01*
X84804819Y-85223809D02*
X83804819Y-85223809D01*
X83804819Y-85223809D02*
X83947676Y-85128571D01*
X83947676Y-85128571D02*
X84042914Y-85033333D01*
X84042914Y-85033333D02*
X84090533Y-84938095D01*
X83804819Y-86366666D02*
X83804819Y-86176190D01*
X83804819Y-86176190D02*
X83852438Y-86080952D01*
X83852438Y-86080952D02*
X83900057Y-86033333D01*
X83900057Y-86033333D02*
X84042914Y-85938095D01*
X84042914Y-85938095D02*
X84233390Y-85890476D01*
X84233390Y-85890476D02*
X84614342Y-85890476D01*
X84614342Y-85890476D02*
X84709580Y-85938095D01*
X84709580Y-85938095D02*
X84757200Y-85985714D01*
X84757200Y-85985714D02*
X84804819Y-86080952D01*
X84804819Y-86080952D02*
X84804819Y-86271428D01*
X84804819Y-86271428D02*
X84757200Y-86366666D01*
X84757200Y-86366666D02*
X84709580Y-86414285D01*
X84709580Y-86414285D02*
X84614342Y-86461904D01*
X84614342Y-86461904D02*
X84376247Y-86461904D01*
X84376247Y-86461904D02*
X84281009Y-86414285D01*
X84281009Y-86414285D02*
X84233390Y-86366666D01*
X84233390Y-86366666D02*
X84185771Y-86271428D01*
X84185771Y-86271428D02*
X84185771Y-86080952D01*
X84185771Y-86080952D02*
X84233390Y-85985714D01*
X84233390Y-85985714D02*
X84281009Y-85938095D01*
X84281009Y-85938095D02*
X84376247Y-85890476D01*
X132454819Y-105366666D02*
X133169104Y-105366666D01*
X133169104Y-105366666D02*
X133311961Y-105319047D01*
X133311961Y-105319047D02*
X133407200Y-105223809D01*
X133407200Y-105223809D02*
X133454819Y-105080952D01*
X133454819Y-105080952D02*
X133454819Y-104985714D01*
X133454819Y-105842857D02*
X132454819Y-105842857D01*
X132454819Y-105842857D02*
X132454819Y-106223809D01*
X132454819Y-106223809D02*
X132502438Y-106319047D01*
X132502438Y-106319047D02*
X132550057Y-106366666D01*
X132550057Y-106366666D02*
X132645295Y-106414285D01*
X132645295Y-106414285D02*
X132788152Y-106414285D01*
X132788152Y-106414285D02*
X132883390Y-106366666D01*
X132883390Y-106366666D02*
X132931009Y-106319047D01*
X132931009Y-106319047D02*
X132978628Y-106223809D01*
X132978628Y-106223809D02*
X132978628Y-105842857D01*
X133454819Y-106890476D02*
X133454819Y-107080952D01*
X133454819Y-107080952D02*
X133407200Y-107176190D01*
X133407200Y-107176190D02*
X133359580Y-107223809D01*
X133359580Y-107223809D02*
X133216723Y-107319047D01*
X133216723Y-107319047D02*
X133026247Y-107366666D01*
X133026247Y-107366666D02*
X132645295Y-107366666D01*
X132645295Y-107366666D02*
X132550057Y-107319047D01*
X132550057Y-107319047D02*
X132502438Y-107271428D01*
X132502438Y-107271428D02*
X132454819Y-107176190D01*
X132454819Y-107176190D02*
X132454819Y-106985714D01*
X132454819Y-106985714D02*
X132502438Y-106890476D01*
X132502438Y-106890476D02*
X132550057Y-106842857D01*
X132550057Y-106842857D02*
X132645295Y-106795238D01*
X132645295Y-106795238D02*
X132883390Y-106795238D01*
X132883390Y-106795238D02*
X132978628Y-106842857D01*
X132978628Y-106842857D02*
X133026247Y-106890476D01*
X133026247Y-106890476D02*
X133073866Y-106985714D01*
X133073866Y-106985714D02*
X133073866Y-107176190D01*
X133073866Y-107176190D02*
X133026247Y-107271428D01*
X133026247Y-107271428D02*
X132978628Y-107319047D01*
X132978628Y-107319047D02*
X132883390Y-107366666D01*
X91166666Y-65759580D02*
X91214285Y-65807200D01*
X91214285Y-65807200D02*
X91357142Y-65854819D01*
X91357142Y-65854819D02*
X91452380Y-65854819D01*
X91452380Y-65854819D02*
X91595237Y-65807200D01*
X91595237Y-65807200D02*
X91690475Y-65711961D01*
X91690475Y-65711961D02*
X91738094Y-65616723D01*
X91738094Y-65616723D02*
X91785713Y-65426247D01*
X91785713Y-65426247D02*
X91785713Y-65283390D01*
X91785713Y-65283390D02*
X91738094Y-65092914D01*
X91738094Y-65092914D02*
X91690475Y-64997676D01*
X91690475Y-64997676D02*
X91595237Y-64902438D01*
X91595237Y-64902438D02*
X91452380Y-64854819D01*
X91452380Y-64854819D02*
X91357142Y-64854819D01*
X91357142Y-64854819D02*
X91214285Y-64902438D01*
X91214285Y-64902438D02*
X91166666Y-64950057D01*
X90214285Y-65854819D02*
X90785713Y-65854819D01*
X90499999Y-65854819D02*
X90499999Y-64854819D01*
X90499999Y-64854819D02*
X90595237Y-64997676D01*
X90595237Y-64997676D02*
X90690475Y-65092914D01*
X90690475Y-65092914D02*
X90785713Y-65140533D01*
X102566666Y-84879580D02*
X102614285Y-84927200D01*
X102614285Y-84927200D02*
X102757142Y-84974819D01*
X102757142Y-84974819D02*
X102852380Y-84974819D01*
X102852380Y-84974819D02*
X102995237Y-84927200D01*
X102995237Y-84927200D02*
X103090475Y-84831961D01*
X103090475Y-84831961D02*
X103138094Y-84736723D01*
X103138094Y-84736723D02*
X103185713Y-84546247D01*
X103185713Y-84546247D02*
X103185713Y-84403390D01*
X103185713Y-84403390D02*
X103138094Y-84212914D01*
X103138094Y-84212914D02*
X103090475Y-84117676D01*
X103090475Y-84117676D02*
X102995237Y-84022438D01*
X102995237Y-84022438D02*
X102852380Y-83974819D01*
X102852380Y-83974819D02*
X102757142Y-83974819D01*
X102757142Y-83974819D02*
X102614285Y-84022438D01*
X102614285Y-84022438D02*
X102566666Y-84070057D01*
X101661904Y-83974819D02*
X102138094Y-83974819D01*
X102138094Y-83974819D02*
X102185713Y-84451009D01*
X102185713Y-84451009D02*
X102138094Y-84403390D01*
X102138094Y-84403390D02*
X102042856Y-84355771D01*
X102042856Y-84355771D02*
X101804761Y-84355771D01*
X101804761Y-84355771D02*
X101709523Y-84403390D01*
X101709523Y-84403390D02*
X101661904Y-84451009D01*
X101661904Y-84451009D02*
X101614285Y-84546247D01*
X101614285Y-84546247D02*
X101614285Y-84784342D01*
X101614285Y-84784342D02*
X101661904Y-84879580D01*
X101661904Y-84879580D02*
X101709523Y-84927200D01*
X101709523Y-84927200D02*
X101804761Y-84974819D01*
X101804761Y-84974819D02*
X102042856Y-84974819D01*
X102042856Y-84974819D02*
X102138094Y-84927200D01*
X102138094Y-84927200D02*
X102185713Y-84879580D01*
X102566666Y-105879580D02*
X102614285Y-105927200D01*
X102614285Y-105927200D02*
X102757142Y-105974819D01*
X102757142Y-105974819D02*
X102852380Y-105974819D01*
X102852380Y-105974819D02*
X102995237Y-105927200D01*
X102995237Y-105927200D02*
X103090475Y-105831961D01*
X103090475Y-105831961D02*
X103138094Y-105736723D01*
X103138094Y-105736723D02*
X103185713Y-105546247D01*
X103185713Y-105546247D02*
X103185713Y-105403390D01*
X103185713Y-105403390D02*
X103138094Y-105212914D01*
X103138094Y-105212914D02*
X103090475Y-105117676D01*
X103090475Y-105117676D02*
X102995237Y-105022438D01*
X102995237Y-105022438D02*
X102852380Y-104974819D01*
X102852380Y-104974819D02*
X102757142Y-104974819D01*
X102757142Y-104974819D02*
X102614285Y-105022438D01*
X102614285Y-105022438D02*
X102566666Y-105070057D01*
X101709523Y-104974819D02*
X101899999Y-104974819D01*
X101899999Y-104974819D02*
X101995237Y-105022438D01*
X101995237Y-105022438D02*
X102042856Y-105070057D01*
X102042856Y-105070057D02*
X102138094Y-105212914D01*
X102138094Y-105212914D02*
X102185713Y-105403390D01*
X102185713Y-105403390D02*
X102185713Y-105784342D01*
X102185713Y-105784342D02*
X102138094Y-105879580D01*
X102138094Y-105879580D02*
X102090475Y-105927200D01*
X102090475Y-105927200D02*
X101995237Y-105974819D01*
X101995237Y-105974819D02*
X101804761Y-105974819D01*
X101804761Y-105974819D02*
X101709523Y-105927200D01*
X101709523Y-105927200D02*
X101661904Y-105879580D01*
X101661904Y-105879580D02*
X101614285Y-105784342D01*
X101614285Y-105784342D02*
X101614285Y-105546247D01*
X101614285Y-105546247D02*
X101661904Y-105451009D01*
X101661904Y-105451009D02*
X101709523Y-105403390D01*
X101709523Y-105403390D02*
X101804761Y-105355771D01*
X101804761Y-105355771D02*
X101995237Y-105355771D01*
X101995237Y-105355771D02*
X102090475Y-105403390D01*
X102090475Y-105403390D02*
X102138094Y-105451009D01*
X102138094Y-105451009D02*
X102185713Y-105546247D01*
X81566666Y-84879580D02*
X81614285Y-84927200D01*
X81614285Y-84927200D02*
X81757142Y-84974819D01*
X81757142Y-84974819D02*
X81852380Y-84974819D01*
X81852380Y-84974819D02*
X81995237Y-84927200D01*
X81995237Y-84927200D02*
X82090475Y-84831961D01*
X82090475Y-84831961D02*
X82138094Y-84736723D01*
X82138094Y-84736723D02*
X82185713Y-84546247D01*
X82185713Y-84546247D02*
X82185713Y-84403390D01*
X82185713Y-84403390D02*
X82138094Y-84212914D01*
X82138094Y-84212914D02*
X82090475Y-84117676D01*
X82090475Y-84117676D02*
X81995237Y-84022438D01*
X81995237Y-84022438D02*
X81852380Y-83974819D01*
X81852380Y-83974819D02*
X81757142Y-83974819D01*
X81757142Y-83974819D02*
X81614285Y-84022438D01*
X81614285Y-84022438D02*
X81566666Y-84070057D01*
X81185713Y-84070057D02*
X81138094Y-84022438D01*
X81138094Y-84022438D02*
X81042856Y-83974819D01*
X81042856Y-83974819D02*
X80804761Y-83974819D01*
X80804761Y-83974819D02*
X80709523Y-84022438D01*
X80709523Y-84022438D02*
X80661904Y-84070057D01*
X80661904Y-84070057D02*
X80614285Y-84165295D01*
X80614285Y-84165295D02*
X80614285Y-84260533D01*
X80614285Y-84260533D02*
X80661904Y-84403390D01*
X80661904Y-84403390D02*
X81233332Y-84974819D01*
X81233332Y-84974819D02*
X80614285Y-84974819D01*
X132654819Y-84366666D02*
X133369104Y-84366666D01*
X133369104Y-84366666D02*
X133511961Y-84319047D01*
X133511961Y-84319047D02*
X133607200Y-84223809D01*
X133607200Y-84223809D02*
X133654819Y-84080952D01*
X133654819Y-84080952D02*
X133654819Y-83985714D01*
X133654819Y-84842857D02*
X132654819Y-84842857D01*
X132654819Y-84842857D02*
X132654819Y-85223809D01*
X132654819Y-85223809D02*
X132702438Y-85319047D01*
X132702438Y-85319047D02*
X132750057Y-85366666D01*
X132750057Y-85366666D02*
X132845295Y-85414285D01*
X132845295Y-85414285D02*
X132988152Y-85414285D01*
X132988152Y-85414285D02*
X133083390Y-85366666D01*
X133083390Y-85366666D02*
X133131009Y-85319047D01*
X133131009Y-85319047D02*
X133178628Y-85223809D01*
X133178628Y-85223809D02*
X133178628Y-84842857D01*
X133083390Y-85985714D02*
X133035771Y-85890476D01*
X133035771Y-85890476D02*
X132988152Y-85842857D01*
X132988152Y-85842857D02*
X132892914Y-85795238D01*
X132892914Y-85795238D02*
X132845295Y-85795238D01*
X132845295Y-85795238D02*
X132750057Y-85842857D01*
X132750057Y-85842857D02*
X132702438Y-85890476D01*
X132702438Y-85890476D02*
X132654819Y-85985714D01*
X132654819Y-85985714D02*
X132654819Y-86176190D01*
X132654819Y-86176190D02*
X132702438Y-86271428D01*
X132702438Y-86271428D02*
X132750057Y-86319047D01*
X132750057Y-86319047D02*
X132845295Y-86366666D01*
X132845295Y-86366666D02*
X132892914Y-86366666D01*
X132892914Y-86366666D02*
X132988152Y-86319047D01*
X132988152Y-86319047D02*
X133035771Y-86271428D01*
X133035771Y-86271428D02*
X133083390Y-86176190D01*
X133083390Y-86176190D02*
X133083390Y-85985714D01*
X133083390Y-85985714D02*
X133131009Y-85890476D01*
X133131009Y-85890476D02*
X133178628Y-85842857D01*
X133178628Y-85842857D02*
X133273866Y-85795238D01*
X133273866Y-85795238D02*
X133464342Y-85795238D01*
X133464342Y-85795238D02*
X133559580Y-85842857D01*
X133559580Y-85842857D02*
X133607200Y-85890476D01*
X133607200Y-85890476D02*
X133654819Y-85985714D01*
X133654819Y-85985714D02*
X133654819Y-86176190D01*
X133654819Y-86176190D02*
X133607200Y-86271428D01*
X133607200Y-86271428D02*
X133559580Y-86319047D01*
X133559580Y-86319047D02*
X133464342Y-86366666D01*
X133464342Y-86366666D02*
X133273866Y-86366666D01*
X133273866Y-86366666D02*
X133178628Y-86319047D01*
X133178628Y-86319047D02*
X133131009Y-86271428D01*
X133131009Y-86271428D02*
X133083390Y-86176190D01*
X87642857Y-120804819D02*
X87976190Y-120328628D01*
X88214285Y-120804819D02*
X88214285Y-119804819D01*
X88214285Y-119804819D02*
X87833333Y-119804819D01*
X87833333Y-119804819D02*
X87738095Y-119852438D01*
X87738095Y-119852438D02*
X87690476Y-119900057D01*
X87690476Y-119900057D02*
X87642857Y-119995295D01*
X87642857Y-119995295D02*
X87642857Y-120138152D01*
X87642857Y-120138152D02*
X87690476Y-120233390D01*
X87690476Y-120233390D02*
X87738095Y-120281009D01*
X87738095Y-120281009D02*
X87833333Y-120328628D01*
X87833333Y-120328628D02*
X88214285Y-120328628D01*
X87261904Y-119900057D02*
X87214285Y-119852438D01*
X87214285Y-119852438D02*
X87119047Y-119804819D01*
X87119047Y-119804819D02*
X86880952Y-119804819D01*
X86880952Y-119804819D02*
X86785714Y-119852438D01*
X86785714Y-119852438D02*
X86738095Y-119900057D01*
X86738095Y-119900057D02*
X86690476Y-119995295D01*
X86690476Y-119995295D02*
X86690476Y-120090533D01*
X86690476Y-120090533D02*
X86738095Y-120233390D01*
X86738095Y-120233390D02*
X87309523Y-120804819D01*
X87309523Y-120804819D02*
X86690476Y-120804819D01*
X86071428Y-119804819D02*
X85976190Y-119804819D01*
X85976190Y-119804819D02*
X85880952Y-119852438D01*
X85880952Y-119852438D02*
X85833333Y-119900057D01*
X85833333Y-119900057D02*
X85785714Y-119995295D01*
X85785714Y-119995295D02*
X85738095Y-120185771D01*
X85738095Y-120185771D02*
X85738095Y-120423866D01*
X85738095Y-120423866D02*
X85785714Y-120614342D01*
X85785714Y-120614342D02*
X85833333Y-120709580D01*
X85833333Y-120709580D02*
X85880952Y-120757200D01*
X85880952Y-120757200D02*
X85976190Y-120804819D01*
X85976190Y-120804819D02*
X86071428Y-120804819D01*
X86071428Y-120804819D02*
X86166666Y-120757200D01*
X86166666Y-120757200D02*
X86214285Y-120709580D01*
X86214285Y-120709580D02*
X86261904Y-120614342D01*
X86261904Y-120614342D02*
X86309523Y-120423866D01*
X86309523Y-120423866D02*
X86309523Y-120185771D01*
X86309523Y-120185771D02*
X86261904Y-119995295D01*
X86261904Y-119995295D02*
X86214285Y-119900057D01*
X86214285Y-119900057D02*
X86166666Y-119852438D01*
X86166666Y-119852438D02*
X86071428Y-119804819D01*
X145042857Y-84879580D02*
X145090476Y-84927200D01*
X145090476Y-84927200D02*
X145233333Y-84974819D01*
X145233333Y-84974819D02*
X145328571Y-84974819D01*
X145328571Y-84974819D02*
X145471428Y-84927200D01*
X145471428Y-84927200D02*
X145566666Y-84831961D01*
X145566666Y-84831961D02*
X145614285Y-84736723D01*
X145614285Y-84736723D02*
X145661904Y-84546247D01*
X145661904Y-84546247D02*
X145661904Y-84403390D01*
X145661904Y-84403390D02*
X145614285Y-84212914D01*
X145614285Y-84212914D02*
X145566666Y-84117676D01*
X145566666Y-84117676D02*
X145471428Y-84022438D01*
X145471428Y-84022438D02*
X145328571Y-83974819D01*
X145328571Y-83974819D02*
X145233333Y-83974819D01*
X145233333Y-83974819D02*
X145090476Y-84022438D01*
X145090476Y-84022438D02*
X145042857Y-84070057D01*
X144090476Y-84974819D02*
X144661904Y-84974819D01*
X144376190Y-84974819D02*
X144376190Y-83974819D01*
X144376190Y-83974819D02*
X144471428Y-84117676D01*
X144471428Y-84117676D02*
X144566666Y-84212914D01*
X144566666Y-84212914D02*
X144661904Y-84260533D01*
X143138095Y-84974819D02*
X143709523Y-84974819D01*
X143423809Y-84974819D02*
X143423809Y-83974819D01*
X143423809Y-83974819D02*
X143519047Y-84117676D01*
X143519047Y-84117676D02*
X143614285Y-84212914D01*
X143614285Y-84212914D02*
X143709523Y-84260533D01*
X150642857Y-100004819D02*
X150976190Y-99528628D01*
X151214285Y-100004819D02*
X151214285Y-99004819D01*
X151214285Y-99004819D02*
X150833333Y-99004819D01*
X150833333Y-99004819D02*
X150738095Y-99052438D01*
X150738095Y-99052438D02*
X150690476Y-99100057D01*
X150690476Y-99100057D02*
X150642857Y-99195295D01*
X150642857Y-99195295D02*
X150642857Y-99338152D01*
X150642857Y-99338152D02*
X150690476Y-99433390D01*
X150690476Y-99433390D02*
X150738095Y-99481009D01*
X150738095Y-99481009D02*
X150833333Y-99528628D01*
X150833333Y-99528628D02*
X151214285Y-99528628D01*
X150309523Y-99004819D02*
X149690476Y-99004819D01*
X149690476Y-99004819D02*
X150023809Y-99385771D01*
X150023809Y-99385771D02*
X149880952Y-99385771D01*
X149880952Y-99385771D02*
X149785714Y-99433390D01*
X149785714Y-99433390D02*
X149738095Y-99481009D01*
X149738095Y-99481009D02*
X149690476Y-99576247D01*
X149690476Y-99576247D02*
X149690476Y-99814342D01*
X149690476Y-99814342D02*
X149738095Y-99909580D01*
X149738095Y-99909580D02*
X149785714Y-99957200D01*
X149785714Y-99957200D02*
X149880952Y-100004819D01*
X149880952Y-100004819D02*
X150166666Y-100004819D01*
X150166666Y-100004819D02*
X150261904Y-99957200D01*
X150261904Y-99957200D02*
X150309523Y-99909580D01*
X148833333Y-99004819D02*
X149023809Y-99004819D01*
X149023809Y-99004819D02*
X149119047Y-99052438D01*
X149119047Y-99052438D02*
X149166666Y-99100057D01*
X149166666Y-99100057D02*
X149261904Y-99242914D01*
X149261904Y-99242914D02*
X149309523Y-99433390D01*
X149309523Y-99433390D02*
X149309523Y-99814342D01*
X149309523Y-99814342D02*
X149261904Y-99909580D01*
X149261904Y-99909580D02*
X149214285Y-99957200D01*
X149214285Y-99957200D02*
X149119047Y-100004819D01*
X149119047Y-100004819D02*
X148928571Y-100004819D01*
X148928571Y-100004819D02*
X148833333Y-99957200D01*
X148833333Y-99957200D02*
X148785714Y-99909580D01*
X148785714Y-99909580D02*
X148738095Y-99814342D01*
X148738095Y-99814342D02*
X148738095Y-99576247D01*
X148738095Y-99576247D02*
X148785714Y-99481009D01*
X148785714Y-99481009D02*
X148833333Y-99433390D01*
X148833333Y-99433390D02*
X148928571Y-99385771D01*
X148928571Y-99385771D02*
X149119047Y-99385771D01*
X149119047Y-99385771D02*
X149214285Y-99433390D01*
X149214285Y-99433390D02*
X149261904Y-99481009D01*
X149261904Y-99481009D02*
X149309523Y-99576247D01*
X81566666Y-105879580D02*
X81614285Y-105927200D01*
X81614285Y-105927200D02*
X81757142Y-105974819D01*
X81757142Y-105974819D02*
X81852380Y-105974819D01*
X81852380Y-105974819D02*
X81995237Y-105927200D01*
X81995237Y-105927200D02*
X82090475Y-105831961D01*
X82090475Y-105831961D02*
X82138094Y-105736723D01*
X82138094Y-105736723D02*
X82185713Y-105546247D01*
X82185713Y-105546247D02*
X82185713Y-105403390D01*
X82185713Y-105403390D02*
X82138094Y-105212914D01*
X82138094Y-105212914D02*
X82090475Y-105117676D01*
X82090475Y-105117676D02*
X81995237Y-105022438D01*
X81995237Y-105022438D02*
X81852380Y-104974819D01*
X81852380Y-104974819D02*
X81757142Y-104974819D01*
X81757142Y-104974819D02*
X81614285Y-105022438D01*
X81614285Y-105022438D02*
X81566666Y-105070057D01*
X81233332Y-104974819D02*
X80614285Y-104974819D01*
X80614285Y-104974819D02*
X80947618Y-105355771D01*
X80947618Y-105355771D02*
X80804761Y-105355771D01*
X80804761Y-105355771D02*
X80709523Y-105403390D01*
X80709523Y-105403390D02*
X80661904Y-105451009D01*
X80661904Y-105451009D02*
X80614285Y-105546247D01*
X80614285Y-105546247D02*
X80614285Y-105784342D01*
X80614285Y-105784342D02*
X80661904Y-105879580D01*
X80661904Y-105879580D02*
X80709523Y-105927200D01*
X80709523Y-105927200D02*
X80804761Y-105974819D01*
X80804761Y-105974819D02*
X81090475Y-105974819D01*
X81090475Y-105974819D02*
X81185713Y-105927200D01*
X81185713Y-105927200D02*
X81233332Y-105879580D01*
D11*
%TO.C,RESET1*%
X73000000Y-54750000D02*
X74500000Y-54750000D01*
X77000000Y-56000000D02*
X77000000Y-60500000D01*
X70500000Y-60500000D02*
X70500000Y-56000000D01*
X74500000Y-61750000D02*
X73000000Y-61750000D01*
%TO.C,JP11*%
X151000000Y-84500000D02*
X151000000Y-85900000D01*
X151700000Y-86600000D02*
X152300000Y-86600000D01*
X152300000Y-83800000D02*
X151700000Y-83800000D01*
X153000000Y-85900000D02*
X153000000Y-84500000D01*
X151000000Y-84500000D02*
G75*
G02*
X151700000Y-83800000I699999J1D01*
G01*
X151700000Y-86600000D02*
G75*
G02*
X151000000Y-85900000I0J700000D01*
G01*
X152300000Y-83800000D02*
G75*
G02*
X153000000Y-84500000I1J-699999D01*
G01*
X153000000Y-85900000D02*
G75*
G02*
X152300000Y-86600000I-700000J0D01*
G01*
%TO.C,C9*%
X123661252Y-106465000D02*
X123138748Y-106465000D01*
X123661252Y-107935000D02*
X123138748Y-107935000D01*
%TO.C,R6*%
X68665000Y-45727064D02*
X68665000Y-45272936D01*
X70135000Y-45727064D02*
X70135000Y-45272936D01*
%TO.C,R1*%
X97727064Y-58065000D02*
X97272936Y-58065000D01*
X97727064Y-59535000D02*
X97272936Y-59535000D01*
%TO.C,R5*%
X91772936Y-43765000D02*
X92227064Y-43765000D01*
X91772936Y-45235000D02*
X92227064Y-45235000D01*
%TO.C,JP7*%
X109000000Y-126500000D02*
X109000000Y-127900000D01*
X109700000Y-128600000D02*
X110300000Y-128600000D01*
X110300000Y-125800000D02*
X109700000Y-125800000D01*
X111000000Y-127900000D02*
X111000000Y-126500000D01*
X109000000Y-126500000D02*
G75*
G02*
X109700000Y-125800000I699999J1D01*
G01*
X109700000Y-128600000D02*
G75*
G02*
X109000000Y-127900000I0J700000D01*
G01*
X110300000Y-125800000D02*
G75*
G02*
X111000000Y-126500000I1J-699999D01*
G01*
X111000000Y-127900000D02*
G75*
G02*
X110300000Y-128600000I-700000J0D01*
G01*
%TO.C,U1*%
X133320000Y-41070000D02*
X133320000Y-69120000D01*
X136080000Y-38420000D02*
X134700000Y-38420000D01*
X136080000Y-39800000D02*
X136080000Y-38420000D01*
X136080000Y-41070000D02*
X133320000Y-41070000D01*
X136080000Y-41070000D02*
X136080000Y-69120000D01*
X136080000Y-69120000D02*
X133320000Y-69120000D01*
X147820000Y-41070000D02*
X147820000Y-69120000D01*
X150580000Y-38420000D02*
X149200000Y-38420000D01*
X150580000Y-39800000D02*
X150580000Y-38420000D01*
X150580000Y-41070000D02*
X147820000Y-41070000D01*
X150580000Y-41070000D02*
X150580000Y-69120000D01*
X150580000Y-69120000D02*
X147820000Y-69120000D01*
%TO.C,JP6*%
X109000000Y-105450000D02*
X109000000Y-106850000D01*
X109700000Y-107550000D02*
X110300000Y-107550000D01*
X110300000Y-104750000D02*
X109700000Y-104750000D01*
X111000000Y-106850000D02*
X111000000Y-105450000D01*
X109000000Y-105450000D02*
G75*
G02*
X109700000Y-104750000I699999J1D01*
G01*
X109700000Y-107550000D02*
G75*
G02*
X109000000Y-106850000I0J700000D01*
G01*
X110300000Y-104750000D02*
G75*
G02*
X111000000Y-105450000I1J-699999D01*
G01*
X111000000Y-106850000D02*
G75*
G02*
X110300000Y-107550000I-700000J0D01*
G01*
%TO.C,C16*%
X81138748Y-45765000D02*
X81661252Y-45765000D01*
X81138748Y-47235000D02*
X81661252Y-47235000D01*
%TO.C,R26*%
X108227064Y-121265000D02*
X107772936Y-121265000D01*
X108227064Y-122735000D02*
X107772936Y-122735000D01*
%TO.C,R31*%
X127265000Y-105972936D02*
X127265000Y-106427064D01*
X128735000Y-105972936D02*
X128735000Y-106427064D01*
%TO.C,RC1*%
X94865000Y-62172936D02*
X94865000Y-62627064D01*
X96335000Y-62172936D02*
X96335000Y-62627064D01*
%TO.C,R25*%
X106265000Y-105972936D02*
X106265000Y-106427064D01*
X107735000Y-105972936D02*
X107735000Y-106427064D01*
%TO.C,R32*%
X129227064Y-121265000D02*
X128772936Y-121265000D01*
X129227064Y-122735000D02*
X128772936Y-122735000D01*
%TO.C,R3*%
X126372936Y-45065000D02*
X126827064Y-45065000D01*
X126372936Y-46535000D02*
X126827064Y-46535000D01*
%TO.C,R39*%
X148265000Y-126972936D02*
X148265000Y-127427064D01*
X149735000Y-126972936D02*
X149735000Y-127427064D01*
%TO.C,JP16*%
X72800000Y-44700000D02*
X72800000Y-46100000D01*
X73500000Y-46800000D02*
X74100000Y-46800000D01*
X74100000Y-44000000D02*
X73500000Y-44000000D01*
X74800000Y-46100000D02*
X74800000Y-44700000D01*
X72800000Y-44700000D02*
G75*
G02*
X73500000Y-44000000I699999J1D01*
G01*
X73500000Y-46800000D02*
G75*
G02*
X72800000Y-46100000I0J700000D01*
G01*
X74100000Y-44000000D02*
G75*
G02*
X74800000Y-44700000I1J-699999D01*
G01*
X74800000Y-46100000D02*
G75*
G02*
X74100000Y-46800000I-700000J0D01*
G01*
%TO.C,R33*%
X127265000Y-126972936D02*
X127265000Y-127427064D01*
X128735000Y-126972936D02*
X128735000Y-127427064D01*
%TO.C,C14*%
X129465000Y-58338748D02*
X129465000Y-58861252D01*
X130935000Y-58338748D02*
X130935000Y-58861252D01*
%TO.C,R35*%
X148265000Y-84972936D02*
X148265000Y-85427064D01*
X149735000Y-84972936D02*
X149735000Y-85427064D01*
%TO.C,C15*%
X95938748Y-47265000D02*
X96461252Y-47265000D01*
X95938748Y-48735000D02*
X96461252Y-48735000D01*
%TO.C,JP2*%
X88000000Y-84500000D02*
X88000000Y-85900000D01*
X88700000Y-86600000D02*
X89300000Y-86600000D01*
X89300000Y-83800000D02*
X88700000Y-83800000D01*
X90000000Y-85900000D02*
X90000000Y-84500000D01*
X88000000Y-84500000D02*
G75*
G02*
X88700000Y-83800000I699999J1D01*
G01*
X88700000Y-86600000D02*
G75*
G02*
X88000000Y-85900000I0J700000D01*
G01*
X89300000Y-83800000D02*
G75*
G02*
X90000000Y-84500000I1J-699999D01*
G01*
X90000000Y-85900000D02*
G75*
G02*
X89300000Y-86600000I-700000J0D01*
G01*
%TO.C,C4*%
X81661252Y-127465000D02*
X81138748Y-127465000D01*
X81661252Y-128935000D02*
X81138748Y-128935000D01*
%TO.C,R7*%
X76765000Y-45272936D02*
X76765000Y-45727064D01*
X78235000Y-45272936D02*
X78235000Y-45727064D01*
%TO.C,C12*%
X144661252Y-106465000D02*
X144138748Y-106465000D01*
X144661252Y-107935000D02*
X144138748Y-107935000D01*
%TO.C,R18*%
X87227064Y-100465000D02*
X86772936Y-100465000D01*
X87227064Y-101935000D02*
X86772936Y-101935000D01*
%TO.C,JP12*%
X151000000Y-105500000D02*
X151000000Y-106900000D01*
X151700000Y-107600000D02*
X152300000Y-107600000D01*
X152300000Y-104800000D02*
X151700000Y-104800000D01*
X153000000Y-106900000D02*
X153000000Y-105500000D01*
X151000000Y-105500000D02*
G75*
G02*
X151700000Y-104800000I699999J1D01*
G01*
X151700000Y-107600000D02*
G75*
G02*
X151000000Y-106900000I0J700000D01*
G01*
X152300000Y-104800000D02*
G75*
G02*
X153000000Y-105500000I1J-699999D01*
G01*
X153000000Y-106900000D02*
G75*
G02*
X152300000Y-107600000I-700000J0D01*
G01*
%TO.C,R34*%
X150227064Y-79265000D02*
X149772936Y-79265000D01*
X150227064Y-80735000D02*
X149772936Y-80735000D01*
%TO.C,R27*%
X106265000Y-126972936D02*
X106265000Y-127427064D01*
X107735000Y-126972936D02*
X107735000Y-127427064D01*
%TO.C,JP5*%
X109000000Y-84450000D02*
X109000000Y-85850000D01*
X109700000Y-86550000D02*
X110300000Y-86550000D01*
X110300000Y-83750000D02*
X109700000Y-83750000D01*
X111000000Y-85850000D02*
X111000000Y-84450000D01*
X109000000Y-84450000D02*
G75*
G02*
X109700000Y-83750000I699999J1D01*
G01*
X109700000Y-86550000D02*
G75*
G02*
X109000000Y-85850000I0J700000D01*
G01*
X110300000Y-83750000D02*
G75*
G02*
X111000000Y-84450000I1J-699999D01*
G01*
X111000000Y-85850000D02*
G75*
G02*
X110300000Y-86550000I-700000J0D01*
G01*
%TO.C,C10*%
X123661252Y-127465000D02*
X123138748Y-127465000D01*
X123661252Y-128935000D02*
X123138748Y-128935000D01*
%TO.C,R29*%
X127265000Y-84972936D02*
X127265000Y-85427064D01*
X128735000Y-84972936D02*
X128735000Y-85427064D01*
%TO.C,JP13*%
X151000000Y-126450000D02*
X151000000Y-127850000D01*
X151700000Y-128550000D02*
X152300000Y-128550000D01*
X152300000Y-125750000D02*
X151700000Y-125750000D01*
X153000000Y-127850000D02*
X153000000Y-126450000D01*
X151000000Y-126450000D02*
G75*
G02*
X151700000Y-125750000I699999J1D01*
G01*
X151700000Y-128550000D02*
G75*
G02*
X151000000Y-127850000I0J700000D01*
G01*
X152300000Y-125750000D02*
G75*
G02*
X153000000Y-126450000I1J-699999D01*
G01*
X153000000Y-127850000D02*
G75*
G02*
X152300000Y-128550000I-700000J0D01*
G01*
%TO.C,JP15*%
X90500000Y-47700000D02*
X90500000Y-48300000D01*
X91200000Y-49000000D02*
X92600000Y-49000000D01*
X92600000Y-47000000D02*
X91200000Y-47000000D01*
X93300000Y-48300000D02*
X93300000Y-47700000D01*
X90500000Y-47700000D02*
G75*
G02*
X91200000Y-47000000I699999J1D01*
G01*
X91200000Y-49000000D02*
G75*
G02*
X90500000Y-48300000I-1J699999D01*
G01*
X92600000Y-47000000D02*
G75*
G02*
X93300000Y-47700000I0J-700000D01*
G01*
X93300000Y-48300000D02*
G75*
G02*
X92600000Y-49000000I-700000J0D01*
G01*
%TO.C,R28*%
X129227064Y-79265000D02*
X128772936Y-79265000D01*
X129227064Y-80735000D02*
X128772936Y-80735000D01*
%TO.C,R4*%
X86972936Y-43765000D02*
X87427064Y-43765000D01*
X86972936Y-45235000D02*
X87427064Y-45235000D01*
%TO.C,R30*%
X129227064Y-100465000D02*
X128772936Y-100465000D01*
X129227064Y-101935000D02*
X128772936Y-101935000D01*
%TO.C,SW16*%
X75200000Y-38200000D02*
X77400000Y-38200000D01*
X75200000Y-42800000D02*
X83800000Y-42800000D01*
X81500000Y-38200000D02*
X83800000Y-38200000D01*
%TO.C,SW15*%
X88700000Y-38200000D02*
X90900000Y-38200000D01*
X88700000Y-42800000D02*
X97300000Y-42800000D01*
X95000000Y-38200000D02*
X97300000Y-38200000D01*
%TO.C,R37*%
X148265000Y-105972936D02*
X148265000Y-106427064D01*
X149735000Y-105972936D02*
X149735000Y-106427064D01*
%TO.C,R38*%
X150227064Y-121265000D02*
X149772936Y-121265000D01*
X150227064Y-122735000D02*
X149772936Y-122735000D01*
%TO.C,C8*%
X123623752Y-85465000D02*
X123101248Y-85465000D01*
X123623752Y-86935000D02*
X123101248Y-86935000D01*
%TO.C,JP4*%
X88000000Y-126500000D02*
X88000000Y-127900000D01*
X88700000Y-128600000D02*
X89300000Y-128600000D01*
X89300000Y-125800000D02*
X88700000Y-125800000D01*
X90000000Y-127900000D02*
X90000000Y-126500000D01*
X88000000Y-126500000D02*
G75*
G02*
X88700000Y-125800000I699999J1D01*
G01*
X88700000Y-128600000D02*
G75*
G02*
X88000000Y-127900000I0J700000D01*
G01*
X89300000Y-125800000D02*
G75*
G02*
X90000000Y-126500000I1J-699999D01*
G01*
X90000000Y-127900000D02*
G75*
G02*
X89300000Y-128600000I-700000J0D01*
G01*
%TO.C,R19*%
X85265000Y-105972936D02*
X85265000Y-106427064D01*
X86735000Y-105972936D02*
X86735000Y-106427064D01*
%TO.C,R17*%
X87227064Y-79265000D02*
X86772936Y-79265000D01*
X87227064Y-80735000D02*
X86772936Y-80735000D01*
%TO.C,JP1*%
X129200000Y-44500000D02*
X129200000Y-45900000D01*
X129900000Y-46600000D02*
X130500000Y-46600000D01*
X130500000Y-43800000D02*
X129900000Y-43800000D01*
X131200000Y-45900000D02*
X131200000Y-44500000D01*
X129200000Y-44500000D02*
G75*
G02*
X129900000Y-43800000I699999J1D01*
G01*
X129900000Y-46600000D02*
G75*
G02*
X129200000Y-45900000I0J700000D01*
G01*
X130500000Y-43800000D02*
G75*
G02*
X131200000Y-44500000I1J-699999D01*
G01*
X131200000Y-45900000D02*
G75*
G02*
X130500000Y-46600000I-700000J0D01*
G01*
%TO.C,R22*%
X108227064Y-79265000D02*
X107772936Y-79265000D01*
X108227064Y-80735000D02*
X107772936Y-80735000D01*
%TO.C,C13*%
X144661252Y-127465000D02*
X144138748Y-127465000D01*
X144661252Y-128935000D02*
X144138748Y-128935000D01*
%TO.C,R2*%
X129465000Y-40772936D02*
X129465000Y-41227064D01*
X130935000Y-40772936D02*
X130935000Y-41227064D01*
%TO.C,JP10*%
X130000000Y-126500000D02*
X130000000Y-127900000D01*
X130700000Y-128600000D02*
X131300000Y-128600000D01*
X131300000Y-125800000D02*
X130700000Y-125800000D01*
X132000000Y-127900000D02*
X132000000Y-126500000D01*
X130000000Y-126500000D02*
G75*
G02*
X130700000Y-125800000I699999J1D01*
G01*
X130700000Y-128600000D02*
G75*
G02*
X130000000Y-127900000I0J700000D01*
G01*
X131300000Y-125800000D02*
G75*
G02*
X132000000Y-126500000I1J-699999D01*
G01*
X132000000Y-127900000D02*
G75*
G02*
X131300000Y-128600000I-700000J0D01*
G01*
%TO.C,R24*%
X108227064Y-100465000D02*
X107772936Y-100465000D01*
X108227064Y-101935000D02*
X107772936Y-101935000D01*
%TO.C,JP3*%
X88000000Y-105500000D02*
X88000000Y-106900000D01*
X88700000Y-107600000D02*
X89300000Y-107600000D01*
X89300000Y-104800000D02*
X88700000Y-104800000D01*
X90000000Y-106900000D02*
X90000000Y-105500000D01*
X88000000Y-105500000D02*
G75*
G02*
X88700000Y-104800000I699999J1D01*
G01*
X88700000Y-107600000D02*
G75*
G02*
X88000000Y-106900000I0J700000D01*
G01*
X89300000Y-104800000D02*
G75*
G02*
X90000000Y-105500000I1J-699999D01*
G01*
X90000000Y-106900000D02*
G75*
G02*
X89300000Y-107600000I-700000J0D01*
G01*
%TO.C,C7*%
X102661252Y-127465000D02*
X102138748Y-127465000D01*
X102661252Y-128935000D02*
X102138748Y-128935000D01*
%TO.C,R21*%
X85265000Y-126972936D02*
X85265000Y-127427064D01*
X86735000Y-126972936D02*
X86735000Y-127427064D01*
%TO.C,R23*%
X106265000Y-84972936D02*
X106265000Y-85427064D01*
X107735000Y-84972936D02*
X107735000Y-85427064D01*
%TO.C,JP14*%
X98800000Y-61700000D02*
X98800000Y-63100000D01*
X99500000Y-63800000D02*
X100100000Y-63800000D01*
X100100000Y-61000000D02*
X99500000Y-61000000D01*
X100800000Y-63100000D02*
X100800000Y-61700000D01*
X98800000Y-61700000D02*
G75*
G02*
X99500000Y-61000000I699999J1D01*
G01*
X99500000Y-63800000D02*
G75*
G02*
X98800000Y-63100000I0J700000D01*
G01*
X100100000Y-61000000D02*
G75*
G02*
X100800000Y-61700000I1J-699999D01*
G01*
X100800000Y-63100000D02*
G75*
G02*
X100100000Y-63800000I-700000J0D01*
G01*
%TO.C,R16*%
X85265000Y-84972936D02*
X85265000Y-85427064D01*
X86735000Y-84972936D02*
X86735000Y-85427064D01*
%TO.C,JP9*%
X130000000Y-105500000D02*
X130000000Y-106900000D01*
X130700000Y-107600000D02*
X131300000Y-107600000D01*
X131300000Y-104800000D02*
X130700000Y-104800000D01*
X132000000Y-106900000D02*
X132000000Y-105500000D01*
X130000000Y-105500000D02*
G75*
G02*
X130700000Y-104800000I699999J1D01*
G01*
X130700000Y-107600000D02*
G75*
G02*
X130000000Y-106900000I0J700000D01*
G01*
X131300000Y-104800000D02*
G75*
G02*
X132000000Y-105500000I1J-699999D01*
G01*
X132000000Y-106900000D02*
G75*
G02*
X131300000Y-107600000I-700000J0D01*
G01*
%TO.C,C1*%
X91261252Y-62665000D02*
X90738748Y-62665000D01*
X91261252Y-64135000D02*
X90738748Y-64135000D01*
%TO.C,C5*%
X102661252Y-85465000D02*
X102138748Y-85465000D01*
X102661252Y-86935000D02*
X102138748Y-86935000D01*
%TO.C,C6*%
X102661252Y-106465000D02*
X102138748Y-106465000D01*
X102661252Y-107935000D02*
X102138748Y-107935000D01*
%TO.C,C2*%
X81661252Y-85465000D02*
X81138748Y-85465000D01*
X81661252Y-86935000D02*
X81138748Y-86935000D01*
%TO.C,JP8*%
X130000000Y-84500000D02*
X130000000Y-85900000D01*
X130700000Y-86600000D02*
X131300000Y-86600000D01*
X131300000Y-83800000D02*
X130700000Y-83800000D01*
X132000000Y-85900000D02*
X132000000Y-84500000D01*
X130000000Y-84500000D02*
G75*
G02*
X130700000Y-83800000I699999J1D01*
G01*
X130700000Y-86600000D02*
G75*
G02*
X130000000Y-85900000I0J700000D01*
G01*
X131300000Y-83800000D02*
G75*
G02*
X132000000Y-84500000I1J-699999D01*
G01*
X132000000Y-85900000D02*
G75*
G02*
X131300000Y-86600000I-700000J0D01*
G01*
%TO.C,R20*%
X87227064Y-121265000D02*
X86772936Y-121265000D01*
X87227064Y-122735000D02*
X86772936Y-122735000D01*
%TO.C,C11*%
X144661252Y-85465000D02*
X144138748Y-85465000D01*
X144661252Y-86935000D02*
X144138748Y-86935000D01*
%TO.C,R36*%
X150227064Y-100465000D02*
X149772936Y-100465000D01*
X150227064Y-101935000D02*
X149772936Y-101935000D01*
%TO.C,C3*%
X81661252Y-106465000D02*
X81138748Y-106465000D01*
X81661252Y-107935000D02*
X81138748Y-107935000D01*
%TD*%
M02*
