M48
; DRILL file {KiCad 9.0.1} date 2025-05-05T14:55:46+0200
; FORMAT={-:-/ absolute / metric / decimal}
; #@! TF.CreationDate,2025-05-05T14:55:46+02:00
; #@! TF.GenerationSoftware,Kicad,Pcbnew,9.0.1
; #@! TF.FileFunction,Plated,1,2,PTH
FMAT,2
METRIC
; #@! TA.AperFunction,Plated,PTH,ViaDrill
T1C0.300
; #@! TA.AperFunction,Plated,PTH,ComponentDrill
T2C0.900
; #@! TA.AperFunction,Plated,PTH,ComponentDrill
T3C1.000
; #@! TA.AperFunction,Plated,PTH,ComponentDrill
T4C1.100
; #@! TA.AperFunction,Plated,PTH,ComponentDrill
T5C1.500
%
G90
G05
T1
X69.4Y-48.1
X79.0Y-46.5
X84.1Y-107.2
X84.1Y-128.2
X84.2Y-86.2
X84.6Y-44.5
X89.5Y-80.0
X89.6Y-101.2
X89.6Y-122.0
X93.7Y-63.4
X93.9Y-48.0
X100.0Y-58.8
X105.2Y-107.2
X105.2Y-128.2
X105.3Y-86.2
X110.5Y-80.0
X110.6Y-101.2
X110.6Y-122.0
X126.1Y-86.2
X126.2Y-107.2
X126.2Y-128.2
X128.45Y-53.75
X130.2Y-38.3
X131.5Y-53.75
X131.6Y-80.0
X131.6Y-101.2
X131.6Y-122.0
X146.75Y-72.13
X147.1Y-128.2
X147.2Y-107.2
X148.45Y-72.55
X149.138Y-71.555
X152.6Y-80.0
X152.6Y-101.2
X152.6Y-122.0
T2
X77.5Y-40.5
X79.5Y-40.5
X81.5Y-40.5
X91.0Y-40.5
X93.0Y-40.5
X95.0Y-40.5
T3
X134.7Y-39.8
X134.7Y-42.34
X134.7Y-44.88
X134.7Y-47.42
X134.7Y-49.96
X134.7Y-52.5
X134.7Y-55.04
X134.7Y-57.58
X134.7Y-60.12
X134.7Y-62.66
X134.7Y-65.2
X134.7Y-67.74
X149.2Y-39.8
X149.2Y-42.34
X149.2Y-44.88
X149.2Y-47.42
X149.2Y-49.96
X149.2Y-52.5
X149.2Y-55.04
X149.2Y-57.58
X149.2Y-60.12
X149.2Y-62.66
X149.2Y-65.2
X149.2Y-67.74
T4
X71.5Y-55.0
X71.5Y-61.5
X76.0Y-55.0
X76.0Y-61.5
T5
X75.4Y-40.5
X83.6Y-40.5
X88.9Y-40.5
X97.1Y-40.5
X125.6Y-41.9
X125.6Y-50.1
M30
